M48
;Layer_Color=9474304
;FILE_FORMAT=2:4
INCH,LZ
;TYPE=PLATED
T1F00S00C0.0150
T4F00S00C0.0315
T6F00S00C0.0433
T7F00S00C0.1575
%
T01
X04725Y024844
X049797Y0238
X050787Y0227
X046004Y026074
X043657Y02768
X043167Y02801
X042327Y03025
X042797Y03091
X041997Y0257
X037647Y02455
X035497
X035225Y027327
X035247Y02825
X033647Y02815
X033397Y02715
X033297Y02635
X03325Y029353
X032797Y0293
X031604Y02875
X034337Y03085
X036147Y02915
X035897Y0205
X038097
X032097
X032047Y02375
X027997Y0239
X027497Y024
X026497Y0246
X026147Y02485
Y02595
X027672Y025825
X028459Y027288
X029247Y02725
X030034Y027263
X030822Y027276
X03025Y028747
X0283
X026097Y03111
X026897Y02235
X028891Y022394
X029147Y02205
X028447Y03197
X027687Y03173
X026885Y03145
X037717Y03172
X043004Y031783
X043504Y031994
T04
X037247Y0269
Y0299
T06
X047297Y0204
X048297
X049297
X050297
X051297
Y0214
X050297
X049297
X048297
X047297
X039747Y03045
X038747
X026547Y02135
X025547
X024547
X023547
Y02035
X024547
X025547
X026547
X038747Y03145
Y03245
X039747
Y03145
T07
X053802Y026429
X021125Y02639
M30
