G04 Layer_Color=16711935*
%FSTAX24Y24*%
%MOIN*%
G70*
G01*
G75*
%ADD29C,0.0100*%
%ADD45C,0.0079*%
%ADD47C,0.0050*%
%ADD83C,0.0039*%
%ADD85C,0.0020*%
D29*
X032226Y026417D02*
Y032782D01*
X022801D02*
X032226D01*
X022801Y026417D02*
Y032782D01*
Y026417D02*
X032226D01*
X02838Y019423D02*
Y01962D01*
X028478D01*
X028511Y019587D01*
Y019522D01*
X028478Y019489D01*
X02838D01*
X028707Y019587D02*
X028675Y01962D01*
X028609D01*
X028576Y019587D01*
Y019456D01*
X028609Y019423D01*
X028675D01*
X028707Y019456D01*
X028773Y01962D02*
Y019423D01*
X028871D01*
X028904Y019456D01*
Y019489D01*
X028871Y019522D01*
X028773D01*
X028871D01*
X028904Y019554D01*
Y019587D01*
X028871Y01962D01*
X028773D01*
X029298D02*
X029167D01*
Y019423D01*
X029298D01*
X029167Y019522D02*
X029232D01*
X029363Y019423D02*
Y01962D01*
X029495Y019423D01*
Y01962D01*
X02956D02*
Y019423D01*
X029659D01*
X029691Y019456D01*
Y019587D01*
X029659Y01962D01*
X02956D01*
D45*
X028655Y021864D02*
G03*
X028655Y021864I-000039J0D01*
G01*
D47*
X033937Y02155D02*
G03*
X033937Y02155I-00124J0D01*
G01*
X038431Y0212D02*
G03*
X038431Y0212I-000984J0D01*
G01*
X036181D02*
G03*
X036181Y0212I-000984J0D01*
G01*
X033996Y020251D02*
Y022849D01*
X031398D02*
X033996D01*
X031398Y020251D02*
Y022849D01*
Y020251D02*
X033996D01*
X027691Y021372D02*
X030604D01*
Y019679D02*
Y021372D01*
Y019404D02*
Y019679D01*
Y019404D02*
X030732Y019195D01*
X027563D02*
X030732D01*
X027563D02*
X027691Y019404D01*
Y019679D01*
Y021372D01*
Y019679D02*
X030604D01*
X038491Y020157D02*
Y022243D01*
X036404D02*
X038491D01*
X036404Y020157D02*
Y022243D01*
Y020157D02*
X038491D01*
X036241D02*
Y022243D01*
X034154D02*
X036241D01*
X034154Y020157D02*
Y022243D01*
Y020157D02*
X036241D01*
D83*
X043428Y020672D02*
Y022128D01*
X046066Y020672D02*
Y022128D01*
X043428Y020672D02*
X046066D01*
X043428Y022128D02*
X046066D01*
D85*
X022797Y0264D02*
X025023D01*
X022797D02*
Y0328D01*
X025023D01*
Y0264D02*
Y0328D01*
X023114Y026567D02*
X023097Y02655D01*
Y026517D01*
X023114Y0265D01*
X023181D01*
X023197Y026517D01*
Y02655D01*
X023181Y026567D01*
X023097Y0266D02*
X023181D01*
X023197Y026617D01*
Y02665D01*
X023181Y026667D01*
X023097D01*
Y0267D02*
Y026767D01*
Y026733D01*
X023197D01*
X023097Y02685D02*
Y026817D01*
X023114Y0268D01*
X023181D01*
X023197Y026817D01*
Y02685D01*
X023181Y026867D01*
X023114D01*
X023097Y02685D01*
Y0269D02*
X023181D01*
X023197Y026917D01*
Y02695D01*
X023181Y026967D01*
X023097D01*
Y027D02*
Y027066D01*
Y027033D01*
X023197D01*
Y0272D02*
X023097D01*
Y02725D01*
X023114Y027266D01*
X023147D01*
X023164Y02725D01*
Y0272D01*
X023097Y02735D02*
Y027316D01*
X023114Y0273D01*
X023181D01*
X023197Y027316D01*
Y02735D01*
X023181Y027366D01*
X023114D01*
X023097Y02735D01*
Y0274D02*
X023197D01*
Y027466D01*
X023097Y0275D02*
X023114D01*
X023147Y027533D01*
X023114Y027566D01*
X023097D01*
X023147Y027533D02*
X023197D01*
X023114Y027666D02*
X023097Y02765D01*
Y027616D01*
X023114Y0276D01*
X023181D01*
X023197Y027616D01*
Y02765D01*
X023181Y027666D01*
X023147D01*
Y027633D01*
X023097Y02775D02*
Y027716D01*
X023114Y0277D01*
X023181D01*
X023197Y027716D01*
Y02775D01*
X023181Y027766D01*
X023114D01*
X023097Y02775D01*
X023197Y0278D02*
X023097D01*
X023197Y027866D01*
X023097D01*
X022997Y0265D02*
X022931D01*
X022897Y026533D01*
X022931Y026567D01*
X022997D01*
X022947D01*
Y0265D01*
X022997Y0266D02*
X022897D01*
X022997Y026667D01*
X022897D01*
Y0267D02*
Y026767D01*
Y026733D01*
X022997D01*
X022897Y026867D02*
Y0268D01*
X022997D01*
Y026867D01*
X022947Y0268D02*
Y026833D01*
X022997Y0269D02*
X022897D01*
X022997Y026967D01*
X022897D01*
X022997Y027D02*
X022897D01*
X022997Y027066D01*
X022897D01*
X022997Y0271D02*
X022931D01*
X022897Y027133D01*
X022931Y027166D01*
X022997D01*
X022947D01*
Y0271D01*
X022997Y0273D02*
X022931D01*
X022897Y027333D01*
X022931Y027366D01*
X022997D01*
X022947D01*
Y0273D01*
X022997Y0274D02*
X022897D01*
Y02745D01*
X022914Y027466D01*
X022947D01*
X022964Y02745D01*
Y0274D01*
Y027433D02*
X022997Y027466D01*
X022897Y027566D02*
Y0275D01*
X022997D01*
Y027566D01*
X022947Y0275D02*
Y027533D01*
X022997Y0276D02*
X022931D01*
X022897Y027633D01*
X022931Y027666D01*
X022997D01*
X022947D01*
Y0276D01*
M02*
