G04 Layer_Color=32896*
%FSTAX24Y24*%
%MOIN*%
G70*
G01*
G75*
%ADD47C,0.0050*%
%ADD49C,0.0040*%
%ADD50C,0.0080*%
%ADD82C,0.0015*%
D47*
X033Y02849D02*
X0344D01*
Y02782D02*
Y02849D01*
X033Y02782D02*
X0344D01*
X033D02*
Y02849D01*
X03105D02*
X03245D01*
Y02782D02*
Y02849D01*
X03105Y02782D02*
X03245D01*
X03105D02*
Y02849D01*
X0291D02*
X0305D01*
Y02782D02*
Y02849D01*
X0291Y02782D02*
X0305D01*
X0291D02*
Y02849D01*
X02715D02*
X02855D01*
Y02782D02*
Y02849D01*
X02715Y02782D02*
X02855D01*
X02715D02*
Y02849D01*
X033Y02961D02*
X0344D01*
X033D02*
Y03028D01*
X0344D01*
Y02961D02*
Y03028D01*
X03105Y02961D02*
X03245D01*
X03105D02*
Y03028D01*
X03245D01*
Y02961D02*
Y03028D01*
X0291Y02961D02*
X0305D01*
X0291D02*
Y03028D01*
X0305D01*
Y02961D02*
Y03028D01*
X02715Y02961D02*
X02855D01*
X02715D02*
Y03028D01*
X02855D01*
Y02961D02*
Y03028D01*
D49*
X03353Y0279D02*
X03387D01*
X03353Y0284D02*
X03387D01*
X03158Y0279D02*
X03192D01*
X03158Y0284D02*
X03192D01*
X02963Y0279D02*
X02997D01*
X02963Y0284D02*
X02997D01*
X02768Y0279D02*
X02802D01*
X02768Y0284D02*
X02802D01*
X03353Y0302D02*
X03387D01*
X03353Y0297D02*
X03387D01*
X03158Y0302D02*
X03192D01*
X03158Y0297D02*
X03192D01*
X02963Y0302D02*
X02997D01*
X02963Y0297D02*
X02997D01*
X02768Y0302D02*
X02802D01*
X02768Y0297D02*
X02802D01*
D50*
X051057Y02364D02*
X051457D01*
X051324Y023773D01*
X051457Y023907D01*
X051057D01*
X051457Y02404D02*
Y024173D01*
Y024107D01*
X051057D01*
Y02404D01*
Y024173D01*
X05139Y02464D02*
X051457Y024573D01*
Y02444D01*
X05139Y024373D01*
X051324D01*
X051257Y02444D01*
Y024573D01*
X051191Y02464D01*
X051124D01*
X051057Y024573D01*
Y02444D01*
X051124Y024373D01*
X05139Y02223D02*
X051457Y022297D01*
Y02243D01*
X05139Y022497D01*
X051324D01*
X051257Y02243D01*
Y022363D01*
Y02243D01*
X051191Y022497D01*
X051124D01*
X051057Y02243D01*
Y022297D01*
X051124Y02223D01*
X051457Y02263D02*
X051191D01*
X051057Y022763D01*
X051191Y022896D01*
X051457D01*
X05139Y02303D02*
X051457Y023096D01*
Y02323D01*
X05139Y023296D01*
X051324D01*
X051257Y02323D01*
Y023163D01*
Y02323D01*
X051191Y023296D01*
X051124D01*
X051057Y02323D01*
Y023096D01*
X051124Y02303D01*
X050067Y02364D02*
X050467D01*
X050334Y023773D01*
X050467Y023907D01*
X050067D01*
X050467Y02424D02*
Y024107D01*
X0504Y02404D01*
X050134D01*
X050067Y024107D01*
Y02424D01*
X050134Y024306D01*
X0504D01*
X050467Y02424D01*
X0504Y024706D02*
X050467Y02464D01*
Y024506D01*
X0504Y02444D01*
X050334D01*
X050267Y024506D01*
Y02464D01*
X050201Y024706D01*
X050134D01*
X050067Y02464D01*
Y024506D01*
X050134Y02444D01*
X050067Y02223D02*
X050467D01*
Y02243D01*
X0504Y022497D01*
X050267D01*
X050201Y02243D01*
Y02223D01*
Y022363D02*
X050067Y022497D01*
X050467Y022896D02*
Y02263D01*
X050067D01*
Y022896D01*
X050267Y02263D02*
Y022763D01*
X0504Y023296D02*
X050467Y02323D01*
Y023096D01*
X0504Y02303D01*
X050334D01*
X050267Y023096D01*
Y02323D01*
X050201Y023296D01*
X050134D01*
X050067Y02323D01*
Y023096D01*
X050134Y02303D01*
X04941Y023907D02*
X049477Y02384D01*
Y023707D01*
X04941Y02364D01*
X049144D01*
X049077Y023707D01*
Y02384D01*
X049144Y023907D01*
X049477Y02404D02*
X049077D01*
Y024306D01*
X049477Y02444D02*
X049077D01*
X049211D01*
X049477Y024706D01*
X049277Y024506D01*
X049077Y024706D01*
X04941Y022497D02*
X049477Y02243D01*
Y022297D01*
X04941Y02223D01*
X049144D01*
X049077Y022297D01*
Y02243D01*
X049144Y022497D01*
X04941Y022896D02*
X049477Y02283D01*
Y022697D01*
X04941Y02263D01*
X049344D01*
X049277Y022697D01*
Y02283D01*
X049211Y022896D01*
X049144D01*
X049077Y02283D01*
Y022697D01*
X049144Y02263D01*
X048487Y02364D02*
X048087D01*
Y02384D01*
X048154Y023907D01*
X04842D01*
X048487Y02384D01*
Y02364D01*
Y02404D02*
X048087D01*
Y02424D01*
X048154Y024306D01*
X04842D01*
X048487Y02424D01*
Y02404D01*
Y02223D02*
X048087D01*
Y02243D01*
X048154Y022497D01*
X04842D01*
X048487Y02243D01*
Y02223D01*
X04842Y022896D02*
X048487Y02283D01*
Y022697D01*
X04842Y02263D01*
X048154D01*
X048087Y022697D01*
Y02283D01*
X048154Y022896D01*
X04743Y02364D02*
X047497Y023707D01*
Y02384D01*
X04743Y023907D01*
X047364D01*
X047297Y02384D01*
Y023773D01*
Y02384D01*
X047231Y023907D01*
X047164D01*
X047097Y02384D01*
Y023707D01*
X047164Y02364D01*
X047497Y02404D02*
X047231D01*
X047097Y024173D01*
X047231Y024306D01*
X047497D01*
X04743Y02444D02*
X047497Y024506D01*
Y02464D01*
X04743Y024706D01*
X047364D01*
X047297Y02464D01*
Y024573D01*
Y02464D01*
X047231Y024706D01*
X047164D01*
X047097Y02464D01*
Y024506D01*
X047164Y02444D01*
X04743Y022497D02*
X047497Y02243D01*
Y022297D01*
X04743Y02223D01*
X047164D01*
X047097Y022297D01*
Y02243D01*
X047164Y022497D01*
X047297D01*
Y022363D01*
X047097Y02263D02*
X047497D01*
X047097Y022896D01*
X047497D01*
Y02303D02*
X047097D01*
Y02323D01*
X047164Y023296D01*
X04743D01*
X047497Y02323D01*
Y02303D01*
X02724Y022427D02*
X027307Y02236D01*
Y022227D01*
X02724Y02216D01*
X026974D01*
X026907Y022227D01*
Y02236D01*
X026974Y022427D01*
X027107D01*
Y022293D01*
X026907Y02256D02*
X027307D01*
X026907Y022826D01*
X027307D01*
Y02296D02*
X026907D01*
Y02316D01*
X026974Y023226D01*
X02724D01*
X027307Y02316D01*
Y02296D01*
Y02404D02*
Y024173D01*
Y024107D01*
X026907D01*
Y02404D01*
Y024173D01*
X027307Y024573D02*
Y02444D01*
X02724Y024373D01*
X026974D01*
X026907Y02444D01*
Y024573D01*
X026974Y02464D01*
X02724D01*
X027307Y024573D01*
X026907Y024773D02*
Y024906D01*
Y02484D01*
X027307D01*
X02724Y024773D01*
Y025106D02*
X027307Y025173D01*
Y025306D01*
X02724Y025373D01*
X027174D01*
X027107Y025306D01*
Y02524D01*
Y025306D01*
X027041Y025373D01*
X026974D01*
X026907Y025306D01*
Y025173D01*
X026974Y025106D01*
X026374Y02216D02*
Y022427D01*
Y022293D01*
X025974D01*
X026374Y02256D02*
X025974Y022826D01*
X026374D02*
X025974Y02256D01*
X025907Y02296D02*
Y023226D01*
X026374Y023626D02*
Y02336D01*
X025974D01*
Y023626D01*
X026174Y02336D02*
Y023493D01*
X026307Y02404D02*
Y024173D01*
Y024107D01*
X025907D01*
Y02404D01*
Y024173D01*
X026307Y024573D02*
Y02444D01*
X02624Y024373D01*
X025974D01*
X025907Y02444D01*
Y024573D01*
X025974Y02464D01*
X02624D01*
X026307Y024573D01*
X025907Y024773D02*
Y024906D01*
Y02484D01*
X026307D01*
X02624Y024773D01*
X025907Y025373D02*
Y025106D01*
X026174Y025373D01*
X02624D01*
X026307Y025306D01*
Y025173D01*
X02624Y025106D01*
X024974Y02216D02*
X025374D01*
Y02236D01*
X025307Y022427D01*
X025174D01*
X025107Y02236D01*
Y02216D01*
Y022293D02*
X024974Y022427D01*
X025374Y02256D02*
X024974Y022826D01*
X025374D02*
X024974Y02256D01*
X024907Y02296D02*
Y023226D01*
X025374Y023626D02*
Y02336D01*
X024974D01*
Y023626D01*
X025174Y02336D02*
Y023493D01*
X025307Y02404D02*
Y024173D01*
Y024107D01*
X024907D01*
Y02404D01*
Y024173D01*
X025307Y024573D02*
Y02444D01*
X02524Y024373D01*
X024974D01*
X024907Y02444D01*
Y024573D01*
X024974Y02464D01*
X02524D01*
X025307Y024573D01*
X024907Y024773D02*
Y024906D01*
Y02484D01*
X025307D01*
X02524Y024773D01*
X024907Y025306D02*
X025307D01*
X025107Y025106D01*
Y025373D01*
X02424Y02216D02*
X024307Y022227D01*
Y02236D01*
X02424Y022427D01*
X024174D01*
X024107Y02236D01*
Y022293D01*
Y02236D01*
X024041Y022427D01*
X023974D01*
X023907Y02236D01*
Y022227D01*
X023974Y02216D01*
X024307Y02256D02*
X024041D01*
X023907Y022693D01*
X024041Y022826D01*
X024307D01*
X02424Y02296D02*
X024307Y023026D01*
Y02316D01*
X02424Y023226D01*
X024174D01*
X024107Y02316D01*
Y023093D01*
Y02316D01*
X024041Y023226D01*
X023974D01*
X023907Y02316D01*
Y023026D01*
X023974Y02296D01*
X024307Y02404D02*
Y024173D01*
Y024107D01*
X023907D01*
Y02404D01*
Y024173D01*
X024307Y024573D02*
Y02444D01*
X02424Y024373D01*
X023974D01*
X023907Y02444D01*
Y024573D01*
X023974Y02464D01*
X02424D01*
X024307Y024573D01*
X023907Y024773D02*
Y024906D01*
Y02484D01*
X024307D01*
X02424Y024773D01*
X024307Y025373D02*
X02424Y02524D01*
X024107Y025106D01*
X023974D01*
X023907Y025173D01*
Y025306D01*
X023974Y025373D01*
X024041D01*
X024107Y025306D01*
Y025106D01*
X042007Y03085D02*
X041741D01*
X041874D01*
Y03045D01*
X041607Y03085D02*
X041341Y03045D01*
Y03085D02*
X041607Y03045D01*
X041207Y030383D02*
X040941D01*
X040541Y03085D02*
X040808D01*
Y03045D01*
X040541D01*
X040808Y03065D02*
X040674D01*
X042007Y031908D02*
X041741D01*
X041874D01*
Y031508D01*
X041607Y031908D02*
X041341Y031508D01*
Y031908D02*
X041607Y031508D01*
X041207Y031442D02*
X040941D01*
X040808Y031908D02*
X040541D01*
Y031842D01*
X040808Y031575D01*
Y031508D01*
X040541D01*
X041541Y0329D02*
X041407D01*
X041474D01*
Y0325D01*
X041541D01*
X041407D01*
X041008Y0329D02*
X041141D01*
X041207Y032833D01*
Y032567D01*
X041141Y0325D01*
X041008D01*
X040941Y032567D01*
Y032833D01*
X041008Y0329D01*
X040608Y0325D02*
Y0329D01*
X040808Y0327D01*
X040541D01*
X038037Y03045D02*
Y03085D01*
X037837D01*
X037771Y030783D01*
Y03065D01*
X037837Y030583D01*
X038037D01*
X037904D02*
X037771Y03045D01*
X037637Y03085D02*
X037371Y03045D01*
Y03085D02*
X037637Y03045D01*
X037238Y030383D02*
X036971D01*
X036571Y03085D02*
X036838D01*
Y03045D01*
X036571D01*
X036838Y03065D02*
X036704D01*
X038037Y031508D02*
Y031908D01*
X037837D01*
X037771Y031842D01*
Y031708D01*
X037837Y031642D01*
X038037D01*
X037904D02*
X037771Y031508D01*
X037637Y031908D02*
X037371Y031508D01*
Y031908D02*
X037637Y031508D01*
X037238Y031442D02*
X036971D01*
X036838Y031908D02*
X036571D01*
Y031842D01*
X036838Y031575D01*
Y031508D01*
X036571D01*
X038037Y0329D02*
X037904D01*
X037971D01*
Y0325D01*
X038037D01*
X037904D01*
X037504Y0329D02*
X037637D01*
X037704Y032833D01*
Y032567D01*
X037637Y0325D01*
X037504D01*
X037437Y032567D01*
Y032833D01*
X037504Y0329D01*
X037038D02*
X037304D01*
Y0327D01*
X037171Y032767D01*
X037104D01*
X037038Y0327D01*
Y032567D01*
X037104Y0325D01*
X037238D01*
X037304Y032567D01*
X03434Y0288D02*
Y0292D01*
X03414D01*
X034073Y029133D01*
Y029D01*
X03414Y028933D01*
X03434D01*
X034207D02*
X034073Y0288D01*
X03394D02*
X033807D01*
X033873D01*
Y0292D01*
X03394Y029133D01*
X033407Y0288D02*
Y0292D01*
X033607Y029D01*
X03334D01*
X03239Y0288D02*
Y0292D01*
X03219D01*
X032123Y029133D01*
Y029D01*
X03219Y028933D01*
X03239D01*
X032257D02*
X032123Y0288D01*
X03199D02*
X031857D01*
X031923D01*
Y0292D01*
X03199Y029133D01*
X031657D02*
X03159Y0292D01*
X031457D01*
X03139Y029133D01*
Y029067D01*
X031457Y029D01*
X031524D01*
X031457D01*
X03139Y028933D01*
Y028867D01*
X031457Y0288D01*
X03159D01*
X031657Y028867D01*
X03044Y0288D02*
Y0292D01*
X03024D01*
X030173Y029133D01*
Y029D01*
X03024Y028933D01*
X03044D01*
X030307D02*
X030173Y0288D01*
X03004D02*
X029907D01*
X029973D01*
Y0292D01*
X03004Y029133D01*
X02944Y0288D02*
X029707D01*
X02944Y029067D01*
Y029133D01*
X029507Y0292D01*
X02964D01*
X029707Y029133D01*
X02849Y0288D02*
Y0292D01*
X02829D01*
X028223Y029133D01*
Y029D01*
X02829Y028933D01*
X02849D01*
X028357D02*
X028223Y0288D01*
X02809D02*
X027957D01*
X028023D01*
Y0292D01*
X02809Y029133D01*
X027757Y0288D02*
X027624D01*
X02769D01*
Y0292D01*
X027757Y029133D01*
X03435Y03058D02*
Y03098D01*
X03415D01*
X034083Y030913D01*
Y03078D01*
X03415Y030713D01*
X03435D01*
X034217D02*
X034083Y03058D01*
X03395D02*
X033817D01*
X033883D01*
Y03098D01*
X03395Y030913D01*
X033617D02*
X03355Y03098D01*
X033417D01*
X03335Y030913D01*
Y030647D01*
X033417Y03058D01*
X03355D01*
X033617Y030647D01*
Y030913D01*
X03239Y03058D02*
Y03098D01*
X03219D01*
X032123Y030913D01*
Y03078D01*
X03219Y030713D01*
X03239D01*
X032257D02*
X032123Y03058D01*
X03199Y030647D02*
X031923Y03058D01*
X03179D01*
X031724Y030647D01*
Y030913D01*
X03179Y03098D01*
X031923D01*
X03199Y030913D01*
Y030847D01*
X031923Y03078D01*
X031724D01*
X03045Y03058D02*
Y03098D01*
X03025D01*
X030183Y030913D01*
Y03078D01*
X03025Y030713D01*
X03045D01*
X030317D02*
X030183Y03058D01*
X03005Y030913D02*
X029983Y03098D01*
X02985D01*
X029784Y030913D01*
Y030847D01*
X02985Y03078D01*
X029784Y030713D01*
Y030647D01*
X02985Y03058D01*
X029983D01*
X03005Y030647D01*
Y030713D01*
X029983Y03078D01*
X03005Y030847D01*
Y030913D01*
X029983Y03078D02*
X02985D01*
X02849Y03058D02*
Y03098D01*
X02829D01*
X028223Y030913D01*
Y03078D01*
X02829Y030713D01*
X02849D01*
X028357D02*
X028223Y03058D01*
X02809Y03098D02*
X027824D01*
Y030913D01*
X02809Y030647D01*
Y03058D01*
D82*
X049102Y02668D02*
X049147D01*
X049087Y026695D02*
X049177D01*
X049027Y02671D02*
X049102D01*
X049117D02*
X049132D01*
X049147D02*
X049207D01*
X049012Y026725D02*
X049072D01*
X049117D02*
X049132D01*
X049177D02*
X049222D01*
X048982Y02674D02*
X049027D01*
X049117D02*
X049132D01*
X049192D02*
X049237D01*
X048997Y026755D02*
X049042D01*
X049102D02*
X049132D01*
X049207D02*
X049252D01*
X048967Y02677D02*
X049012D01*
X049117D02*
X049132D01*
X049222D02*
X049282D01*
X048937Y026785D02*
X048982D01*
X049117D02*
X049132D01*
X049252D02*
X049312D01*
X048907Y0268D02*
X048952D01*
X049117D02*
X049132D01*
X049282D02*
X049327D01*
X048877Y026815D02*
X048937D01*
X049117D02*
X049132D01*
X049312D02*
X049357D01*
X048847Y02683D02*
X048907D01*
X049117D02*
X049132D01*
X049327D02*
X049387D01*
X048832Y026845D02*
X048877D01*
X049117D02*
X049132D01*
X049357D02*
X049402D01*
X048802Y02686D02*
X048847D01*
X049117D02*
X049132D01*
X049387D02*
X049432D01*
X048772Y026875D02*
X048832D01*
X049102D02*
X049132D01*
X049417D02*
X049477D01*
X048742Y02689D02*
X048802D01*
X049117D02*
X049132D01*
X049432D02*
X049447D01*
X049462D02*
X049492D01*
X048727Y026905D02*
X048772D01*
X049117D02*
X049132D01*
X049477D02*
X049537D01*
X048697Y02692D02*
X048742D01*
X049117D02*
X049147D01*
X049507D02*
X049552D01*
X048652Y026935D02*
X048727D01*
X049117D02*
X049132D01*
X049537D02*
X049582D01*
X048637Y02695D02*
X048667D01*
X048682D02*
X048697D01*
X049117D02*
X049132D01*
X049567D02*
X049612D01*
X048607Y026965D02*
X048667D01*
X049117D02*
X049132D01*
X049582D02*
X049642D01*
X048577Y02698D02*
X048622D01*
X049117D02*
X049132D01*
X049612D02*
X049657D01*
X048562Y026995D02*
X048607D01*
X049117D02*
X049132D01*
X049642D02*
X049687D01*
X048532Y02701D02*
X048577D01*
X049117D02*
X049132D01*
X049672D02*
X049717D01*
X048502Y027025D02*
X048547D01*
X049117D02*
X049132D01*
X049687D02*
X049732D01*
X048472Y02704D02*
X048532D01*
X049102D02*
X049147D01*
X049717D02*
X049762D01*
X048457Y027055D02*
X048502D01*
X049087D02*
X049117D01*
X049132D02*
X049162D01*
X049732D02*
X049792D01*
X048427Y02707D02*
X048472D01*
X049042D02*
X049087D01*
X049162D02*
X049192D01*
X049777D02*
X049807D01*
X049822D02*
X049837D01*
X048397Y027085D02*
X048442D01*
X049012D02*
X049042D01*
X049057D02*
X049072D01*
X049177D02*
X049222D01*
X049792D02*
X049867D01*
X048367Y0271D02*
X048427D01*
X048982D02*
X049027D01*
X049207D02*
X049252D01*
X049837D02*
X049882D01*
X048352Y027115D02*
X048397D01*
X048967D02*
X048997D01*
X049252D02*
X049282D01*
X049867D02*
X049912D01*
X048352Y02713D02*
X048397D01*
X048967D02*
X048997D01*
X049237D02*
X049282D01*
X049867D02*
X049912D01*
X048322Y027145D02*
X048367D01*
X048937D02*
X048967D01*
X049267D02*
X049312D01*
X049882D02*
X049927D01*
X048277Y02716D02*
X048337D01*
X048907D02*
X048952D01*
X049297D02*
X049327D01*
X049912D02*
X049957D01*
X048262Y027175D02*
X048322D01*
X048892D02*
X048922D01*
X049327D02*
X049357D01*
X049942D02*
X049987D01*
X048232Y02719D02*
X048277D01*
X048862D02*
X048892D01*
X049102D02*
X049147D01*
X049342D02*
X049387D01*
X049972D02*
X050017D01*
X048202Y027205D02*
X048247D01*
X048832D02*
X048862D01*
X049072D02*
X049162D01*
X049372D02*
X049417D01*
X049987D02*
X050032D01*
X048172Y02722D02*
X048232D01*
X048802D02*
X048847D01*
X049042D02*
X049147D01*
X049162D02*
X049192D01*
X049402D02*
X049447D01*
X050017D02*
X050062D01*
X048157Y027235D02*
X048202D01*
X048772D02*
X048817D01*
X049012D02*
X049132D01*
X049192D02*
X049222D01*
X049432D02*
X049477D01*
X050047D02*
X050092D01*
X048127Y02725D02*
X048172D01*
X048757D02*
X048787D01*
X048982D02*
X049132D01*
X049207D02*
X049252D01*
X049477D02*
X049507D01*
X050077D02*
X050122D01*
X048097Y027265D02*
X048142D01*
X048727D02*
X048757D01*
X048967D02*
X049147D01*
X049237D02*
X049282D01*
X049492D02*
X049537D01*
X050107D02*
X050137D01*
X048082Y02728D02*
X048127D01*
X048697D02*
X048742D01*
X048937D02*
X049132D01*
X049267D02*
X049297D01*
X049522D02*
X049552D01*
X050122D02*
X050167D01*
X048052Y027295D02*
X048097D01*
X048667D02*
X048712D01*
X048922D02*
X049132D01*
X049282D02*
X049312D01*
X049552D02*
X049582D01*
X050152D02*
X050212D01*
X048022Y02731D02*
X048067D01*
X048637D02*
X048667D01*
X048682D02*
X048697D01*
X048892D02*
X049147D01*
X049312D02*
X049342D01*
X049582D02*
X049612D01*
X050182D02*
X050242D01*
X047992Y027325D02*
X048052D01*
X048607D02*
X048637D01*
X048877D02*
X049132D01*
X049327D02*
X049372D01*
X049597D02*
X049642D01*
X050212D02*
X050272D01*
X047977Y02734D02*
X048022D01*
X048577D02*
X048622D01*
X048847D02*
X049147D01*
X049357D02*
X049402D01*
X049627D02*
X049672D01*
X050242D02*
X050287D01*
X047947Y027355D02*
X047992D01*
X048562D02*
X048592D01*
X048817D02*
X049132D01*
X049387D02*
X049417D01*
X049657D02*
X049687D01*
X050272D02*
X050317D01*
X047902Y02737D02*
X047962D01*
X048532D02*
X048562D01*
X048817D02*
X049147D01*
X049417D02*
X049477D01*
X049687D02*
X049717D01*
X050287D02*
X050332D01*
X047872Y027385D02*
X047947D01*
X048502D02*
X048517D01*
X048532D02*
X048547D01*
X048817D02*
X049132D01*
X049432D02*
X049447D01*
X049462D02*
X049492D01*
X049702D02*
X049747D01*
X050317D02*
X050377D01*
X047857Y0274D02*
X047902D01*
X048472D02*
X048517D01*
X048802D02*
X049132D01*
X049477D02*
X049522D01*
X049732D02*
X049777D01*
X050347D02*
X050392D01*
X047827Y027415D02*
X047872D01*
X048472D02*
X048487D01*
X048817D02*
X049132D01*
X049507D02*
X049552D01*
X049762D02*
X049792D01*
X050377D02*
X050422D01*
X047797Y02743D02*
X047842D01*
X048427D02*
X048472D01*
X048817D02*
X049147D01*
X049537D02*
X049567D01*
X049792D02*
X049837D01*
X050392D02*
X050452D01*
X047782Y027445D02*
X047827D01*
X048397D02*
X048427D01*
X048652D02*
X048712D01*
X048802D02*
X049132D01*
X049552D02*
X049597D01*
X049822D02*
X049867D01*
X050422D02*
X050467D01*
X047752Y02746D02*
X047797D01*
X048367D02*
X048412D01*
X048622D02*
X048742D01*
X048817D02*
X049147D01*
X049582D02*
X049627D01*
X049852D02*
X049897D01*
X050452D02*
X050497D01*
X047722Y027475D02*
X047767D01*
X048352D02*
X048382D01*
X048592D02*
X048712D01*
X048727D02*
X048757D01*
X048817D02*
X049132D01*
X049612D02*
X049642D01*
X049882D02*
X049927D01*
X050482D02*
X050527D01*
X047722Y02749D02*
X047767D01*
X048352D02*
X048382D01*
X048592D02*
X048697D01*
X048712D02*
X048772D01*
X048802D02*
X049132D01*
X049612D02*
X049657D01*
X049882D02*
X049912D01*
X050482D02*
X050527D01*
X047707Y027505D02*
X047752D01*
X048292D02*
X048307D01*
X048322D02*
X048352D01*
X048562D02*
X048697D01*
X048742D02*
X048787D01*
X048817D02*
X049147D01*
X049642D02*
X049672D01*
X049897D02*
X049957D01*
X050497D02*
X050542D01*
X047677Y02752D02*
X047722D01*
X048292D02*
X048337D01*
X048547D02*
X048712D01*
X048772D02*
X049132D01*
X049657D02*
X049702D01*
X049942D02*
X049972D01*
X050527D02*
X050587D01*
X047647Y027535D02*
X047692D01*
X048262D02*
X048292D01*
X048517D02*
X048697D01*
X048787D02*
X049132D01*
X049687D02*
X049732D01*
X049957D02*
X050002D01*
X050557D02*
X050617D01*
X047617Y02755D02*
X047677D01*
X048232D02*
X048277D01*
X048487D02*
X048697D01*
X048817D02*
X049147D01*
X049717D02*
X049747D01*
X049987D02*
X050032D01*
X050602D02*
X050647D01*
X047587Y027565D02*
X047647D01*
X048202D02*
X048232D01*
X048457D02*
X048712D01*
X048817D02*
X049132D01*
X049732D02*
X049777D01*
X050017D02*
X050062D01*
X050632D02*
X050662D01*
X047572Y02758D02*
X047617D01*
X048172D02*
X048217D01*
X048442D02*
X048712D01*
X048802D02*
X049147D01*
X049762D02*
X049792D01*
X050047D02*
X050077D01*
X050647D02*
X050707D01*
X047527Y027595D02*
X047587D01*
X048157D02*
X048187D01*
X048412D02*
X048697D01*
X048817D02*
X049132D01*
X049792D02*
X049837D01*
X050077D02*
X050107D01*
X050677D02*
X050722D01*
X047497Y02761D02*
X047542D01*
X047557D02*
X047572D01*
X048112D02*
X048157D01*
X048382D02*
X048697D01*
X048802D02*
X049132D01*
X049807D02*
X049822D01*
X049837D02*
X049867D01*
X050107D02*
X050137D01*
X050707D02*
X050752D01*
X047482Y027625D02*
X047527D01*
X048097D02*
X048112D01*
X048127D02*
X048142D01*
X048382D02*
X048712D01*
X048817D02*
X049147D01*
X049852D02*
X049897D01*
X050122D02*
X050167D01*
X050722D02*
X050782D01*
X047452Y02764D02*
X047497D01*
X048067D02*
X048112D01*
X048382D02*
X048697D01*
X048817D02*
X049132D01*
X049882D02*
X049927D01*
X050152D02*
X050182D01*
X050197D02*
X050212D01*
X050752D02*
X050812D01*
X047422Y027655D02*
X047482D01*
X048037D02*
X048082D01*
X048367D02*
X048697D01*
X048802D02*
X049132D01*
X049912D02*
X049942D01*
X050182D02*
X050227D01*
X050782D02*
X050827D01*
X047407Y02767D02*
X047452D01*
X048022D02*
X048052D01*
X048382D02*
X048712D01*
X048817D02*
X049147D01*
X049942D02*
X049972D01*
X050227D02*
X050257D01*
X050812D02*
X050842D01*
X047377Y027685D02*
X047422D01*
X047992D02*
X048022D01*
X048382D02*
X048697D01*
X048817D02*
X049132D01*
X049957D02*
X050002D01*
X050242D02*
X050287D01*
X050827D02*
X050887D01*
X047347Y0277D02*
X047392D01*
X047962D02*
X048007D01*
X048382D02*
X048712D01*
X048802D02*
X049147D01*
X049987D02*
X050032D01*
X050272D02*
X050317D01*
X050857D02*
X050902D01*
X047317Y027715D02*
X047377D01*
X047932D02*
X047977D01*
X048382D02*
X048697D01*
X048817D02*
X049132D01*
X050017D02*
X050047D01*
X050302D02*
X050332D01*
X050887D02*
X050932D01*
X047302Y02773D02*
X047347D01*
X047902D02*
X047947D01*
X048367D02*
X048697D01*
X048802D02*
X049132D01*
X050032D02*
X050077D01*
X050332D02*
X050362D01*
X050917D02*
X050977D01*
X047272Y027745D02*
X047317D01*
X047872D02*
X047902D01*
X048382D02*
X048712D01*
X048817D02*
X049147D01*
X050062D02*
X050107D01*
X050347D02*
X050392D01*
X050932D02*
X050992D01*
X047242Y02776D02*
X047287D01*
X047842D02*
X047887D01*
X048382D02*
X048697D01*
X048817D02*
X049132D01*
X050092D02*
X050137D01*
X050377D02*
X050422D01*
X050977D02*
X051022D01*
X047212Y027775D02*
X047272D01*
X047812D02*
X047827D01*
X047842D02*
X047857D01*
X048367D02*
X048697D01*
X048817D02*
X049132D01*
X050122D02*
X050152D01*
X050407D02*
X050452D01*
X051007D02*
X051052D01*
X047197Y02779D02*
X047242D01*
X047797D02*
X047842D01*
X048382D02*
X048712D01*
X048802D02*
X049147D01*
X050137D02*
X050182D01*
X050437D02*
X050467D01*
X051037D02*
X051067D01*
X047152Y027805D02*
X047212D01*
X047767D02*
X047797D01*
X048052D02*
X048097D01*
X048382D02*
X048697D01*
X048817D02*
X049132D01*
X050167D02*
X050212D01*
X050452D02*
X050497D01*
X051052D02*
X051112D01*
X047122Y02782D02*
X047182D01*
X047737D02*
X047782D01*
X048022D02*
X048097D01*
X048112D02*
X048127D01*
X048367D02*
X048697D01*
X048817D02*
X049132D01*
X050197D02*
X050242D01*
X050482D02*
X050527D01*
X051082D02*
X051127D01*
X047092Y027835D02*
X047152D01*
X047707D02*
X047752D01*
X047992D02*
X048157D01*
X048382D02*
X048712D01*
X048817D02*
X049132D01*
X050227D02*
X050272D01*
X050512D02*
X050542D01*
X051112D02*
X051142D01*
X047107Y02785D02*
X047152D01*
X047722D02*
X047752D01*
X047992D02*
X048082D01*
X048112D02*
X048142D01*
X048382D02*
X048697D01*
X048817D02*
X049147D01*
X050242D02*
X050272D01*
X050512D02*
X050557D01*
X051112D02*
X051157D01*
X047077Y027865D02*
X047122D01*
X047692D02*
X047722D01*
X047962D02*
X048097D01*
X048127D02*
X048187D01*
X048382D02*
X048697D01*
X048802D02*
X049132D01*
X050257D02*
X050302D01*
X050542D02*
X050587D01*
X051127D02*
X051187D01*
X047047Y02788D02*
X047092D01*
X047662D02*
X047692D01*
X047917D02*
X047932D01*
X047947D02*
X048082D01*
X048157D02*
X048217D01*
X048382D02*
X048712D01*
X048817D02*
X049147D01*
X050287D02*
X050317D01*
X050557D02*
X050572D01*
X050587D02*
X050602D01*
X051157D02*
X051202D01*
X047017Y027895D02*
X047077D01*
X047632D02*
X047677D01*
X047902D02*
X048082D01*
X048187D02*
X048232D01*
X048367D02*
X048697D01*
X048817D02*
X049132D01*
X050302D02*
X050347D01*
X050602D02*
X050647D01*
X051187D02*
X051232D01*
X047002Y02791D02*
X047047D01*
X047617D02*
X047647D01*
X047872D02*
X048097D01*
X048217D02*
X048262D01*
X048382D02*
X048712D01*
X048802D02*
X049132D01*
X050347D02*
X050377D01*
X050632D02*
X050677D01*
X051217D02*
X051262D01*
X046972Y027925D02*
X047017D01*
X047587D02*
X047617D01*
X047842D02*
X048082D01*
X048232D02*
X048292D01*
X048382D02*
X048697D01*
X048817D02*
X049147D01*
X050362D02*
X050407D01*
X050662D02*
X050707D01*
X051232D02*
X051277D01*
X046942Y02794D02*
X046987D01*
X047542D02*
X047602D01*
X047812D02*
X048097D01*
X048262D02*
X048337D01*
X048382D02*
X048712D01*
X048817D02*
X049132D01*
X050392D02*
X050422D01*
X050692D02*
X050722D01*
X051262D02*
X051307D01*
X046912Y027955D02*
X046972D01*
X047512D02*
X047542D01*
X047557D02*
X047572D01*
X047782D02*
X048082D01*
X048292D02*
X048367D01*
X048382D02*
X048697D01*
X048817D02*
X049132D01*
X050422D02*
X050452D01*
X050722D02*
X050752D01*
X051292D02*
X051352D01*
X046897Y02797D02*
X046942D01*
X047497D02*
X047527D01*
X047767D02*
X048097D01*
X048337D02*
X048697D01*
X048802D02*
X049147D01*
X050437D02*
X050482D01*
X050737D02*
X050782D01*
X051322D02*
X051367D01*
X046867Y027985D02*
X046912D01*
X047467D02*
X047497D01*
X047737D02*
X048082D01*
X048367D02*
X048712D01*
X048817D02*
X049132D01*
X050467D02*
X050497D01*
X050767D02*
X050797D01*
X051352D02*
X051412D01*
X046837Y028D02*
X046897D01*
X047422D02*
X047437D01*
X047452D02*
X047482D01*
X047752D02*
X048082D01*
X048382D02*
X048697D01*
X048802D02*
X049147D01*
X050482D02*
X050527D01*
X050797D02*
X050827D01*
X051382D02*
X051442D01*
X046807Y028015D02*
X046867D01*
X047422D02*
X047452D01*
X047737D02*
X048082D01*
X048382D02*
X048697D01*
X048817D02*
X049132D01*
X050527D02*
X050557D01*
X050827D02*
X050857D01*
X051412D02*
X051457D01*
X046777Y02803D02*
X046837D01*
X047392D02*
X047422D01*
X047752D02*
X048097D01*
X048367D02*
X048712D01*
X048817D02*
X049132D01*
X050542D02*
X050602D01*
X050857D02*
X050887D01*
X051442D02*
X051472D01*
X046747Y028045D02*
X046807D01*
X047362D02*
X047392D01*
X047752D02*
X048082D01*
X048382D02*
X048697D01*
X048802D02*
X049147D01*
X050587D02*
X050617D01*
X050872D02*
X050917D01*
X051457D02*
X051502D01*
X046717Y02806D02*
X046777D01*
X047332D02*
X047377D01*
X047752D02*
X048082D01*
X048367D02*
X048712D01*
X048817D02*
X049132D01*
X050602D02*
X050647D01*
X050902D02*
X050932D01*
X050947D02*
X050962D01*
X051487D02*
X051547D01*
X046687Y028075D02*
X046747D01*
X047317D02*
X047347D01*
X047752D02*
X048082D01*
X048382D02*
X048697D01*
X048802D02*
X049132D01*
X050647D02*
X050677D01*
X050932D02*
X050977D01*
X051517D02*
X051547D01*
X046687Y02809D02*
X046717D01*
X047287D02*
X047317D01*
X047737D02*
X048097D01*
X048367D02*
X048712D01*
X048817D02*
X049147D01*
X050662D02*
X050707D01*
X050977D02*
X051007D01*
X051532D02*
X051547D01*
X046687Y028105D02*
X046702D01*
X047257D02*
X047287D01*
X047752D02*
X048082D01*
X048382D02*
X048697D01*
X048817D02*
X049132D01*
X050692D02*
X050737D01*
X051007D02*
X051037D01*
X051532D02*
X051562D01*
X046672Y02812D02*
X046702D01*
X047227D02*
X047272D01*
X047752D02*
X048082D01*
X048382D02*
X048697D01*
X048802D02*
X049147D01*
X050722D02*
X050752D01*
X051022D02*
X051067D01*
X051532D02*
X051547D01*
X046687Y028135D02*
X046702D01*
X047197D02*
X047242D01*
X047737D02*
X048097D01*
X048382D02*
X048697D01*
X048817D02*
X049132D01*
X050737D02*
X050782D01*
X051052D02*
X051082D01*
X051532D02*
X051547D01*
X046687Y02815D02*
X046702D01*
X047182D02*
X047212D01*
X047752D02*
X048082D01*
X048367D02*
X048712D01*
X048817D02*
X049132D01*
X050767D02*
X050812D01*
X051082D02*
X051112D01*
X051532D02*
X051547D01*
X046687Y028165D02*
X046702D01*
X047137D02*
X047182D01*
X047752D02*
X048082D01*
X048382D02*
X048697D01*
X048802D02*
X049147D01*
X050797D02*
X050827D01*
X051097D02*
X051142D01*
X051532D02*
X051547D01*
X046672Y02818D02*
X046702D01*
X047107D02*
X047152D01*
X047737D02*
X048097D01*
X048382D02*
X048697D01*
X048817D02*
X049132D01*
X050812D02*
X050857D01*
X051127D02*
X051172D01*
X051532D02*
X051562D01*
X046687Y028195D02*
X046717D01*
X047092D02*
X047122D01*
X047752D02*
X048082D01*
X048382D02*
X048712D01*
X048817D02*
X049132D01*
X050842D02*
X050887D01*
X051157D02*
X051202D01*
X051517D02*
X051547D01*
X046687Y02821D02*
X046702D01*
X047062D02*
X047107D01*
X047752D02*
X048097D01*
X048367D02*
X048697D01*
X048802D02*
X049147D01*
X050872D02*
X050917D01*
X051187D02*
X051217D01*
X051532D02*
X051547D01*
X046687Y028225D02*
X046702D01*
X047062D02*
X047077D01*
X047737D02*
X048082D01*
X048382D02*
X048697D01*
X048817D02*
X049132D01*
X050872D02*
X050902D01*
X051187D02*
X051232D01*
X051532D02*
X051547D01*
X046687Y02824D02*
X046702D01*
X047032D02*
X047077D01*
X047752D02*
X048082D01*
X048382D02*
X048712D01*
X048802D02*
X049132D01*
X050887D02*
X050917D01*
X050932D02*
X050947D01*
X051217D02*
X051247D01*
X051532D02*
X051547D01*
X046672Y028255D02*
X046702D01*
X047002D02*
X047047D01*
X047752D02*
X048082D01*
X048382D02*
X048697D01*
X048817D02*
X049147D01*
X050917D02*
X050977D01*
X051232D02*
X051277D01*
X051517D02*
X051562D01*
X046687Y02827D02*
X046717D01*
X046987D02*
X047017D01*
X047752D02*
X048097D01*
X048367D02*
X048712D01*
X048802D02*
X049132D01*
X050962D02*
X050992D01*
X051277D02*
X051307D01*
X051532D02*
X051547D01*
X046687Y028285D02*
X046702D01*
X046957D02*
X046987D01*
X047737D02*
X048082D01*
X048382D02*
X048697D01*
X048817D02*
X049132D01*
X050977D02*
X051022D01*
X051292D02*
X051322D01*
X051337D02*
X051352D01*
X051532D02*
X051562D01*
X046687Y0283D02*
X046702D01*
X046927D02*
X046957D01*
X047752D02*
X048082D01*
X048382D02*
X048697D01*
X048817D02*
X049147D01*
X051007D02*
X051037D01*
X051322D02*
X051367D01*
X051532D02*
X051547D01*
X046687Y028315D02*
X046702D01*
X046897D02*
X046942D01*
X047752D02*
X048097D01*
X048382D02*
X048697D01*
X048817D02*
X049132D01*
X051037D02*
X051082D01*
X051367D02*
X051397D01*
X051532D02*
X051547D01*
X046672Y02833D02*
X046702D01*
X046882D02*
X046912D01*
X047737D02*
X048082D01*
X048367D02*
X048712D01*
X048802D02*
X049147D01*
X051067D02*
X051097D01*
X051382D02*
X051427D01*
X051532D02*
X051562D01*
X046687Y028345D02*
X046717D01*
X046852D02*
X046882D01*
X047752D02*
X048097D01*
X048382D02*
X048697D01*
X048817D02*
X049132D01*
X051082D02*
X051127D01*
X051412D02*
X051457D01*
X051532D02*
X051547D01*
X046687Y02836D02*
X046702D01*
X046822D02*
X046852D01*
X047107D02*
X047182D01*
X047752D02*
X048082D01*
X048382D02*
X048697D01*
X048817D02*
X049132D01*
X051112D02*
X051157D01*
X051442D02*
X051472D01*
X051532D02*
X051547D01*
X046687Y028375D02*
X046702D01*
X046777D02*
X046792D01*
X046807D02*
X046837D01*
X047092D02*
X047212D01*
X047752D02*
X048082D01*
X048382D02*
X048697D01*
X048817D02*
X049132D01*
X051142D02*
X051187D01*
X051472D02*
X051502D01*
X051532D02*
X051547D01*
X046687Y02839D02*
X046717D01*
X046762D02*
X046807D01*
X047062D02*
X047152D01*
X047182D02*
X047242D01*
X047752D02*
X048097D01*
X048367D02*
X048712D01*
X048802D02*
X049147D01*
X051172D02*
X051202D01*
X051487D02*
X051547D01*
X046687Y028405D02*
X046702D01*
X046732D02*
X046762D01*
X047047D02*
X047167D01*
X047212D02*
X047272D01*
X047737D02*
X048082D01*
X048382D02*
X048697D01*
X048817D02*
X049132D01*
X051187D02*
X051232D01*
X051517D02*
X051547D01*
X046687Y02842D02*
X046747D01*
X047002D02*
X047152D01*
X047242D02*
X047287D01*
X047752D02*
X048082D01*
X048382D02*
X048697D01*
X048802D02*
X049132D01*
X051217D02*
X051262D01*
X051487D02*
X051532D01*
X046687Y028435D02*
X046717D01*
X046987D02*
X047167D01*
X047272D02*
X047317D01*
X047752D02*
X048082D01*
X048382D02*
X048712D01*
X048802D02*
X049147D01*
X051247D02*
X051292D01*
X051472D02*
X051517D01*
X046687Y02845D02*
X046732D01*
X046957D02*
X047152D01*
X047167D02*
X047182D01*
X047287D02*
X047347D01*
X047737D02*
X048097D01*
X048367D02*
X048697D01*
X048772D02*
X049132D01*
X051277D02*
X051307D01*
X051442D02*
X051487D01*
X046717Y028465D02*
X046777D01*
X046942D02*
X047152D01*
X047317D02*
X047377D01*
X047752D02*
X048082D01*
X048382D02*
X048697D01*
X048742D02*
X049132D01*
X051292D02*
X051337D01*
X051412D02*
X051457D01*
X046747Y02848D02*
X046807D01*
X046912D02*
X047167D01*
X047347D02*
X047392D01*
X047737D02*
X048097D01*
X048382D02*
X049147D01*
X051322D02*
X051382D01*
X051397D02*
X051442D01*
X046777Y028495D02*
X046837D01*
X046882D02*
X047152D01*
X047167D02*
X047182D01*
X047377D02*
X047422D01*
X047752D02*
X048082D01*
X048382D02*
X049132D01*
X051367D02*
X051412D01*
X046807Y02851D02*
X047152D01*
X047392D02*
X047452D01*
X047752D02*
X048097D01*
X048367D02*
X049147D01*
X051382D02*
X051442D01*
X046837Y028525D02*
X047167D01*
X047422D02*
X047482D01*
X047752D02*
X048082D01*
X048382D02*
X049132D01*
X051412D02*
X051472D01*
X046837Y02854D02*
X047167D01*
X047452D02*
X047497D01*
X047752D02*
X048082D01*
X048367D02*
X049132D01*
X051442D02*
X051487D01*
X046852Y028555D02*
X047152D01*
X047167D02*
X047182D01*
X047482D02*
X047527D01*
X047737D02*
X048082D01*
X048382D02*
X049132D01*
X051457D02*
X051517D01*
X046852Y02857D02*
X047152D01*
X047512D02*
X047572D01*
X047752D02*
X048097D01*
X048382D02*
X049147D01*
X051487D02*
X051532D01*
X046837Y028585D02*
X047167D01*
X047497D02*
X047572D01*
X047752D02*
X048082D01*
X048367D02*
X049132D01*
X051487D02*
X051547D01*
X046852Y0286D02*
X047152D01*
X047167D02*
X047182D01*
X047527D02*
X047602D01*
X047737D02*
X048097D01*
X048382D02*
X049147D01*
X051517D02*
X051547D01*
X046852Y028615D02*
X047152D01*
X047572D02*
X047617D01*
X047752D02*
X048082D01*
X048382D02*
X049132D01*
X051532D02*
X051547D01*
X046837Y02863D02*
X047167D01*
X047602D02*
X047647D01*
X047752D02*
X048082D01*
X048367D02*
X049132D01*
X051517D02*
X051547D01*
X046852Y028645D02*
X047152D01*
X047167D02*
X047182D01*
X047617D02*
X047677D01*
X047752D02*
X048097D01*
X048382D02*
X049147D01*
X051532D02*
X051547D01*
X046852Y02866D02*
X047152D01*
X047647D02*
X047707D01*
X047752D02*
X048082D01*
X048382D02*
X049132D01*
X051532D02*
X051547D01*
X046852Y028675D02*
X047167D01*
X047677D02*
X047737D01*
X047752D02*
X048082D01*
X048367D02*
X049132D01*
X051532D02*
X051562D01*
X046837Y02869D02*
X047152D01*
X047167D02*
X047182D01*
X047707D02*
X048097D01*
X048382D02*
X049147D01*
X051517D02*
X051547D01*
X046852Y028705D02*
X047152D01*
X047737D02*
X048082D01*
X048382D02*
X049132D01*
X051532D02*
X051547D01*
X046852Y02872D02*
X047167D01*
X047737D02*
X048097D01*
X048367D02*
X049132D01*
X051517D02*
X051547D01*
X046837Y028735D02*
X047152D01*
X047752D02*
X048082D01*
X048382D02*
X049147D01*
X051532D02*
X051562D01*
X046852Y02875D02*
X047167D01*
X047737D02*
X048082D01*
X048382D02*
X049132D01*
X051532D02*
X051547D01*
X046837Y028765D02*
X047152D01*
X047167D02*
X047182D01*
X047752D02*
X048097D01*
X048367D02*
X049132D01*
X051532D02*
X051547D01*
X046852Y02878D02*
X047152D01*
X047167D02*
X047182D01*
X047752D02*
X048082D01*
X048382D02*
X049147D01*
X051532D02*
X051547D01*
X046852Y028795D02*
X047152D01*
X047737D02*
X048082D01*
X048382D02*
X049132D01*
X051532D02*
X051562D01*
X046837Y02881D02*
X047167D01*
X047752D02*
X048097D01*
X048367D02*
X049132D01*
X051517D02*
X051547D01*
X046852Y028825D02*
X047167D01*
X047752D02*
X048082D01*
X048382D02*
X049147D01*
X051532D02*
X051547D01*
X046852Y02884D02*
X047152D01*
X047737D02*
X048082D01*
X048382D02*
X048802D01*
X048817D02*
X049132D01*
X051532D02*
X051547D01*
X046852Y028855D02*
X047167D01*
X047737D02*
X048097D01*
X048367D02*
X048772D01*
X048817D02*
X049132D01*
X051532D02*
X051547D01*
X046837Y02887D02*
X047152D01*
X047167D02*
X047182D01*
X047707D02*
X048082D01*
X048382D02*
X048742D01*
X048802D02*
X049147D01*
X051517D02*
X051547D01*
X046852Y028885D02*
X047152D01*
X047662D02*
X048097D01*
X048367D02*
X048712D01*
X048817D02*
X049132D01*
X051532D02*
X051547D01*
X046852Y0289D02*
X047167D01*
X047632D02*
X048097D01*
X048382D02*
X048727D01*
X048817D02*
X049132D01*
X051517D02*
X051562D01*
X046837Y028915D02*
X047152D01*
X047167D02*
X047182D01*
X047617D02*
X048082D01*
X048382D02*
X048697D01*
X048712D02*
X048742D01*
X048802D02*
X049132D01*
X051532D02*
X051547D01*
X046852Y02893D02*
X047152D01*
X047602D02*
X048082D01*
X048367D02*
X048712D01*
X048742D02*
X048772D01*
X048817D02*
X049147D01*
X051532D02*
X051547D01*
X046852Y028945D02*
X047167D01*
X047587D02*
X048097D01*
X048382D02*
X048697D01*
X048742D02*
X048772D01*
X048817D02*
X049132D01*
X051532D02*
X051547D01*
X046852Y02896D02*
X047152D01*
X047587D02*
X048082D01*
X048367D02*
X048712D01*
X048757D02*
X048802D01*
X048817D02*
X049147D01*
X051517D02*
X051547D01*
X046837Y028975D02*
X047182D01*
X047542D02*
X048082D01*
X048382D02*
X048697D01*
X048787D02*
X049132D01*
X051532D02*
X051562D01*
X046852Y02899D02*
X047152D01*
X047542D02*
X048097D01*
X048382D02*
X048697D01*
X048802D02*
X049132D01*
X051532D02*
X051547D01*
X046852Y029005D02*
X047167D01*
X047512D02*
X048082D01*
X048367D02*
X048712D01*
X048817D02*
X049132D01*
X051532D02*
X051547D01*
X046852Y02902D02*
X047152D01*
X047482D02*
X048097D01*
X048367D02*
X048697D01*
X048802D02*
X049147D01*
X051532D02*
X051547D01*
X046852Y029035D02*
X047152D01*
X047167D02*
X047182D01*
X047482D02*
X048082D01*
X048382D02*
X048712D01*
X048817D02*
X049132D01*
X051517D02*
X051562D01*
X046837Y02905D02*
X047167D01*
X047467D02*
X048082D01*
X048382D02*
X048697D01*
X048817D02*
X049147D01*
X051532D02*
X051547D01*
X046852Y029065D02*
X047152D01*
X047167D02*
X047182D01*
X047452D02*
X048097D01*
X048367D02*
X048697D01*
X048802D02*
X049132D01*
X051532D02*
X051547D01*
X046852Y02908D02*
X047152D01*
X047437D02*
X048082D01*
X048382D02*
X048697D01*
X048817D02*
X049132D01*
X051532D02*
X051547D01*
X046837Y029095D02*
X047167D01*
X047422D02*
X048082D01*
X048382D02*
X048712D01*
X048802D02*
X049132D01*
X051517D02*
X051547D01*
X046852Y02911D02*
X047152D01*
X047167D02*
X047182D01*
X047422D02*
X048097D01*
X048367D02*
X048697D01*
X048817D02*
X049147D01*
X051532D02*
X051562D01*
X046852Y029125D02*
X047152D01*
X047407D02*
X048082D01*
X048382D02*
X048712D01*
X048817D02*
X049132D01*
X051532D02*
X051547D01*
X046852Y02914D02*
X047167D01*
X047407D02*
X048082D01*
X048382D02*
X048697D01*
X048802D02*
X049147D01*
X051532D02*
X051547D01*
X046837Y029155D02*
X047152D01*
X047392D02*
X048082D01*
X048382D02*
X048697D01*
X048817D02*
X049132D01*
X051517D02*
X051547D01*
X046852Y02917D02*
X047167D01*
X047392D02*
X048097D01*
X048367D02*
X048712D01*
X048802D02*
X049132D01*
X051532D02*
X051547D01*
X046852Y029185D02*
X047152D01*
X047167D02*
X047182D01*
X047377D02*
X048082D01*
X048382D02*
X048697D01*
X048817D02*
X049147D01*
X051532D02*
X051547D01*
X046837Y0292D02*
X047152D01*
X047362D02*
X048097D01*
X048367D02*
X048697D01*
X048817D02*
X049132D01*
X051517D02*
X051547D01*
X046852Y029215D02*
X047182D01*
X047362D02*
X048082D01*
X048382D02*
X048697D01*
X048817D02*
X049132D01*
X051532D02*
X051562D01*
X046852Y02923D02*
X047152D01*
X047347D02*
X048097D01*
X048367D02*
X048712D01*
X048802D02*
X049147D01*
X051532D02*
X051547D01*
X046837Y029245D02*
X047167D01*
X047362D02*
X048082D01*
X048382D02*
X048697D01*
X048817D02*
X049132D01*
X051532D02*
X051547D01*
X046852Y02926D02*
X047152D01*
X047347D02*
X047737D01*
X047752D02*
X048082D01*
X048367D02*
X048697D01*
X048817D02*
X049132D01*
X051517D02*
X051547D01*
X046852Y029275D02*
X047167D01*
X047347D02*
X047707D01*
X047752D02*
X048082D01*
X048382D02*
X048697D01*
X048802D02*
X049147D01*
X051532D02*
X051547D01*
X046837Y02929D02*
X047152D01*
X047167D02*
X047182D01*
X047347D02*
X047677D01*
X047737D02*
X048097D01*
X048382D02*
X048712D01*
X048817D02*
X049132D01*
X051532D02*
X051562D01*
X046852Y029305D02*
X047152D01*
X047347D02*
X047677D01*
X047752D02*
X048082D01*
X048367D02*
X048697D01*
X048817D02*
X049132D01*
X051532D02*
X051547D01*
X046852Y02932D02*
X047167D01*
X047347D02*
X047677D01*
X047752D02*
X048082D01*
X048382D02*
X048712D01*
X048817D02*
X049132D01*
X051532D02*
X051547D01*
X046852Y029335D02*
X047152D01*
X047167D02*
X047182D01*
X047332D02*
X047662D01*
X047737D02*
X048082D01*
X048382D02*
X048697D01*
X048817D02*
X049147D01*
X051517D02*
X051547D01*
X046837Y02935D02*
X047152D01*
X047332D02*
X047662D01*
X047752D02*
X048097D01*
X048367D02*
X048697D01*
X048802D02*
X049132D01*
X051532D02*
X051547D01*
X046852Y029365D02*
X047167D01*
X047332D02*
X047662D01*
X047752D02*
X048082D01*
X048382D02*
X048712D01*
X048817D02*
X049132D01*
X051532D02*
X051547D01*
X046852Y02938D02*
X047152D01*
X047317D02*
X047662D01*
X047752D02*
X048082D01*
X048382D02*
X048697D01*
X048802D02*
X049132D01*
X051532D02*
X051562D01*
X046852Y029395D02*
X047167D01*
X047332D02*
X047647D01*
X047737D02*
X048082D01*
X048382D02*
X048712D01*
X048817D02*
X049147D01*
X051517D02*
X051547D01*
X046837Y02941D02*
X047152D01*
X047167D02*
X047182D01*
X047317D02*
X047662D01*
X047752D02*
X048097D01*
X048367D02*
X048697D01*
X048817D02*
X049132D01*
X051532D02*
X051547D01*
X046852Y029425D02*
X047152D01*
X047332D02*
X047647D01*
X047752D02*
X048082D01*
X048382D02*
X048697D01*
X048802D02*
X049132D01*
X051532D02*
X051562D01*
X046852Y02944D02*
X047167D01*
X047332D02*
X047662D01*
X047737D02*
X048082D01*
X048367D02*
X048712D01*
X048817D02*
X049147D01*
X051532D02*
X051547D01*
X046852Y029455D02*
X047152D01*
X047167D02*
X047182D01*
X047317D02*
X047647D01*
X047752D02*
X048082D01*
X048382D02*
X048697D01*
X048817D02*
X049132D01*
X051532D02*
X051562D01*
X046852Y02947D02*
X047152D01*
X047332D02*
X047662D01*
X047752D02*
X048097D01*
X048382D02*
X048697D01*
X048802D02*
X049132D01*
X051532D02*
X051547D01*
X046837Y029485D02*
X047167D01*
X047332D02*
X047647D01*
X047737D02*
X048082D01*
X048367D02*
X048712D01*
X048817D02*
X049147D01*
X051532D02*
X051547D01*
X046852Y0295D02*
X047152D01*
X047317D02*
X047662D01*
X047752D02*
X048082D01*
X048382D02*
X048697D01*
X048817D02*
X049162D01*
X051517D02*
X051547D01*
X046837Y029515D02*
X047167D01*
X047332D02*
X047647D01*
X047737D02*
X048097D01*
X048382D02*
X048697D01*
X048802D02*
X049102D01*
X049162D02*
X049192D01*
X051532D02*
X051547D01*
X046852Y02953D02*
X047152D01*
X047167D02*
X047182D01*
X047332D02*
X047662D01*
X047752D02*
X048082D01*
X048382D02*
X048712D01*
X048817D02*
X049072D01*
X049192D02*
X049222D01*
X051532D02*
X051562D01*
X046852Y029545D02*
X047152D01*
X047317D02*
X047647D01*
X047752D02*
X048082D01*
X048367D02*
X048697D01*
X048817D02*
X049027D01*
X049207D02*
X049252D01*
X051532D02*
X051547D01*
X046852Y02956D02*
X047167D01*
X047332D02*
X047662D01*
X047737D02*
X048082D01*
X048382D02*
X048697D01*
X048817D02*
X049012D01*
X049237D02*
X049282D01*
X051532D02*
X051547D01*
X046852Y029575D02*
X047152D01*
X047317D02*
X047647D01*
X047752D02*
X048082D01*
X048382D02*
X048712D01*
X048802D02*
X048982D01*
X049267D02*
X049297D01*
X051532D02*
X051547D01*
X046837Y02959D02*
X047167D01*
X047332D02*
X047662D01*
X047752D02*
X048097D01*
X048367D02*
X048697D01*
X048817D02*
X048967D01*
X049297D02*
X049327D01*
X051532D02*
X051562D01*
X046852Y029605D02*
X047152D01*
X047167D02*
X047182D01*
X047332D02*
X047647D01*
X047737D02*
X048082D01*
X048382D02*
X048697D01*
X048817D02*
X048922D01*
X049312D02*
X049357D01*
X051517D02*
X051547D01*
X046852Y02962D02*
X047152D01*
X047317D02*
X047662D01*
X047752D02*
X048082D01*
X048382D02*
X048697D01*
X048802D02*
X048907D01*
X049342D02*
X049387D01*
X051532D02*
X051562D01*
X046852Y029635D02*
X047152D01*
X047167D02*
X047182D01*
X047332D02*
X047647D01*
X047752D02*
X048097D01*
X048367D02*
X048697D01*
X048817D02*
X048877D01*
X049372D02*
X049402D01*
X051532D02*
X051547D01*
X046837Y02965D02*
X047167D01*
X047317D02*
X047662D01*
X047737D02*
X048082D01*
X048382D02*
X048712D01*
X048817D02*
X048847D01*
X049387D02*
X049432D01*
X051532D02*
X051547D01*
X046852Y029665D02*
X047152D01*
X047167D02*
X047182D01*
X047332D02*
X047647D01*
X047752D02*
X048082D01*
X048382D02*
X048697D01*
X048832D02*
X048877D01*
X049417D02*
X049462D01*
X051532D02*
X051547D01*
X046852Y02968D02*
X047152D01*
X047332D02*
X047647D01*
X047752D02*
X048082D01*
X048382D02*
X048712D01*
X048832D02*
X048862D01*
X049417D02*
X049477D01*
X051532D02*
X051562D01*
X046837Y029695D02*
X047167D01*
X047332D02*
X047662D01*
X047752D02*
X048097D01*
X048382D02*
X048697D01*
X048847D02*
X048892D01*
X049462D02*
X049492D01*
X051517D02*
X051547D01*
X046852Y02971D02*
X047152D01*
X047167D02*
X047182D01*
X047317D02*
X047647D01*
X047737D02*
X048082D01*
X048367D02*
X048697D01*
X048877D02*
X048922D01*
X049477D02*
X049522D01*
X051532D02*
X051547D01*
X046852Y029725D02*
X047152D01*
X047332D02*
X047662D01*
X047752D02*
X048082D01*
X048382D02*
X048697D01*
X048907D02*
X048952D01*
X049507D02*
X049552D01*
X051532D02*
X051562D01*
X046852Y02974D02*
X047167D01*
X047332D02*
X047647D01*
X047752D02*
X048082D01*
X048382D02*
X048712D01*
X048937D02*
X048982D01*
X049537D02*
X049582D01*
X051532D02*
X051547D01*
X046837Y029755D02*
X047152D01*
X047332D02*
X047662D01*
X047737D02*
X048097D01*
X048367D02*
X048742D01*
X048952D02*
X048997D01*
X049567D02*
X049597D01*
X051532D02*
X051547D01*
X046852Y02977D02*
X047167D01*
X047317D02*
X047647D01*
X047752D02*
X048082D01*
X048382D02*
X048652D01*
X048712D02*
X048772D01*
X048982D02*
X049027D01*
X049597D02*
X049627D01*
X051532D02*
X051562D01*
X046852Y029785D02*
X047152D01*
X047167D02*
X047182D01*
X047332D02*
X047662D01*
X047737D02*
X048082D01*
X048382D02*
X048622D01*
X048742D02*
X048787D01*
X048997D02*
X049072D01*
X049612D02*
X049657D01*
X051532D02*
X051547D01*
X046852Y0298D02*
X047152D01*
X047332D02*
X047662D01*
X047752D02*
X048082D01*
X048382D02*
X048607D01*
X048772D02*
X048817D01*
X049027D02*
X049102D01*
X049642D02*
X049687D01*
X051532D02*
X051547D01*
X046837Y029815D02*
X047167D01*
X047332D02*
X047647D01*
X047752D02*
X048097D01*
X048367D02*
X048577D01*
X048787D02*
X048847D01*
X049072D02*
X049132D01*
X049672D02*
X049702D01*
X051517D02*
X051547D01*
X046852Y02983D02*
X047152D01*
X047167D02*
X047182D01*
X047317D02*
X047647D01*
X047737D02*
X048082D01*
X048382D02*
X048562D01*
X048817D02*
X048877D01*
X049102D02*
X049147D01*
X049702D02*
X049732D01*
X051532D02*
X051547D01*
X046852Y029845D02*
X047152D01*
X047332D02*
X047662D01*
X047752D02*
X048082D01*
X048382D02*
X048532D01*
X048847D02*
X048892D01*
X049132D02*
X049177D01*
X049717D02*
X049762D01*
X051532D02*
X051547D01*
X046852Y02986D02*
X047167D01*
X047332D02*
X047647D01*
X047737D02*
X048082D01*
X048382D02*
X048502D01*
X048877D02*
X048907D01*
X049162D02*
X049207D01*
X049747D02*
X049792D01*
X051517D02*
X051547D01*
X046852Y029875D02*
X047152D01*
X047167D02*
X047182D01*
X047332D02*
X047647D01*
X047752D02*
X048097D01*
X048382D02*
X048487D01*
X048892D02*
X048952D01*
X049177D02*
X049222D01*
X049777D02*
X049822D01*
X051532D02*
X051547D01*
X046837Y02989D02*
X047152D01*
X047317D02*
X047662D01*
X047737D02*
X048082D01*
X048367D02*
X048457D01*
X048922D02*
X048967D01*
X049207D02*
X049252D01*
X049807D02*
X049852D01*
X051532D02*
X051562D01*
X046852Y029905D02*
X047167D01*
X047332D02*
X047647D01*
X047752D02*
X048082D01*
X048382D02*
X048442D01*
X048952D02*
X048982D01*
X049222D02*
X049267D01*
X049837D02*
X049882D01*
X051532D02*
X051547D01*
X046852Y02992D02*
X047152D01*
X047317D02*
X047662D01*
X047737D02*
X048097D01*
X048382D02*
X048412D01*
X048967D02*
X049012D01*
X049252D02*
X049297D01*
X049867D02*
X049912D01*
X051532D02*
X051547D01*
X046837Y029935D02*
X047167D01*
X047332D02*
X047647D01*
X047707D02*
X048082D01*
X048397D02*
X048442D01*
X048997D02*
X049042D01*
X049057D02*
X049072D01*
X049282D02*
X049327D01*
X049897D02*
X049927D01*
X051517D02*
X051547D01*
X046852Y02995D02*
X047152D01*
X047332D02*
X048082D01*
X048412D02*
X048457D01*
X049027D02*
X049087D01*
X049312D02*
X049357D01*
X049927D02*
X049957D01*
X051532D02*
X051547D01*
X046852Y029965D02*
X047167D01*
X047317D02*
X048097D01*
X048442D02*
X048502D01*
X049057D02*
X049117D01*
X049327D02*
X049372D01*
X049942D02*
X049972D01*
X051532D02*
X051547D01*
X046852Y02998D02*
X047167D01*
X047332D02*
X048082D01*
X048472D02*
X048517D01*
X049087D02*
X049132D01*
X049357D02*
X049402D01*
X049957D02*
X050017D01*
X051532D02*
X051562D01*
X046837Y029995D02*
X047152D01*
X047167D02*
X047182D01*
X047332D02*
X048082D01*
X048502D02*
X048547D01*
X049117D02*
X049162D01*
X049387D02*
X049432D01*
X050002D02*
X050032D01*
X051517D02*
X051547D01*
X046852Y03001D02*
X047152D01*
X047317D02*
X048097D01*
X048517D02*
X048562D01*
X049147D02*
X049192D01*
X049402D02*
X049477D01*
X050017D02*
X050062D01*
X051532D02*
X051547D01*
X046852Y030025D02*
X047152D01*
X047167D02*
X047182D01*
X047332D02*
X048082D01*
X048547D02*
X048592D01*
X049162D02*
X049222D01*
X049432D02*
X049447D01*
X049462D02*
X049492D01*
X050047D02*
X050077D01*
X051532D02*
X051547D01*
X046852Y03004D02*
X047152D01*
X047167D02*
X047182D01*
X047332D02*
X048082D01*
X048547D02*
X048592D01*
X049177D02*
X049222D01*
X049432D02*
X049492D01*
X050047D02*
X050092D01*
X051532D02*
X051547D01*
X046852Y030055D02*
X047152D01*
X047332D02*
X048082D01*
X048577D02*
X048622D01*
X049192D02*
X049237D01*
X049477D02*
X049522D01*
X050077D02*
X050107D01*
X051517D02*
X051547D01*
X046837Y03007D02*
X047167D01*
X047317D02*
X048082D01*
X048607D02*
X048652D01*
X049222D02*
X049267D01*
X049507D02*
X049552D01*
X050107D02*
X050152D01*
X051532D02*
X051547D01*
X046852Y030085D02*
X047152D01*
X047167D02*
X047182D01*
X047332D02*
X048082D01*
X048622D02*
X048682D01*
X049237D02*
X049282D01*
X049522D02*
X049567D01*
X050137D02*
X050167D01*
X051532D02*
X051547D01*
X046852Y0301D02*
X047152D01*
X047332D02*
X048097D01*
X048652D02*
X048712D01*
X049267D02*
X049327D01*
X049552D02*
X049597D01*
X050152D02*
X050182D01*
X050197D02*
X050212D01*
X051517D02*
X051547D01*
X046852Y030115D02*
X047167D01*
X047332D02*
X048127D01*
X048697D02*
X048727D01*
X049297D02*
X049342D01*
X049582D02*
X049627D01*
X050182D02*
X050227D01*
X051532D02*
X051562D01*
X046837Y03013D02*
X047152D01*
X047167D02*
X047182D01*
X047317D02*
X048052D01*
X048097D02*
X048157D01*
X048712D02*
X048772D01*
X049327D02*
X049372D01*
X049612D02*
X049657D01*
X050227D02*
X050272D01*
X051532D02*
X051547D01*
X046852Y030145D02*
X047152D01*
X047332D02*
X048022D01*
X048127D02*
X048187D01*
X048742D02*
X048802D01*
X049342D02*
X049402D01*
X049627D02*
X049672D01*
X050257D02*
X050287D01*
X051532D02*
X051547D01*
X046852Y03016D02*
X047167D01*
X047332D02*
X048007D01*
X048157D02*
X048202D01*
X048772D02*
X048817D01*
X049372D02*
X049432D01*
X049657D02*
X049702D01*
X050272D02*
X050317D01*
X051532D02*
X051547D01*
X046852Y030175D02*
X047152D01*
X047302D02*
X047977D01*
X048187D02*
X048232D01*
X048802D02*
X048847D01*
X049402D02*
X049462D01*
X049687D02*
X049717D01*
X050302D02*
X050332D01*
X051517D02*
X051562D01*
X046837Y03019D02*
X047152D01*
X047167D02*
X047182D01*
X047272D02*
X047947D01*
X048202D02*
X048262D01*
X048832D02*
X048862D01*
X049432D02*
X049492D01*
X049702D02*
X049762D01*
X050332D02*
X050362D01*
X051532D02*
X051547D01*
X046852Y030205D02*
X047152D01*
X047242D02*
X047917D01*
X048232D02*
X048277D01*
X048847D02*
X048892D01*
X049462D02*
X049522D01*
X049732D02*
X049777D01*
X050347D02*
X050392D01*
X051532D02*
X051547D01*
X046852Y03022D02*
X047167D01*
X047212D02*
X047887D01*
X048262D02*
X048322D01*
X048877D02*
X048922D01*
X049492D02*
X049552D01*
X049762D02*
X049807D01*
X050377D02*
X050407D01*
X050422D02*
X050437D01*
X051532D02*
X051547D01*
X046852Y030235D02*
X047152D01*
X047182D02*
X047857D01*
X048277D02*
X048352D01*
X048907D02*
X048937D01*
X049522D02*
X049567D01*
X049792D02*
X049852D01*
X050407D02*
X050422D01*
X051517D02*
X051547D01*
X046837Y03025D02*
X047827D01*
X048322D02*
X048367D01*
X048922D02*
X048982D01*
X049552D02*
X049597D01*
X049807D02*
X049822D01*
X049837D02*
X049867D01*
X050422D02*
X050467D01*
X051532D02*
X051547D01*
X046852Y030265D02*
X047812D01*
X048352D02*
X048397D01*
X048952D02*
X048997D01*
X049567D02*
X049612D01*
X049852D02*
X049897D01*
X050452D02*
X050497D01*
X051532D02*
X051547D01*
X046852Y03028D02*
X047782D01*
X048367D02*
X048427D01*
X048982D02*
X049027D01*
X049597D02*
X049642D01*
X049882D02*
X049912D01*
X050482D02*
X050527D01*
X051517D02*
X051547D01*
X046837Y030295D02*
X047767D01*
X048397D02*
X048457D01*
X049012D02*
X049042D01*
X049057D02*
X049072D01*
X049627D02*
X049672D01*
X049897D02*
X049942D01*
X050512D02*
X050542D01*
X051532D02*
X051562D01*
X046852Y03031D02*
X047737D01*
X048427D02*
X048487D01*
X049027D02*
X049087D01*
X049642D02*
X049687D01*
X049927D02*
X049987D01*
X050542D02*
X050587D01*
X051532D02*
X051547D01*
X046852Y030325D02*
X047707D01*
X048457D02*
X048502D01*
X049072D02*
X049117D01*
X049672D02*
X049717D01*
X049957D02*
X050002D01*
X050557D02*
X050572D01*
X050587D02*
X050617D01*
X051532D02*
X051547D01*
X046852Y03034D02*
X047677D01*
X048487D02*
X048532D01*
X049102D02*
X049132D01*
X049702D02*
X049747D01*
X049987D02*
X050032D01*
X050602D02*
X050632D01*
X051532D02*
X051562D01*
X046852Y030355D02*
X047662D01*
X048502D02*
X048562D01*
X049117D02*
X049177D01*
X049732D02*
X049777D01*
X050002D02*
X050062D01*
X050632D02*
X050662D01*
X051532D02*
X051547D01*
X046837Y03037D02*
X047632D01*
X048532D02*
X048592D01*
X049147D02*
X049192D01*
X049747D02*
X049807D01*
X050032D02*
X050077D01*
X050647D02*
X050692D01*
X051532D02*
X051547D01*
X046852Y030385D02*
X047332D01*
X047362D02*
X047617D01*
X048562D02*
X048592D01*
X049177D02*
X049222D01*
X049777D02*
X049837D01*
X050062D02*
X050107D01*
X050677D02*
X050722D01*
X051517D02*
X051547D01*
X046837Y0304D02*
X047347D01*
X047362D02*
X047587D01*
X048577D02*
X048622D01*
X049192D02*
X049237D01*
X049807D02*
X049867D01*
X050077D02*
X050137D01*
X050707D02*
X050737D01*
X051532D02*
X051547D01*
X046852Y030415D02*
X047332D01*
X047362D02*
X047572D01*
X048592D02*
X048637D01*
X049207D02*
X049252D01*
X049807D02*
X049867D01*
X050092D02*
X050122D01*
X050707D02*
X050752D01*
X051532D02*
X051562D01*
X046852Y03043D02*
X047332D01*
X047377D02*
X047542D01*
X048607D02*
X048667D01*
X049222D02*
X049267D01*
X049837D02*
X049897D01*
X050107D02*
X050152D01*
X050737D02*
X050782D01*
X051532D02*
X051547D01*
X046837Y030445D02*
X047332D01*
X047422D02*
X047512D01*
X048637D02*
X048712D01*
X049252D02*
X049297D01*
X049867D02*
X049912D01*
X050137D02*
X050182D01*
X050767D02*
X050797D01*
X051532D02*
X051547D01*
X046807Y03046D02*
X047332D01*
X047452D02*
X047512D01*
X048667D02*
X048727D01*
X049282D02*
X049327D01*
X049897D02*
X049942D01*
X050167D02*
X050227D01*
X050782D02*
X050827D01*
X051532D02*
X051547D01*
X046762Y030475D02*
X047347D01*
X047482D02*
X047527D01*
X048712D02*
X048757D01*
X049312D02*
X049327D01*
X049342D02*
X049357D01*
X049912D02*
X049972D01*
X050182D02*
X050197D01*
X050212D02*
X050257D01*
X050812D02*
X050842D01*
X051517D02*
X051547D01*
X046747Y03049D02*
X047332D01*
X047512D02*
X047572D01*
X048727D02*
X048787D01*
X049327D02*
X049387D01*
X049957D02*
X050002D01*
X050227D02*
X050272D01*
X050842D02*
X050872D01*
X051532D02*
X051547D01*
X046717Y030505D02*
X047332D01*
X047542D02*
X047587D01*
X048757D02*
X048817D01*
X049357D02*
X049402D01*
X049972D02*
X050032D01*
X050257D02*
X050302D01*
X050857D02*
X050902D01*
X051532D02*
X051547D01*
X046687Y03052D02*
X047332D01*
X047572D02*
X047617D01*
X048787D02*
X048832D01*
X049387D02*
X049417D01*
X050002D02*
X050047D01*
X050287D02*
X050317D01*
X050887D02*
X050932D01*
X051532D02*
X051562D01*
X046672Y030535D02*
X047347D01*
X047602D02*
X047647D01*
X048817D02*
X048862D01*
X049402D02*
X049477D01*
X050032D02*
X050077D01*
X050302D02*
X050362D01*
X050917D02*
X050962D01*
X051517D02*
X051547D01*
X046687Y03055D02*
X047362D01*
X047632D02*
X047677D01*
X048832D02*
X048892D01*
X049432D02*
X049492D01*
X050047D02*
X050107D01*
X050332D02*
X050377D01*
X050932D02*
X050947D01*
X050962D02*
X050992D01*
X051532D02*
X051547D01*
X046687Y030565D02*
X047302D01*
X047347D02*
X047407D01*
X047647D02*
X047692D01*
X048862D02*
X048922D01*
X049477D02*
X049522D01*
X050077D02*
X050137D01*
X050362D02*
X050407D01*
X050977D02*
X051022D01*
X051532D02*
X051547D01*
X046687Y03058D02*
X047272D01*
X047377D02*
X047422D01*
X047677D02*
X047722D01*
X048892D02*
X048937D01*
X049507D02*
X049552D01*
X050107D02*
X050152D01*
X050377D02*
X050437D01*
X051007D02*
X051052D01*
X051517D02*
X051562D01*
X046672Y030595D02*
X047242D01*
X047407D02*
X047452D01*
X047707D02*
X047752D01*
X048922D02*
X048967D01*
X049522D02*
X049582D01*
X050137D02*
X050182D01*
X050407D02*
X050467D01*
X051037D02*
X051067D01*
X051532D02*
X051547D01*
X046687Y03061D02*
X047227D01*
X047422D02*
X047467D01*
X047737D02*
X047767D01*
X048937D02*
X048997D01*
X049552D02*
X049597D01*
X050152D02*
X050227D01*
X050437D02*
X050482D01*
X051067D02*
X051112D01*
X051532D02*
X051547D01*
X046687Y030625D02*
X047197D01*
X047452D02*
X047512D01*
X047752D02*
X047812D01*
X048967D02*
X049012D01*
X049582D02*
X049627D01*
X050182D02*
X050227D01*
X050242D02*
X050257D01*
X050467D02*
X050512D01*
X051097D02*
X051127D01*
X051532D02*
X051562D01*
X046687Y03064D02*
X047152D01*
X047482D02*
X047527D01*
X047782D02*
X047842D01*
X048997D02*
X049042D01*
X049597D02*
X049642D01*
X050212D02*
X050272D01*
X050497D02*
X050527D01*
X051112D02*
X051157D01*
X051532D02*
X051547D01*
X046672Y030655D02*
X047122D01*
X047512D02*
X047572D01*
X047812D02*
X047857D01*
X049012D02*
X049087D01*
X049627D02*
X049687D01*
X050257D02*
X050302D01*
X050512D02*
X050557D01*
X051142D02*
X051172D01*
X051532D02*
X051547D01*
X046687Y03067D02*
X047107D01*
X047527D02*
X047602D01*
X047842D02*
X047872D01*
X049057D02*
X049102D01*
X049657D02*
X049702D01*
X050272D02*
X050317D01*
X050542D02*
X050602D01*
X051172D02*
X051202D01*
X051532D02*
X051547D01*
X046687Y030685D02*
X047077D01*
X047572D02*
X047617D01*
X047857D02*
X047902D01*
X049087D02*
X049132D01*
X049687D02*
X049717D01*
X050302D02*
X050347D01*
X050572D02*
X050632D01*
X051187D02*
X051232D01*
X051532D02*
X051547D01*
X046687Y0307D02*
X047047D01*
X047602D02*
X047647D01*
X047887D02*
X047947D01*
X049117D02*
X049162D01*
X049702D02*
X049747D01*
X050332D02*
X050362D01*
X050602D02*
X050662D01*
X051217D02*
X051262D01*
X051517D02*
X051562D01*
X046687Y030715D02*
X047032D01*
X047632D02*
X047677D01*
X047917D02*
X047977D01*
X049132D02*
X049192D01*
X049732D02*
X049777D01*
X050347D02*
X050392D01*
X050632D02*
X050677D01*
X051247D02*
X051277D01*
X051532D02*
X051547D01*
X046672Y03073D02*
X047002D01*
X047647D02*
X047707D01*
X047947D02*
X047992D01*
X049162D02*
X049222D01*
X049762D02*
X049807D01*
X050377D02*
X050422D01*
X050662D02*
X050707D01*
X051277D02*
X051307D01*
X051532D02*
X051547D01*
X046687Y030745D02*
X046972D01*
X047677D02*
X047722D01*
X047977D02*
X048022D01*
X049192D02*
X049237D01*
X049777D02*
X049837D01*
X050407D02*
X050452D01*
X050692D02*
X050722D01*
X051292D02*
X051352D01*
X051532D02*
X051562D01*
X046672Y03076D02*
X046942D01*
X047707D02*
X047752D01*
X048007D02*
X048052D01*
X049222D02*
X049252D01*
X049807D02*
X049867D01*
X050422D02*
X050482D01*
X050707D02*
X050767D01*
X051322D02*
X051337D01*
X051352D02*
X051382D01*
X051532D02*
X051547D01*
X046687Y030775D02*
X046942D01*
X047707D02*
X047752D01*
X048007D02*
X048052D01*
X049222D02*
X049267D01*
X049822D02*
X049882D01*
X050437D02*
X050482D01*
X050707D02*
X050752D01*
X051322D02*
X051367D01*
X051532D02*
X051547D01*
X046687Y03079D02*
X046912D01*
X047722D02*
X047782D01*
X048037D02*
X048067D01*
X049237D02*
X049297D01*
X049852D02*
X049897D01*
X050467D02*
X050512D01*
X050737D02*
X050782D01*
X051367D02*
X051397D01*
X051532D02*
X051547D01*
X046672Y030805D02*
X046897D01*
X047752D02*
X047812D01*
X048052D02*
X048097D01*
X049267D02*
X049312D01*
X049882D02*
X049912D01*
X050482D02*
X050527D01*
X050767D02*
X050812D01*
X051382D02*
X051427D01*
X051532D02*
X051547D01*
X046687Y03082D02*
X046867D01*
X047782D02*
X047842D01*
X048082D02*
X048127D01*
X049297D02*
X049342D01*
X049897D02*
X049942D01*
X050512D02*
X050542D01*
X050782D02*
X050827D01*
X051412D02*
X051457D01*
X051532D02*
X051562D01*
X046687Y030835D02*
X046837D01*
X047812D02*
X047857D01*
X048112D02*
X048127D01*
X048142D02*
X048157D01*
X049312D02*
X049372D01*
X049927D02*
X049987D01*
X050527D02*
X050587D01*
X050812D02*
X050857D01*
X051442D02*
X051472D01*
X051517D02*
X051547D01*
X046672Y03085D02*
X046822D01*
X047842D02*
X047887D01*
X048127D02*
X048172D01*
X049357D02*
X049402D01*
X049957D02*
X050002D01*
X050557D02*
X050632D01*
X050842D02*
X050887D01*
X051472D02*
X051517D01*
X051532D02*
X051547D01*
X046687Y030865D02*
X046777D01*
X047857D02*
X047917D01*
X048157D02*
X048202D01*
X049372D02*
X049432D01*
X049987D02*
X050017D01*
X050602D02*
X050647D01*
X050857D02*
X050917D01*
X051502D02*
X051547D01*
X046687Y03088D02*
X046747D01*
X047887D02*
X047962D01*
X048187D02*
X048232D01*
X049402D02*
X049462D01*
X050002D02*
X050047D01*
X050632D02*
X050662D01*
X050887D02*
X050947D01*
X051517D02*
X051547D01*
X046687Y030895D02*
X046732D01*
X047917D02*
X047977D01*
X048217D02*
X048262D01*
X049432D02*
X049492D01*
X050032D02*
X050077D01*
X050647D02*
X050707D01*
X050917D02*
X050977D01*
X051502D02*
X051532D01*
X046702Y03091D02*
X046732D01*
X047962D02*
X048007D01*
X048247D02*
X048277D01*
X049462D02*
X049507D01*
X050062D02*
X050107D01*
X050677D02*
X050722D01*
X050947D02*
X051007D01*
X051472D02*
X051517D01*
X046717Y030925D02*
X046762D01*
X047977D02*
X048037D01*
X048262D02*
X048322D01*
X049492D02*
X049537D01*
X050092D02*
X050137D01*
X050707D02*
X050752D01*
X050977D02*
X051037D01*
X051442D02*
X051487D01*
X046747Y03094D02*
X046807D01*
X048007D02*
X048052D01*
X048292D02*
X048352D01*
X049507D02*
X049567D01*
X050107D02*
X050152D01*
X050722D02*
X050767D01*
X051007D02*
X051052D01*
X051427D02*
X051472D01*
X046777Y030955D02*
X046837D01*
X048037D02*
X048082D01*
X048337D02*
X048382D01*
X049552D02*
X049597D01*
X050137D02*
X050182D01*
X050752D02*
X050797D01*
X051037D02*
X051082D01*
X051397D02*
X051442D01*
X046807Y03097D02*
X046852D01*
X048052D02*
X048112D01*
X048352D02*
X048412D01*
X049567D02*
X049627D01*
X050167D02*
X050227D01*
X050782D02*
X050827D01*
X051067D02*
X051112D01*
X051382D02*
X051427D01*
X046837Y030985D02*
X046897D01*
X048082D02*
X048142D01*
X048382D02*
X048427D01*
X049597D02*
X049642D01*
X050197D02*
X050257D01*
X050812D02*
X050857D01*
X051082D02*
X051142D01*
X051322D02*
X051337D01*
X051352D02*
X051397D01*
X046867Y031D02*
X046912D01*
X048112D02*
X048172D01*
X048397D02*
X048457D01*
X049627D02*
X049672D01*
X050227D02*
X050287D01*
X050842D02*
X050872D01*
X051097D02*
X051157D01*
X051322D02*
X051367D01*
X046897Y031015D02*
X046942D01*
X048142D02*
X048187D01*
X048442D02*
X048487D01*
X049657D02*
X049702D01*
X050257D02*
X050317D01*
X050857D02*
X050902D01*
X051097D02*
X051112D01*
X051142D02*
X051187D01*
X051292D02*
X051352D01*
X046912Y03103D02*
X046957D01*
X048172D02*
X048217D01*
X048457D02*
X048502D01*
X049672D02*
X049732D01*
X050287D02*
X050317D01*
X050887D02*
X050932D01*
X051097D02*
X051112D01*
X051157D02*
X051202D01*
X051277D02*
X051307D01*
X046942Y031045D02*
X046987D01*
X048187D02*
X048247D01*
X048487D02*
X048532D01*
X049702D02*
X049762D01*
X050302D02*
X050362D01*
X050917D02*
X050977D01*
X051097D02*
X051112D01*
X051187D02*
X051292D01*
X046972Y03106D02*
X047017D01*
X048217D02*
X048262D01*
X048517D02*
X048547D01*
X049732D02*
X049777D01*
X050332D02*
X050377D01*
X050932D02*
X050947D01*
X050962D02*
X051007D01*
X051097D02*
X051112D01*
X051217D02*
X051262D01*
X046987Y031075D02*
X047047D01*
X048247D02*
X048292D01*
X048532D02*
X048592D01*
X049762D02*
X049807D01*
X050362D02*
X050407D01*
X050977D02*
X051022D01*
X051097D02*
X051112D01*
X047017Y03109D02*
X047062D01*
X048277D02*
X048322D01*
X048562D02*
X048607D01*
X049777D02*
X049852D01*
X050392D02*
X050437D01*
X051007D02*
X051052D01*
X051097D02*
X051112D01*
X047047Y031105D02*
X047092D01*
X048292D02*
X048352D01*
X048592D02*
X048637D01*
X049807D02*
X049867D01*
X050407D02*
X050452D01*
X051037D02*
X051067D01*
X051097D02*
X051112D01*
X047062Y03112D02*
X047107D01*
X048337D02*
X048382D01*
X048622D02*
X048652D01*
X049852D02*
X049897D01*
X050437D02*
X050482D01*
X051052D02*
X051112D01*
X047077Y031135D02*
X047122D01*
X048337D02*
X048382D01*
X048622D02*
X048667D01*
X049852D02*
X049897D01*
X050437D02*
X050497D01*
X051052D02*
X051127D01*
X047092Y03115D02*
X047152D01*
X048367D02*
X048412D01*
X048637D02*
X048697D01*
X049867D02*
X049927D01*
X050467D02*
X050512D01*
X051082D02*
X051112D01*
X047122Y031165D02*
X047182D01*
X048382D02*
X048442D01*
X048667D02*
X048727D01*
X049897D02*
X049957D01*
X050482D02*
X050527D01*
X051052D02*
X051097D01*
X047152Y03118D02*
X047212D01*
X048412D02*
X048457D01*
X048712D02*
X048757D01*
X049927D02*
X049972D01*
X050482D02*
X050497D01*
X050512D02*
X050557D01*
X050572D02*
X050587D01*
X051022D02*
X051067D01*
X047197Y031195D02*
X047242D01*
X048442D02*
X048487D01*
X048727D02*
X048772D01*
X049957D02*
X050002D01*
X050482D02*
X050512D01*
X050542D02*
X050602D01*
X050992D02*
X051052D01*
X047212Y03121D02*
X047257D01*
X048472D02*
X048517D01*
X048757D02*
X048817D01*
X049972D02*
X050032D01*
X050482D02*
X050497D01*
X050557D02*
X050572D01*
X050587D02*
X050632D01*
X050977D02*
X051022D01*
X047242Y031225D02*
X047287D01*
X048487D02*
X048547D01*
X048787D02*
X048832D01*
X050002D02*
X050062D01*
X050482D02*
X050497D01*
X050602D02*
X050662D01*
X050917D02*
X050992D01*
X047257Y03124D02*
X047302D01*
X048517D02*
X048577D01*
X048817D02*
X048847D01*
X050032D02*
X050077D01*
X050482D02*
X050497D01*
X050632D02*
X050692D01*
X050902D02*
X050962D01*
X047287Y031255D02*
X047332D01*
X048547D02*
X048592D01*
X048832D02*
X048892D01*
X050062D02*
X050107D01*
X050482D02*
X050497D01*
X050662D02*
X050722D01*
X050872D02*
X050917D01*
X047317Y03127D02*
X047362D01*
X048577D02*
X048622D01*
X048862D02*
X048907D01*
X050077D02*
X050122D01*
X050482D02*
X050497D01*
X050692D02*
X050722D01*
X050842D02*
X050887D01*
X047347Y031285D02*
X047392D01*
X048592D02*
X048652D01*
X048892D02*
X048937D01*
X050107D02*
X050167D01*
X050482D02*
X050497D01*
X050707D02*
X050752D01*
X050827D02*
X050872D01*
X047362Y0313D02*
X047407D01*
X048622D02*
X048667D01*
X048922D02*
X048952D01*
X050137D02*
X050182D01*
X050482D02*
X050497D01*
X050737D02*
X050842D01*
X047392Y031315D02*
X047437D01*
X048652D02*
X048712D01*
X048937D02*
X048997D01*
X050167D02*
X050227D01*
X050482D02*
X050497D01*
X050767D02*
X050812D01*
X047422Y03133D02*
X047467D01*
X048667D02*
X048682D01*
X048697D02*
X048742D01*
X048967D02*
X049012D01*
X050197D02*
X050257D01*
X050482D02*
X050512D01*
X047437Y031345D02*
X047482D01*
X048712D02*
X048772D01*
X048997D02*
X049042D01*
X050227D02*
X050287D01*
X050482D02*
X050497D01*
X047467Y03136D02*
X047512D01*
X048742D02*
X048787D01*
X049012D02*
X049087D01*
X050257D02*
X050302D01*
X050482D02*
X050497D01*
X047497Y031375D02*
X047542D01*
X048772D02*
X048817D01*
X049042D02*
X049102D01*
X050287D02*
X050332D01*
X050482D02*
X050497D01*
X047527Y03139D02*
X047557D01*
X047572D02*
X047587D01*
X048787D02*
X048847D01*
X049087D02*
X049132D01*
X050302D02*
X050362D01*
X050482D02*
X050497D01*
X047542Y031405D02*
X047602D01*
X048817D02*
X048877D01*
X049102D02*
X049147D01*
X050332D02*
X050377D01*
X050482D02*
X050497D01*
X047587Y03142D02*
X047632D01*
X048847D02*
X048892D01*
X049132D02*
X049177D01*
X050362D02*
X050407D01*
X050482D02*
X050497D01*
X047617Y031435D02*
X047662D01*
X048877D02*
X048922D01*
X049162D02*
X049207D01*
X050392D02*
X050437D01*
X050482D02*
X050497D01*
X047632Y03145D02*
X047677D01*
X048892D02*
X048952D01*
X049192D02*
X049237D01*
X050407D02*
X050467D01*
X050482D02*
X050497D01*
X047662Y031465D02*
X047722D01*
X048922D02*
X048982D01*
X049222D02*
X049252D01*
X050437D02*
X050497D01*
X047692Y03148D02*
X047737D01*
X048952D02*
X048997D01*
X049237D02*
X049282D01*
X050467D02*
X050497D01*
X047722Y031495D02*
X047752D01*
X048982D02*
X049027D01*
X049267D02*
X049312D01*
X050452D02*
X050497D01*
X047722Y03151D02*
X047767D01*
X048982D02*
X049027D01*
X049267D02*
X049312D01*
X050437D02*
X050482D01*
X047737Y031525D02*
X047782D01*
X049012D02*
X049072D01*
X049297D02*
X049327D01*
X050407D02*
X050467D01*
X047767Y03154D02*
X047812D01*
X049027D02*
X049087D01*
X049312D02*
X049372D01*
X050392D02*
X050437D01*
X047797Y031555D02*
X047842D01*
X049072D02*
X049132D01*
X049342D02*
X049387D01*
X050377D02*
X050407D01*
X047812Y03157D02*
X047857D01*
X049102D02*
X049147D01*
X049372D02*
X049417D01*
X050347D02*
X050392D01*
X047842Y031585D02*
X047902D01*
X049132D02*
X049177D01*
X049402D02*
X049432D01*
X049447D02*
X049462D01*
X050317D02*
X050362D01*
X047872Y0316D02*
X047917D01*
X049147D02*
X049207D01*
X049417D02*
X049477D01*
X050287D02*
X050332D01*
X047902Y031615D02*
X047962D01*
X049177D02*
X049222D01*
X049462D02*
X049507D01*
X050257D02*
X050317D01*
X047917Y03163D02*
X047977D01*
X049207D02*
X049252D01*
X049492D02*
X049537D01*
X050242D02*
X050287D01*
X047962Y031645D02*
X048007D01*
X049222D02*
X049282D01*
X049507D02*
X049552D01*
X050212D02*
X050257D01*
X047992Y03166D02*
X048037D01*
X049252D02*
X049312D01*
X049537D02*
X049582D01*
X050167D02*
X050227D01*
X048007Y031675D02*
X048067D01*
X049282D02*
X049327D01*
X049567D02*
X049612D01*
X050152D02*
X050182D01*
X050197D02*
X050212D01*
X048037Y03169D02*
X048082D01*
X049312D02*
X049357D01*
X049597D02*
X049642D01*
X050122D02*
X050167D01*
X048067Y031705D02*
X048112D01*
X049327D02*
X049387D01*
X049627D02*
X049657D01*
X050092D02*
X050137D01*
X048097Y03172D02*
X048142D01*
X049357D02*
X049417D01*
X049642D02*
X049687D01*
X050077D02*
X050122D01*
X048112Y031735D02*
X048172D01*
X049387D02*
X049432D01*
X049672D02*
X049717D01*
X050047D02*
X050092D01*
X048142Y03175D02*
X048187D01*
X049417D02*
X049477D01*
X049687D02*
X049747D01*
X050017D02*
X050062D01*
X048172Y031765D02*
X048217D01*
X049432D02*
X049447D01*
X049462D02*
X049507D01*
X049717D02*
X049762D01*
X050002D02*
X050047D01*
X048202Y03178D02*
X048232D01*
X049477D02*
X049537D01*
X049732D02*
X049792D01*
X049957D02*
X050017D01*
X048217Y031795D02*
X048262D01*
X049507D02*
X049552D01*
X049732D02*
X049747D01*
X049762D02*
X049837D01*
X049942D02*
X049987D01*
X048247Y03181D02*
X048292D01*
X049537D02*
X049582D01*
X049732D02*
X049747D01*
X049792D02*
X049867D01*
X049927D02*
X049957D01*
X048262Y031825D02*
X048322D01*
X049552D02*
X049612D01*
X049732D02*
X049747D01*
X049837D02*
X049942D01*
X048292Y03184D02*
X048352D01*
X049582D02*
X049627D01*
X049732D02*
X049747D01*
X049867D02*
X049912D01*
X048337Y031855D02*
X048382D01*
X049612D02*
X049657D01*
X049732D02*
X049747D01*
X048337Y03187D02*
X048382D01*
X049612D02*
X049657D01*
X049732D02*
X049747D01*
X048367Y031885D02*
X048412D01*
X049642D02*
X049687D01*
X049732D02*
X049747D01*
X048382Y0319D02*
X048427D01*
X049657D02*
X049702D01*
X049732D02*
X049747D01*
X048412Y031915D02*
X048472D01*
X049687D02*
X049747D01*
X048442Y03193D02*
X048487D01*
X049717D02*
X049747D01*
X048472Y031945D02*
X048502D01*
X049687D02*
X049732D01*
X048487Y03196D02*
X048532D01*
X049657D02*
X049717D01*
X048517Y031975D02*
X048562D01*
X049642D02*
X049687D01*
X048547Y03199D02*
X048577D01*
X049612D02*
X049657D01*
X048562Y032005D02*
X048622D01*
X049582D02*
X049627D01*
X048592Y03202D02*
X048637D01*
X049567D02*
X049612D01*
X048622Y032035D02*
X048667D01*
X049537D02*
X049582D01*
X048652Y03205D02*
X048697D01*
X049507D02*
X049552D01*
X048667Y032065D02*
X048727D01*
X049492D02*
X049537D01*
X048712Y03208D02*
X048757D01*
X049462D02*
X049507D01*
X048742Y032095D02*
X048787D01*
X049432D02*
X049477D01*
X048757Y03211D02*
X048817D01*
X049402D02*
X049462D01*
X048787Y032125D02*
X048847D01*
X049372D02*
X049417D01*
X048817Y03214D02*
X048862D01*
X049342D02*
X049387D01*
X048847Y032155D02*
X048892D01*
X049312D02*
X049372D01*
X048862Y03217D02*
X048907D01*
X049297D02*
X049342D01*
X048892Y032185D02*
X048937D01*
X049267D02*
X049312D01*
X048922Y0322D02*
X048967D01*
X049237D02*
X049282D01*
X048952Y032215D02*
X048997D01*
X049207D02*
X049252D01*
X048937Y03223D02*
X048982D01*
X049222D02*
X049267D01*
X048967Y032245D02*
X049012D01*
X049192D02*
X049237D01*
X048997Y03226D02*
X049042D01*
X049162D02*
X049207D01*
X049027Y032275D02*
X049057D01*
X049072D02*
X049087D01*
X049147D02*
X049192D01*
X049042Y03229D02*
X049162D01*
X049087Y032305D02*
X049132D01*
M02*
