G04 Layer_Color=8421504*
%FSTAX24Y24*%
%MOIN*%
G70*
G01*
G75*
%ADD10R,0.0630X0.1378*%
%ADD11R,0.0394X0.0550*%
%ADD12R,0.0472X0.0315*%
%ADD13R,0.0591X0.0394*%
%ADD14R,0.0394X0.0886*%
%ADD15R,0.0500X0.0250*%
%ADD16R,0.0250X0.0500*%
%ADD17R,0.0315X0.0500*%
%ADD18R,0.0500X0.0550*%
%ADD19R,0.0591X0.0610*%
%ADD20R,0.0157X0.0532*%
%ADD21R,0.1299X0.0945*%
%ADD22R,0.0394X0.0945*%
G04:AMPARAMS|DCode=23|XSize=216.5mil|YSize=224.4mil|CornerRadius=27.1mil|HoleSize=0mil|Usage=FLASHONLY|Rotation=90.000|XOffset=0mil|YOffset=0mil|HoleType=Round|Shape=RoundedRectangle|*
%AMROUNDEDRECTD23*
21,1,0.2165,0.1703,0,0,90.0*
21,1,0.1624,0.2244,0,0,90.0*
1,1,0.0541,0.0851,0.0812*
1,1,0.0541,0.0851,-0.0812*
1,1,0.0541,-0.0851,-0.0812*
1,1,0.0541,-0.0851,0.0812*
%
%ADD23ROUNDEDRECTD23*%
G04:AMPARAMS|DCode=24|XSize=39.4mil|YSize=78.7mil|CornerRadius=4.9mil|HoleSize=0mil|Usage=FLASHONLY|Rotation=90.000|XOffset=0mil|YOffset=0mil|HoleType=Round|Shape=RoundedRectangle|*
%AMROUNDEDRECTD24*
21,1,0.0394,0.0689,0,0,90.0*
21,1,0.0295,0.0787,0,0,90.0*
1,1,0.0098,0.0344,0.0148*
1,1,0.0098,0.0344,-0.0148*
1,1,0.0098,-0.0344,-0.0148*
1,1,0.0098,-0.0344,0.0148*
%
%ADD24ROUNDEDRECTD24*%
%ADD25R,0.0900X0.0906*%
%ADD26R,0.0630X0.1181*%
%ADD52C,0.0000*%
G36*
X030536Y020555D02*
X030546Y020554D01*
X030556Y020553D01*
X030566Y020551D01*
X030576Y020548D01*
X030586Y020545D01*
X030596Y020542D01*
X030605Y020538D01*
X030615Y020534D01*
X030624Y020529D01*
X030632Y020523D01*
X030641Y020518D01*
X030649Y020511D01*
X030657Y020505D01*
X030664Y020497D01*
X030671Y02049D01*
X030678Y020482D01*
X030684Y020474D01*
X03069Y020465D01*
X030696Y020457D01*
X030701Y020448D01*
X030705Y020438D01*
X030709Y020429D01*
X030712Y020419D01*
X030715Y020409D01*
X030718Y020399D01*
X03072Y020389D01*
X030721Y020379D01*
X030722Y020369D01*
X030722Y020358D01*
Y020142D01*
X030722Y020131D01*
X030721Y020121D01*
X03072Y020111D01*
X030718Y020101D01*
X030715Y020091D01*
X030712Y020081D01*
X030709Y020071D01*
X030705Y020062D01*
X030701Y020052D01*
X030696Y020043D01*
X03069Y020035D01*
X030684Y020026D01*
X030678Y020018D01*
X030671Y02001D01*
X030664Y020003D01*
X030657Y019995D01*
X030649Y019989D01*
X030641Y019982D01*
X030632Y019977D01*
X030624Y019971D01*
X030615Y019966D01*
X030605Y019962D01*
X030596Y019958D01*
X030586Y019955D01*
X030576Y019952D01*
X030566Y019949D01*
X030556Y019947D01*
X030546Y019946D01*
X030536Y019945D01*
X030525Y019945D01*
X030053D01*
Y020555D01*
X030525D01*
X030536Y020555D01*
D02*
G37*
G36*
X028242Y019945D02*
X027769D01*
X027759Y019945D01*
X027749Y019946D01*
X027738Y019947D01*
X027728Y019949D01*
X027718Y019952D01*
X027708Y019955D01*
X027699Y019958D01*
X027689Y019962D01*
X02768Y019966D01*
X027671Y019971D01*
X027662Y019977D01*
X027654Y019982D01*
X027645Y019989D01*
X027638Y019995D01*
X02763Y020003D01*
X027623Y02001D01*
X027616Y020018D01*
X02761Y020026D01*
X027604Y020035D01*
X027599Y020043D01*
X027594Y020052D01*
X027589Y020062D01*
X027586Y020071D01*
X027582Y020081D01*
X027579Y020091D01*
X027577Y020101D01*
X027575Y020111D01*
X027574Y020121D01*
X027573Y020131D01*
X027572Y020142D01*
Y020358D01*
X027573Y020369D01*
X027574Y020379D01*
X027575Y020389D01*
X027577Y020399D01*
X027579Y020409D01*
X027582Y020419D01*
X027586Y020429D01*
X027589Y020438D01*
X027594Y020448D01*
X027599Y020457D01*
X027604Y020465D01*
X02761Y020474D01*
X027616Y020482D01*
X027623Y02049D01*
X02763Y020497D01*
X027638Y020505D01*
X027645Y020511D01*
X027654Y020518D01*
X027662Y020523D01*
X027671Y020529D01*
X02768Y020534D01*
X027689Y020538D01*
X027699Y020542D01*
X027708Y020545D01*
X027718Y020548D01*
X027728Y020551D01*
X027738Y020553D01*
X027749Y020554D01*
X027759Y020555D01*
X027769Y020555D01*
X028242D01*
Y019945D01*
D02*
G37*
%LPC*%
G36*
X030525Y020476D02*
X03052Y020476D01*
X030515Y020476D01*
X03051Y020475D01*
X030505Y020474D01*
X0305Y020473D01*
X030495Y020472D01*
X03049Y02047D01*
X030485Y020468D01*
X030481Y020466D01*
X030476Y020463D01*
X030472Y020461D01*
X030467Y020458D01*
X030463Y020454D01*
X030459Y020451D01*
X030456Y020448D01*
X030452Y020444D01*
X030449Y02044D01*
X030446Y020436D01*
X030443Y020432D01*
X03044Y020427D01*
X030438Y020423D01*
X030435Y020418D01*
X030433Y020413D01*
X030432Y020408D01*
X03043Y020403D01*
X030429Y020398D01*
X030428Y020393D01*
X030427Y020388D01*
X030427Y020383D01*
X030427Y020378D01*
Y020122D01*
X030427Y020117D01*
X030427Y020112D01*
X030428Y020107D01*
X030429Y020102D01*
X03043Y020097D01*
X030432Y020092D01*
X030433Y020087D01*
X030435Y020082D01*
X030438Y020077D01*
X03044Y020073D01*
X030443Y020068D01*
X030446Y020064D01*
X030449Y02006D01*
X030452Y020056D01*
X030456Y020052D01*
X030459Y020049D01*
X030463Y020046D01*
X030467Y020042D01*
X030472Y02004D01*
X030476Y020037D01*
X030481Y020034D01*
X030485Y020032D01*
X03049Y02003D01*
X030495Y020028D01*
X0305Y020027D01*
X030505Y020026D01*
X03051Y020025D01*
X030515Y020024D01*
X03052Y020024D01*
X030525Y020024D01*
X03053Y020024D01*
X030535Y020024D01*
X030541Y020025D01*
X030546Y020026D01*
X030551Y020027D01*
X030556Y020028D01*
X03056Y02003D01*
X030565Y020032D01*
X03057Y020034D01*
X030574Y020037D01*
X030579Y02004D01*
X030583Y020042D01*
X030587Y020046D01*
X030591Y020049D01*
X030595Y020052D01*
X030598Y020056D01*
X030602Y02006D01*
X030605Y020064D01*
X030608Y020068D01*
X03061Y020073D01*
X030613Y020077D01*
X030615Y020082D01*
X030617Y020087D01*
X030619Y020092D01*
X03062Y020097D01*
X030621Y020102D01*
X030622Y020107D01*
X030623Y020112D01*
X030623Y020117D01*
X030624Y020122D01*
Y020378D01*
X030623Y020383D01*
X030623Y020388D01*
X030622Y020393D01*
X030621Y020398D01*
X03062Y020403D01*
X030619Y020408D01*
X030617Y020413D01*
X030615Y020418D01*
X030613Y020423D01*
X03061Y020427D01*
X030608Y020432D01*
X030605Y020436D01*
X030602Y02044D01*
X030598Y020444D01*
X030595Y020448D01*
X030591Y020451D01*
X030587Y020454D01*
X030583Y020458D01*
X030579Y020461D01*
X030574Y020463D01*
X03057Y020466D01*
X030565Y020468D01*
X03056Y02047D01*
X030556Y020472D01*
X030551Y020473D01*
X030546Y020474D01*
X030541Y020475D01*
X030535Y020476D01*
X03053Y020476D01*
X030525Y020476D01*
D02*
G37*
G36*
X027769D02*
X027764Y020476D01*
X027759Y020476D01*
X027754Y020475D01*
X027749Y020474D01*
X027744Y020473D01*
X027739Y020472D01*
X027734Y02047D01*
X027729Y020468D01*
X027725Y020466D01*
X02772Y020463D01*
X027716Y020461D01*
X027711Y020458D01*
X027707Y020454D01*
X027703Y020451D01*
X0277Y020448D01*
X027696Y020444D01*
X027693Y02044D01*
X02769Y020436D01*
X027687Y020432D01*
X027684Y020427D01*
X027682Y020423D01*
X027679Y020418D01*
X027677Y020413D01*
X027676Y020408D01*
X027674Y020403D01*
X027673Y020398D01*
X027672Y020393D01*
X027671Y020388D01*
X027671Y020383D01*
X027671Y020378D01*
Y020122D01*
X027671Y020117D01*
X027671Y020112D01*
X027672Y020107D01*
X027673Y020102D01*
X027674Y020097D01*
X027676Y020092D01*
X027677Y020087D01*
X027679Y020082D01*
X027682Y020077D01*
X027684Y020073D01*
X027687Y020068D01*
X02769Y020064D01*
X027693Y02006D01*
X027696Y020056D01*
X0277Y020052D01*
X027703Y020049D01*
X027707Y020046D01*
X027711Y020042D01*
X027716Y02004D01*
X02772Y020037D01*
X027725Y020034D01*
X027729Y020032D01*
X027734Y02003D01*
X027739Y020028D01*
X027744Y020027D01*
X027749Y020026D01*
X027754Y020025D01*
X027759Y020024D01*
X027764Y020024D01*
X027769Y020024D01*
X027774Y020024D01*
X02778Y020024D01*
X027785Y020025D01*
X02779Y020026D01*
X027795Y020027D01*
X0278Y020028D01*
X027805Y02003D01*
X027809Y020032D01*
X027814Y020034D01*
X027819Y020037D01*
X027823Y02004D01*
X027827Y020042D01*
X027831Y020046D01*
X027835Y020049D01*
X027839Y020052D01*
X027842Y020056D01*
X027846Y02006D01*
X027849Y020064D01*
X027852Y020068D01*
X027855Y020073D01*
X027857Y020077D01*
X027859Y020082D01*
X027861Y020087D01*
X027863Y020092D01*
X027864Y020097D01*
X027866Y020102D01*
X027867Y020107D01*
X027867Y020112D01*
X027868Y020117D01*
X027868Y020122D01*
Y020378D01*
X027868Y020383D01*
X027867Y020388D01*
X027867Y020393D01*
X027866Y020398D01*
X027864Y020403D01*
X027863Y020408D01*
X027861Y020413D01*
X027859Y020418D01*
X027857Y020423D01*
X027855Y020427D01*
X027852Y020432D01*
X027849Y020436D01*
X027846Y02044D01*
X027842Y020444D01*
X027839Y020448D01*
X027835Y020451D01*
X027831Y020454D01*
X027827Y020458D01*
X027823Y020461D01*
X027819Y020463D01*
X027814Y020466D01*
X027809Y020468D01*
X027805Y02047D01*
X0278Y020472D01*
X027795Y020473D01*
X02779Y020474D01*
X027785Y020475D01*
X02778Y020476D01*
X027774Y020476D01*
X027769Y020476D01*
D02*
G37*
%LPD*%
D10*
X032697Y022652D02*
D03*
Y020448D02*
D03*
D11*
X035697Y027327D02*
D03*
X034797D02*
D03*
X035697Y0264D02*
D03*
X034797D02*
D03*
X034797Y029172D02*
D03*
X035697D02*
D03*
X034797Y028245D02*
D03*
X035697D02*
D03*
X034797Y0301D02*
D03*
X035697D02*
D03*
X0493Y02385D02*
D03*
X0484D02*
D03*
X040797Y021D02*
D03*
X039897D02*
D03*
D12*
X037025Y0323D02*
D03*
X034269D02*
D03*
D13*
X0322Y031568D02*
D03*
Y030781D02*
D03*
Y029993D02*
D03*
Y029206D02*
D03*
Y028419D02*
D03*
Y027631D02*
D03*
D14*
X031609Y026598D02*
D03*
X030822D02*
D03*
X030034D02*
D03*
X029247D02*
D03*
X028459D02*
D03*
X027672D02*
D03*
X026885D02*
D03*
X026097D02*
D03*
Y032602D02*
D03*
X026885D02*
D03*
X027672D02*
D03*
X028459D02*
D03*
X029247D02*
D03*
X030034D02*
D03*
X030822D02*
D03*
X031609D02*
D03*
D15*
X0415Y031493D02*
D03*
Y030993D02*
D03*
Y030493D02*
D03*
Y029993D02*
D03*
Y029493D02*
D03*
Y028993D02*
D03*
Y028493D02*
D03*
Y027993D02*
D03*
D16*
X046004Y032895D02*
D03*
X045504D02*
D03*
X045004D02*
D03*
X044504D02*
D03*
X044004D02*
D03*
X043504D02*
D03*
X043004D02*
D03*
X042504D02*
D03*
X046004Y026595D02*
D03*
X045504D02*
D03*
X045004D02*
D03*
X044504D02*
D03*
X044004D02*
D03*
X043504D02*
D03*
D17*
X043004D02*
D03*
X042504D02*
D03*
D18*
X04635Y02385D02*
D03*
X04725D02*
D03*
X03615Y02455D02*
D03*
X03705D02*
D03*
X0341D02*
D03*
X035D02*
D03*
X032D02*
D03*
X0329D02*
D03*
X040797Y02D02*
D03*
X039897D02*
D03*
D19*
X029541Y02025D02*
D03*
X028754D02*
D03*
D20*
X029659Y021313D02*
D03*
X029403D02*
D03*
X029147D02*
D03*
X028891D02*
D03*
X028635D02*
D03*
D21*
X044747Y020258D02*
D03*
D22*
X043842Y022542D02*
D03*
X044747D02*
D03*
X045653D02*
D03*
D23*
X039641Y0241D02*
D03*
D24*
X042554Y025D02*
D03*
X042554Y0232D02*
D03*
D25*
X027447Y0232D02*
D03*
X025847D02*
D03*
D26*
X037447Y022066D02*
D03*
Y020334D02*
D03*
X035197Y022066D02*
D03*
Y020334D02*
D03*
D52*
X030525Y019947D02*
Y020014D01*
X027769Y020486D02*
Y020553D01*
M02*
