G04 Layer_Color=2752767*
%FSTAX24Y24*%
%MOIN*%
G70*
G01*
G75*
%ADD85C,0.0020*%
%ADD89C,0.0027*%
D85*
X037167Y02682D02*
Y02698D01*
X037327D01*
Y02682D01*
X037167D01*
Y02982D02*
Y02998D01*
X037327D01*
Y02982D01*
X037167D01*
X030131Y021233D02*
X030052Y021393D01*
X030212D01*
X030131Y021233D01*
X028163D02*
X028083Y021393D01*
X028243D01*
X028163Y021233D01*
X023547Y02127D02*
X023587Y02131D01*
X023627D01*
X023587Y02135D01*
X023627Y02139D01*
X023587D01*
X023547Y02143D01*
X023507Y02139D01*
X023467D01*
X023507Y02135D01*
X023467Y02131D01*
X023507D01*
X023547Y02127D01*
X024547D02*
X024587Y02131D01*
X024627D01*
X024587Y02135D01*
X024627Y02139D01*
X024587D01*
X024547Y02143D01*
X024507Y02139D01*
X024467D01*
X024507Y02135D01*
X024467Y02131D01*
X024507D01*
X024547Y02127D01*
X025547D02*
X025587Y02131D01*
X025627D01*
X025587Y02135D01*
X025627Y02139D01*
X025587D01*
X025547Y02143D01*
X025507Y02139D01*
X025467D01*
X025507Y02135D01*
X025467Y02131D01*
X025507D01*
X025547Y02127D01*
X026547D02*
X026587Y02131D01*
X026627D01*
X026587Y02135D01*
X026627Y02139D01*
X026587D01*
X026547Y02143D01*
X026507Y02139D01*
X026467D01*
X026507Y02135D01*
X026467Y02131D01*
X026507D01*
X026547Y02127D01*
Y02027D02*
X026587Y02031D01*
X026627D01*
X026587Y02035D01*
X026627Y02039D01*
X026587D01*
X026547Y02043D01*
X026507Y02039D01*
X026467D01*
X026507Y02035D01*
X026467Y02031D01*
X026507D01*
X026547Y02027D01*
X025547D02*
X025587Y02031D01*
X025627D01*
X025587Y02035D01*
X025627Y02039D01*
X025587D01*
X025547Y02043D01*
X025507Y02039D01*
X025467D01*
X025507Y02035D01*
X025467Y02031D01*
X025507D01*
X025547Y02027D01*
X024547D02*
X024587Y02031D01*
X024627D01*
X024587Y02035D01*
X024627Y02039D01*
X024587D01*
X024547Y02043D01*
X024507Y02039D01*
X024467D01*
X024507Y02035D01*
X024467Y02031D01*
X024507D01*
X024547Y02027D01*
X023547D02*
X023587Y02031D01*
X023627D01*
X023587Y02035D01*
X023627Y02039D01*
X023587D01*
X023547Y02043D01*
X023507Y02039D01*
X023467D01*
X023507Y02035D01*
X023467Y02031D01*
X023507D01*
X023547Y02027D01*
X038747Y03037D02*
X038787Y03041D01*
X038827D01*
X038787Y03045D01*
X038827Y03049D01*
X038787D01*
X038747Y03053D01*
X038707Y03049D01*
X038667D01*
X038707Y03045D01*
X038667Y03041D01*
X038707D01*
X038747Y03037D01*
Y03137D02*
X038787Y03141D01*
X038827D01*
X038787Y03145D01*
X038827Y03149D01*
X038787D01*
X038747Y03153D01*
X038707Y03149D01*
X038667D01*
X038707Y03145D01*
X038667Y03141D01*
X038707D01*
X038747Y03137D01*
Y03237D02*
X038787Y03241D01*
X038827D01*
X038787Y03245D01*
X038827Y03249D01*
X038787D01*
X038747Y03253D01*
X038707Y03249D01*
X038667D01*
X038707Y03245D01*
X038667Y03241D01*
X038707D01*
X038747Y03237D01*
X039747Y03037D02*
X039787Y03041D01*
X039827D01*
X039787Y03045D01*
X039827Y03049D01*
X039787D01*
X039747Y03053D01*
X039707Y03049D01*
X039667D01*
X039707Y03045D01*
X039667Y03041D01*
X039707D01*
X039747Y03037D01*
Y03137D02*
X039787Y03141D01*
X039827D01*
X039787Y03145D01*
X039827Y03149D01*
X039787D01*
X039747Y03153D01*
X039707Y03149D01*
X039667D01*
X039707Y03145D01*
X039667Y03141D01*
X039707D01*
X039747Y03137D01*
Y03237D02*
X039787Y03241D01*
X039827D01*
X039787Y03245D01*
X039827Y03249D01*
X039787D01*
X039747Y03253D01*
X039707Y03249D01*
X039667D01*
X039707Y03245D01*
X039667Y03241D01*
X039707D01*
X039747Y03237D01*
X047297Y02032D02*
X047337Y02036D01*
X047377D01*
X047337Y0204D01*
X047377Y02044D01*
X047337D01*
X047297Y02048D01*
X047257Y02044D01*
X047217D01*
X047257Y0204D01*
X047217Y02036D01*
X047257D01*
X047297Y02032D01*
X048297D02*
X048337Y02036D01*
X048377D01*
X048337Y0204D01*
X048377Y02044D01*
X048337D01*
X048297Y02048D01*
X048257Y02044D01*
X048217D01*
X048257Y0204D01*
X048217Y02036D01*
X048257D01*
X048297Y02032D01*
X049297D02*
X049337Y02036D01*
X049377D01*
X049337Y0204D01*
X049377Y02044D01*
X049337D01*
X049297Y02048D01*
X049257Y02044D01*
X049217D01*
X049257Y0204D01*
X049217Y02036D01*
X049257D01*
X049297Y02032D01*
X050297D02*
X050337Y02036D01*
X050377D01*
X050337Y0204D01*
X050377Y02044D01*
X050337D01*
X050297Y02048D01*
X050257Y02044D01*
X050217D01*
X050257Y0204D01*
X050217Y02036D01*
X050257D01*
X050297Y02032D01*
X051297D02*
X051337Y02036D01*
X051377D01*
X051337Y0204D01*
X051377Y02044D01*
X051337D01*
X051297Y02048D01*
X051257Y02044D01*
X051217D01*
X051257Y0204D01*
X051217Y02036D01*
X051257D01*
X051297Y02032D01*
Y02132D02*
X051337Y02136D01*
X051377D01*
X051337Y0214D01*
X051377Y02144D01*
X051337D01*
X051297Y02148D01*
X051257Y02144D01*
X051217D01*
X051257Y0214D01*
X051217Y02136D01*
X051257D01*
X051297Y02132D01*
X050297D02*
X050337Y02136D01*
X050377D01*
X050337Y0214D01*
X050377Y02144D01*
X050337D01*
X050297Y02148D01*
X050257Y02144D01*
X050217D01*
X050257Y0214D01*
X050217Y02136D01*
X050257D01*
X050297Y02132D01*
X049297D02*
X049337Y02136D01*
X049377D01*
X049337Y0214D01*
X049377Y02144D01*
X049337D01*
X049297Y02148D01*
X049257Y02144D01*
X049217D01*
X049257Y0214D01*
X049217Y02136D01*
X049257D01*
X049297Y02132D01*
X048297D02*
X048337Y02136D01*
X048377D01*
X048337Y0214D01*
X048377Y02144D01*
X048337D01*
X048297Y02148D01*
X048257Y02144D01*
X048217D01*
X048257Y0214D01*
X048217Y02136D01*
X048257D01*
X048297Y02132D01*
X047297D02*
X047337Y02136D01*
X047377D01*
X047337Y0214D01*
X047377Y02144D01*
X047337D01*
X047297Y02148D01*
X047257Y02144D01*
X047217D01*
X047257Y0214D01*
X047217Y02136D01*
X047257D01*
X047297Y02132D01*
X021053Y02398D02*
X021093Y02406D01*
X021053Y02414D01*
X021133Y0241D01*
X021213Y02414D01*
X021173Y02406D01*
X021213Y02398D01*
X021133Y02402D01*
X021053Y02398D01*
X022982D02*
X023022Y02406D01*
X022982Y02414D01*
X023062Y0241D01*
X023142Y02414D01*
X023102Y02406D01*
X023142Y02398D01*
X023062Y02402D01*
X022982Y02398D01*
X021959Y022877D02*
X021999Y022957D01*
X021959Y023037D01*
X022039Y022997D01*
X022119Y023037D01*
X022079Y022957D01*
X022119Y022877D01*
X022039Y022917D01*
X021959Y022877D01*
X053762Y026389D02*
Y026349D01*
X053842D01*
Y026389D01*
X053882D01*
Y026469D01*
X053842D01*
Y026509D01*
X053762D01*
Y026469D01*
X053722D01*
Y026389D01*
X053762D01*
X021085Y02635D02*
Y02631D01*
X021165D01*
Y02635D01*
X021205D01*
Y02643D01*
X021165D01*
Y02647D01*
X021085D01*
Y02643D01*
X021045D01*
Y02635D01*
X021085D01*
X04717Y024764D02*
X04721D01*
X04725Y024804D01*
X04729Y024764D01*
X04733D01*
Y024804D01*
X04729Y024844D01*
X04733Y024884D01*
Y024924D01*
X04729D01*
X04725Y024884D01*
X04721Y024924D01*
X04717D01*
Y024884D01*
X04721Y024844D01*
X04717Y024804D01*
Y024764D01*
X045924Y025993D02*
X045964D01*
X046004Y026033D01*
X046044Y025993D01*
X046084D01*
Y026033D01*
X046044Y026074D01*
X046084Y026114D01*
Y026154D01*
X046044D01*
X046004Y026114D01*
X045964Y026154D01*
X045924D01*
Y026114D01*
X045964Y026074D01*
X045924Y026033D01*
Y025993D01*
X042924Y031704D02*
X042964D01*
X043004Y031744D01*
X043044Y031704D01*
X043084D01*
Y031744D01*
X043044Y031783D01*
X043084Y031823D01*
Y031864D01*
X043044D01*
X043004Y031823D01*
X042964Y031864D01*
X042924D01*
Y031823D01*
X042964Y031783D01*
X042924Y031744D01*
Y031704D01*
X043424Y031913D02*
X043464D01*
X043504Y031953D01*
X043544Y031913D01*
X043584D01*
Y031953D01*
X043544Y031994D01*
X043584Y032034D01*
Y032074D01*
X043544D01*
X043504Y032034D01*
X043464Y032074D01*
X043424D01*
Y032034D01*
X043464Y031994D01*
X043424Y031953D01*
Y031913D01*
X043087Y02793D02*
X043127D01*
X043167Y02797D01*
X043207Y02793D01*
X043247D01*
Y02797D01*
X043207Y02801D01*
X043247Y02805D01*
Y02809D01*
X043207D01*
X043167Y02805D01*
X043127Y02809D01*
X043087D01*
Y02805D01*
X043127Y02801D01*
X043087Y02797D01*
Y02793D01*
X043577Y0276D02*
X043617D01*
X043657Y02764D01*
X043697Y0276D01*
X043737D01*
Y02764D01*
X043697Y02768D01*
X043737Y02772D01*
Y02776D01*
X043697D01*
X043657Y02772D01*
X043617Y02776D01*
X043577D01*
Y02772D01*
X043617Y02768D01*
X043577Y02764D01*
Y0276D01*
X042247Y03017D02*
X042287D01*
X042327Y03021D01*
X042367Y03017D01*
X042407D01*
Y03021D01*
X042367Y03025D01*
X042407Y03029D01*
Y03033D01*
X042367D01*
X042327Y03029D01*
X042287Y03033D01*
X042247D01*
Y03029D01*
X042287Y03025D01*
X042247Y03021D01*
Y03017D01*
X042717Y03083D02*
X042757D01*
X042797Y03087D01*
X042837Y03083D01*
X042877D01*
Y03087D01*
X042837Y03091D01*
X042877Y03095D01*
Y03099D01*
X042837D01*
X042797Y03095D01*
X042757Y03099D01*
X042717D01*
Y03095D01*
X042757Y03091D01*
X042717Y03087D01*
Y03083D01*
X049717Y02372D02*
X049757D01*
X049797Y02376D01*
X049837Y02372D01*
X049877D01*
Y02376D01*
X049837Y0238D01*
X049877Y02384D01*
Y02388D01*
X049837D01*
X049797Y02384D01*
X049757Y02388D01*
X049717D01*
Y02384D01*
X049757Y0238D01*
X049717Y02376D01*
Y02372D01*
X050707Y02262D02*
X050747D01*
X050787Y02266D01*
X050827Y02262D01*
X050867D01*
Y02266D01*
X050827Y0227D01*
X050867Y02274D01*
Y02278D01*
X050827D01*
X050787Y02274D01*
X050747Y02278D01*
X050707D01*
Y02274D01*
X050747Y0227D01*
X050707Y02266D01*
Y02262D01*
X026017Y03103D02*
X026057D01*
X026097Y03107D01*
X026137Y03103D01*
X026177D01*
Y03107D01*
X026137Y03111D01*
X026177Y03115D01*
Y03119D01*
X026137D01*
X026097Y03115D01*
X026057Y03119D01*
X026017D01*
Y03115D01*
X026057Y03111D01*
X026017Y03107D01*
Y03103D01*
X026805Y03137D02*
X026845D01*
X026885Y03141D01*
X026925Y03137D01*
X026965D01*
Y03141D01*
X026925Y03145D01*
X026965Y03149D01*
Y03153D01*
X026925D01*
X026885Y03149D01*
X026845Y03153D01*
X026805D01*
Y03149D01*
X026845Y03145D01*
X026805Y03141D01*
Y03137D01*
X027607Y03165D02*
X027647D01*
X027687Y03169D01*
X027727Y03165D01*
X027767D01*
Y03169D01*
X027727Y03173D01*
X027767Y03177D01*
Y03181D01*
X027727D01*
X027687Y03177D01*
X027647Y03181D01*
X027607D01*
Y03177D01*
X027647Y03173D01*
X027607Y03169D01*
Y03165D01*
X037637Y03164D02*
X037677D01*
X037717Y03168D01*
X037757Y03164D01*
X037797D01*
Y03168D01*
X037757Y03172D01*
X037797Y03176D01*
Y0318D01*
X037757D01*
X037717Y03176D01*
X037677Y0318D01*
X037637D01*
Y03176D01*
X037677Y03172D01*
X037637Y03168D01*
Y03164D01*
X028367Y03189D02*
X028407D01*
X028447Y03193D01*
X028487Y03189D01*
X028527D01*
Y03193D01*
X028487Y03197D01*
X028527Y03201D01*
Y03205D01*
X028487D01*
X028447Y03201D01*
X028407Y03205D01*
X028367D01*
Y03201D01*
X028407Y03197D01*
X028367Y03193D01*
Y03189D01*
X034257Y03077D02*
X034297D01*
X034337Y03081D01*
X034377Y03077D01*
X034417D01*
Y03081D01*
X034377Y03085D01*
X034417Y03089D01*
Y03093D01*
X034377D01*
X034337Y03089D01*
X034297Y03093D01*
X034257D01*
Y03089D01*
X034297Y03085D01*
X034257Y03081D01*
Y03077D01*
X033567Y02807D02*
X033607D01*
X033647Y02811D01*
X033687Y02807D01*
X033727D01*
Y02811D01*
X033687Y02815D01*
X033727Y02819D01*
Y02823D01*
X033687D01*
X033647Y02819D01*
X033607Y02823D01*
X033567D01*
Y02819D01*
X033607Y02815D01*
X033567Y02811D01*
Y02807D01*
X03317Y029273D02*
X03321D01*
X03325Y029313D01*
X03329Y029273D01*
X03333D01*
Y029313D01*
X03329Y029353D01*
X03333Y029393D01*
Y029433D01*
X03329D01*
X03325Y029393D01*
X03321Y029433D01*
X03317D01*
Y029393D01*
X03321Y029353D01*
X03317Y029313D01*
Y029273D01*
X035145Y027248D02*
X035185D01*
X035225Y027287D01*
X035265Y027248D01*
X035305D01*
Y027287D01*
X035265Y027327D01*
X035305Y027367D01*
Y027408D01*
X035265D01*
X035225Y027367D01*
X035185Y027408D01*
X035145D01*
Y027367D01*
X035185Y027327D01*
X035145Y027287D01*
Y027248D01*
X032717Y02922D02*
X032757D01*
X032797Y02926D01*
X032837Y02922D01*
X032877D01*
Y02926D01*
X032837Y0293D01*
X032877Y02934D01*
Y02938D01*
X032837D01*
X032797Y02934D01*
X032757Y02938D01*
X032717D01*
Y02934D01*
X032757Y0293D01*
X032717Y02926D01*
Y02922D01*
X03017Y028667D02*
X03021D01*
X03025Y028707D01*
X03029Y028667D01*
X03033D01*
Y028707D01*
X03029Y028747D01*
X03033Y028787D01*
Y028827D01*
X03029D01*
X03025Y028787D01*
X03021Y028827D01*
X03017D01*
Y028787D01*
X03021Y028747D01*
X03017Y028707D01*
Y028667D01*
X031524Y02867D02*
X031564D01*
X031604Y02871D01*
X031644Y02867D01*
X031684D01*
Y02871D01*
X031644Y02875D01*
X031684Y02879D01*
Y02883D01*
X031644D01*
X031604Y02879D01*
X031564Y02883D01*
X031524D01*
Y02879D01*
X031564Y02875D01*
X031524Y02871D01*
Y02867D01*
X02822Y028667D02*
X02826D01*
X0283Y028707D01*
X02834Y028667D01*
X02838D01*
Y028707D01*
X02834Y028747D01*
X02838Y028787D01*
Y028827D01*
X02834D01*
X0283Y028787D01*
X02826Y028827D01*
X02822D01*
Y028787D01*
X02826Y028747D01*
X02822Y028707D01*
Y028667D01*
X035167Y02817D02*
X035207D01*
X035247Y02821D01*
X035287Y02817D01*
X035327D01*
Y02821D01*
X035287Y02825D01*
X035327Y02829D01*
Y02833D01*
X035287D01*
X035247Y02829D01*
X035207Y02833D01*
X035167D01*
Y02829D01*
X035207Y02825D01*
X035167Y02821D01*
Y02817D01*
X036067Y02907D02*
X036107D01*
X036147Y02911D01*
X036187Y02907D01*
X036227D01*
Y02911D01*
X036187Y02915D01*
X036227Y02919D01*
Y02923D01*
X036187D01*
X036147Y02919D01*
X036107Y02923D01*
X036067D01*
Y02919D01*
X036107Y02915D01*
X036067Y02911D01*
Y02907D01*
X033317Y02707D02*
X033357D01*
X033397Y02711D01*
X033437Y02707D01*
X033477D01*
Y02711D01*
X033437Y02715D01*
X033477Y02719D01*
Y02723D01*
X033437D01*
X033397Y02719D01*
X033357Y02723D01*
X033317D01*
Y02719D01*
X033357Y02715D01*
X033317Y02711D01*
Y02707D01*
X026067Y02587D02*
X026107D01*
X026147Y02591D01*
X026187Y02587D01*
X026227D01*
Y02591D01*
X026187Y02595D01*
X026227Y02599D01*
Y02603D01*
X026187D01*
X026147Y02599D01*
X026107Y02603D01*
X026067D01*
Y02599D01*
X026107Y02595D01*
X026067Y02591D01*
Y02587D01*
X033217Y02627D02*
X033257D01*
X033297Y02631D01*
X033337Y02627D01*
X033377D01*
Y02631D01*
X033337Y02635D01*
X033377Y02639D01*
Y02643D01*
X033337D01*
X033297Y02639D01*
X033257Y02643D01*
X033217D01*
Y02639D01*
X033257Y02635D01*
X033217Y02631D01*
Y02627D01*
X027592Y025745D02*
X027632D01*
X027672Y025785D01*
X027712Y025745D01*
X027752D01*
Y025785D01*
X027712Y025825D01*
X027752Y025865D01*
Y025905D01*
X027712D01*
X027672Y025865D01*
X027632Y025905D01*
X027592D01*
Y025865D01*
X027632Y025825D01*
X027592Y025785D01*
Y025745D01*
X027917Y02382D02*
X027957D01*
X027997Y02386D01*
X028037Y02382D01*
X028077D01*
Y02386D01*
X028037Y0239D01*
X028077Y02394D01*
Y02398D01*
X028037D01*
X027997Y02394D01*
X027957Y02398D01*
X027917D01*
Y02394D01*
X027957Y0239D01*
X027917Y02386D01*
Y02382D01*
X027417Y02392D02*
X027457D01*
X027497Y02396D01*
X027537Y02392D01*
X027577D01*
Y02396D01*
X027537Y024D01*
X027577Y02404D01*
Y02408D01*
X027537D01*
X027497Y02404D01*
X027457Y02408D01*
X027417D01*
Y02404D01*
X027457Y024D01*
X027417Y02396D01*
Y02392D01*
X029067Y02197D02*
X029107D01*
X029147Y02201D01*
X029187Y02197D01*
X029227D01*
Y02201D01*
X029187Y02205D01*
X029227Y02209D01*
Y02213D01*
X029187D01*
X029147Y02209D01*
X029107Y02213D01*
X029067D01*
Y02209D01*
X029107Y02205D01*
X029067Y02201D01*
Y02197D01*
X028811Y022314D02*
X028851D01*
X028891Y022354D01*
X028931Y022314D01*
X028971D01*
Y022354D01*
X028931Y022394D01*
X028971Y022434D01*
Y022474D01*
X028931D01*
X028891Y022434D01*
X028851Y022474D01*
X028811D01*
Y022434D01*
X028851Y022394D01*
X028811Y022354D01*
Y022314D01*
X028379Y027208D02*
X028419D01*
X028459Y027248D01*
X028499Y027208D01*
X028539D01*
Y027248D01*
X028499Y027288D01*
X028539Y027328D01*
Y027368D01*
X028499D01*
X028459Y027328D01*
X028419Y027368D01*
X028379D01*
Y027328D01*
X028419Y027288D01*
X028379Y027248D01*
Y027208D01*
X029167Y02717D02*
X029207D01*
X029247Y02721D01*
X029287Y02717D01*
X029327D01*
Y02721D01*
X029287Y02725D01*
X029327Y02729D01*
Y02733D01*
X029287D01*
X029247Y02729D01*
X029207Y02733D01*
X029167D01*
Y02729D01*
X029207Y02725D01*
X029167Y02721D01*
Y02717D01*
X029954Y027183D02*
X029994D01*
X030034Y027223D01*
X030074Y027183D01*
X030114D01*
Y027223D01*
X030074Y027263D01*
X030114Y027303D01*
Y027343D01*
X030074D01*
X030034Y027303D01*
X029994Y027343D01*
X029954D01*
Y027303D01*
X029994Y027263D01*
X029954Y027223D01*
Y027183D01*
X030742Y027196D02*
X030782D01*
X030822Y027236D01*
X030862Y027196D01*
X030902D01*
Y027236D01*
X030862Y027276D01*
X030902Y027316D01*
Y027356D01*
X030862D01*
X030822Y027316D01*
X030782Y027356D01*
X030742D01*
Y027316D01*
X030782Y027276D01*
X030742Y027236D01*
Y027196D01*
X026817Y02227D02*
X026857D01*
X026897Y02231D01*
X026937Y02227D01*
X026977D01*
Y02231D01*
X026937Y02235D01*
X026977Y02239D01*
Y02243D01*
X026937D01*
X026897Y02239D01*
X026857Y02243D01*
X026817D01*
Y02239D01*
X026857Y02235D01*
X026817Y02231D01*
Y02227D01*
X026067Y02477D02*
X026107D01*
X026147Y02481D01*
X026187Y02477D01*
X026227D01*
Y02481D01*
X026187Y02485D01*
X026227Y02489D01*
Y02493D01*
X026187D01*
X026147Y02489D01*
X026107Y02493D01*
X026067D01*
Y02489D01*
X026107Y02485D01*
X026067Y02481D01*
Y02477D01*
X026417Y02452D02*
X026457D01*
X026497Y02456D01*
X026537Y02452D01*
X026577D01*
Y02456D01*
X026537Y0246D01*
X026577Y02464D01*
Y02468D01*
X026537D01*
X026497Y02464D01*
X026457Y02468D01*
X026417D01*
Y02464D01*
X026457Y0246D01*
X026417Y02456D01*
Y02452D01*
X032017Y02042D02*
X032057D01*
X032097Y02046D01*
X032137Y02042D01*
X032177D01*
Y02046D01*
X032137Y0205D01*
X032177Y02054D01*
Y02058D01*
X032137D01*
X032097Y02054D01*
X032057Y02058D01*
X032017D01*
Y02054D01*
X032057Y0205D01*
X032017Y02046D01*
Y02042D01*
X031967Y02367D02*
X032007D01*
X032047Y02371D01*
X032087Y02367D01*
X032127D01*
Y02371D01*
X032087Y02375D01*
X032127Y02379D01*
Y02383D01*
X032087D01*
X032047Y02379D01*
X032007Y02383D01*
X031967D01*
Y02379D01*
X032007Y02375D01*
X031967Y02371D01*
Y02367D01*
X041917Y02562D02*
X041957D01*
X041997Y02566D01*
X042037Y02562D01*
X042077D01*
Y02566D01*
X042037Y0257D01*
X042077Y02574D01*
Y02578D01*
X042037D01*
X041997Y02574D01*
X041957Y02578D01*
X041917D01*
Y02574D01*
X041957Y0257D01*
X041917Y02566D01*
Y02562D01*
X038017Y02042D02*
X038057D01*
X038097Y02046D01*
X038137Y02042D01*
X038177D01*
Y02046D01*
X038137Y0205D01*
X038177Y02054D01*
Y02058D01*
X038137D01*
X038097Y02054D01*
X038057Y02058D01*
X038017D01*
Y02054D01*
X038057Y0205D01*
X038017Y02046D01*
Y02042D01*
X037567Y02447D02*
X037607D01*
X037647Y02451D01*
X037687Y02447D01*
X037727D01*
Y02451D01*
X037687Y02455D01*
X037727Y02459D01*
Y02463D01*
X037687D01*
X037647Y02459D01*
X037607Y02463D01*
X037567D01*
Y02459D01*
X037607Y02455D01*
X037567Y02451D01*
Y02447D01*
X035817Y02042D02*
X035857D01*
X035897Y02046D01*
X035937Y02042D01*
X035977D01*
Y02046D01*
X035937Y0205D01*
X035977Y02054D01*
Y02058D01*
X035937D01*
X035897Y02054D01*
X035857Y02058D01*
X035817D01*
Y02054D01*
X035857Y0205D01*
X035817Y02046D01*
Y02042D01*
X035417Y02447D02*
X035457D01*
X035497Y02451D01*
X035537Y02447D01*
X035577D01*
Y02451D01*
X035537Y02455D01*
X035577Y02459D01*
Y02463D01*
X035537D01*
X035497Y02459D01*
X035457Y02463D01*
X035417D01*
Y02459D01*
X035457Y02455D01*
X035417Y02451D01*
Y02447D01*
D89*
X030605Y02025D02*
G03*
X030605Y02025I-00008J0D01*
G01*
X027849D02*
G03*
X027849Y02025I-00008J0D01*
G01*
M02*
