G04 Layer_Physical_Order=1*
G04 Layer_Color=255*
%FSTAX24Y24*%
%MOIN*%
G70*
G01*
G75*
%ADD10R,0.0630X0.1378*%
%ADD11R,0.0394X0.0550*%
%ADD12R,0.0472X0.0315*%
%ADD13R,0.0591X0.0394*%
%ADD14R,0.0394X0.0886*%
%ADD15R,0.0500X0.0250*%
%ADD16R,0.0250X0.0500*%
%ADD17R,0.0315X0.0500*%
%ADD18R,0.0500X0.0550*%
%ADD19R,0.0591X0.0610*%
%ADD20R,0.0157X0.0532*%
%ADD21R,0.1299X0.0945*%
%ADD22R,0.0394X0.0945*%
G04:AMPARAMS|DCode=23|XSize=216.5mil|YSize=224.4mil|CornerRadius=27.1mil|HoleSize=0mil|Usage=FLASHONLY|Rotation=90.000|XOffset=0mil|YOffset=0mil|HoleType=Round|Shape=RoundedRectangle|*
%AMROUNDEDRECTD23*
21,1,0.2165,0.1703,0,0,90.0*
21,1,0.1624,0.2244,0,0,90.0*
1,1,0.0541,0.0851,0.0812*
1,1,0.0541,0.0851,-0.0812*
1,1,0.0541,-0.0851,-0.0812*
1,1,0.0541,-0.0851,0.0812*
%
%ADD23ROUNDEDRECTD23*%
G04:AMPARAMS|DCode=24|XSize=39.4mil|YSize=78.7mil|CornerRadius=4.9mil|HoleSize=0mil|Usage=FLASHONLY|Rotation=90.000|XOffset=0mil|YOffset=0mil|HoleType=Round|Shape=RoundedRectangle|*
%AMROUNDEDRECTD24*
21,1,0.0394,0.0689,0,0,90.0*
21,1,0.0295,0.0787,0,0,90.0*
1,1,0.0098,0.0344,0.0148*
1,1,0.0098,0.0344,-0.0148*
1,1,0.0098,-0.0344,-0.0148*
1,1,0.0098,-0.0344,0.0148*
%
%ADD24ROUNDEDRECTD24*%
%ADD25R,0.0900X0.0906*%
%ADD26R,0.0630X0.1181*%
%ADD27C,0.0200*%
%ADD28C,0.0300*%
%ADD29C,0.0100*%
%ADD30R,0.0512X0.0512*%
%ADD31C,0.0512*%
%ADD32O,0.0305X0.0610*%
%ADD33O,0.0512X0.0256*%
%ADD34O,0.0634X0.0630*%
%ADD35R,0.0634X0.0630*%
%ADD36C,0.0630*%
%ADD37R,0.0630X0.0630*%
%ADD38R,0.0630X0.0630*%
%ADD39O,0.0787X0.0984*%
%ADD40O,0.0984X0.0787*%
%ADD41C,0.1575*%
%ADD42C,0.0250*%
G36*
X045094Y032646D02*
X045086Y032643D01*
X045078Y032638D01*
X045072Y032631D01*
X045066Y032622D01*
X045062Y032611D01*
X045058Y032597D01*
X045056Y032582D01*
X045054Y032565D01*
X045054Y032546D01*
X044954D01*
X044953Y032565D01*
X044952Y032582D01*
X044949Y032597D01*
X044946Y032611D01*
X044941Y032622D01*
X044936Y032631D01*
X044929Y032638D01*
X044922Y032643D01*
X044913Y032646D01*
X044904Y032647D01*
X045104D01*
X045094Y032646D01*
D02*
G37*
G36*
X044594D02*
X044586Y032643D01*
X044578Y032638D01*
X044572Y032631D01*
X044566Y032622D01*
X044562Y032611D01*
X044558Y032597D01*
X044556Y032582D01*
X044554Y032565D01*
X044554Y032546D01*
X044454D01*
X044453Y032565D01*
X044452Y032582D01*
X044449Y032597D01*
X044446Y032611D01*
X044441Y032622D01*
X044436Y032631D01*
X044429Y032638D01*
X044422Y032643D01*
X044413Y032646D01*
X044404Y032647D01*
X044604D01*
X044594Y032646D01*
D02*
G37*
G36*
X043594D02*
X043586Y032643D01*
X043578Y032638D01*
X043572Y032631D01*
X043566Y032622D01*
X043562Y032611D01*
X043558Y032597D01*
X043556Y032582D01*
X043554Y032565D01*
X043554Y032546D01*
X043454D01*
X043453Y032565D01*
X043452Y032582D01*
X043449Y032597D01*
X043446Y032611D01*
X043441Y032622D01*
X043436Y032631D01*
X043429Y032638D01*
X043422Y032643D01*
X043413Y032646D01*
X043404Y032647D01*
X043604D01*
X043594Y032646D01*
D02*
G37*
G36*
X043094D02*
X043086Y032643D01*
X043078Y032638D01*
X043072Y032631D01*
X043066Y032622D01*
X043062Y032611D01*
X043058Y032597D01*
X043056Y032582D01*
X043054Y032565D01*
X043054Y032546D01*
X042954D01*
X042953Y032565D01*
X042952Y032582D01*
X042949Y032597D01*
X042946Y032611D01*
X042941Y032622D01*
X042936Y032631D01*
X042929Y032638D01*
X042922Y032643D01*
X042913Y032646D01*
X042904Y032647D01*
X043104D01*
X043094Y032646D01*
D02*
G37*
G36*
X046123Y032644D02*
X046119Y032638D01*
X046115Y032628D01*
X046112Y032614D01*
X04611Y032596D01*
X046106Y032548D01*
X046104Y032446D01*
X045904D01*
X045904Y032484D01*
X045895Y032614D01*
X045892Y032628D01*
X045889Y032638D01*
X045884Y032644D01*
X04588Y032646D01*
X046128D01*
X046123Y032644D01*
D02*
G37*
G36*
X045623D02*
X045619Y032638D01*
X045615Y032628D01*
X045612Y032614D01*
X04561Y032596D01*
X045606Y032548D01*
X045604Y032446D01*
X045404D01*
X045404Y032484D01*
X045395Y032614D01*
X045392Y032628D01*
X045389Y032638D01*
X045384Y032644D01*
X04538Y032646D01*
X045628D01*
X045623Y032644D01*
D02*
G37*
G36*
X031808Y032873D02*
X031817Y032848D01*
X031832Y032825D01*
X031853Y032806D01*
X03188Y032789D01*
X031913Y032776D01*
X031952Y032765D01*
X031997Y032758D01*
X032048Y032753D01*
X032105Y032752D01*
Y032452D01*
X032048Y03245D01*
X031997Y032446D01*
X031952Y032438D01*
X031913Y032428D01*
X03188Y032414D01*
X031853Y032398D01*
X031832Y032378D01*
X031817Y032356D01*
X031808Y03233D01*
X031805Y032302D01*
Y032902D01*
X031808Y032873D01*
D02*
G37*
G36*
X03679Y032144D02*
X036787Y032145D01*
X036778Y032146D01*
X036763Y032147D01*
X03649Y03215D01*
Y03245D01*
X03679Y032456D01*
Y032144D01*
D02*
G37*
G36*
X043554Y032171D02*
X043555Y032159D01*
X043557Y032147D01*
X04356Y032137D01*
X043563Y032126D01*
X043567Y032116D01*
X043572Y032107D01*
X043578Y032099D01*
X043584Y03209D01*
X043591Y032083D01*
X043416D01*
X043423Y03209D01*
X04343Y032099D01*
X043435Y032107D01*
X04344Y032116D01*
X043444Y032126D01*
X043448Y032137D01*
X04345Y032147D01*
X043452Y032159D01*
X043453Y032171D01*
X043454Y032183D01*
X043554D01*
X043554Y032171D01*
D02*
G37*
G36*
X030899Y03216D02*
X030894Y032158D01*
X030888Y032153D01*
X030884Y032147D01*
X03088Y03214D01*
X030877Y03213D01*
X030875Y032119D01*
X030873Y032106D01*
X030872Y032092D01*
X030872Y032076D01*
X030772D01*
X030771Y032092D01*
X030769Y032119D01*
X030766Y03213D01*
X030763Y03214D01*
X030759Y032147D01*
X030755Y032153D01*
X03075Y032158D01*
X030744Y03216D01*
X030737Y032161D01*
X030906D01*
X030899Y03216D01*
D02*
G37*
G36*
X030125Y03216D02*
X030116Y032157D01*
X030109Y032152D01*
X030102Y032145D01*
X030097Y032136D01*
X030092Y032125D01*
X030089Y032111D01*
X030086Y032096D01*
X030085Y032079D01*
X030084Y03206D01*
X029984D01*
X029984Y032079D01*
X029982Y032096D01*
X02998Y032111D01*
X029976Y032125D01*
X029972Y032136D01*
X029966Y032145D01*
X02996Y032152D01*
X029952Y032157D01*
X029944Y03216D01*
X029934Y032161D01*
X030134D01*
X030125Y03216D01*
D02*
G37*
G36*
X029337D02*
X029329Y032157D01*
X029321Y032152D01*
X029315Y032145D01*
X029309Y032136D01*
X029305Y032125D01*
X029301Y032111D01*
X029299Y032096D01*
X029297Y032079D01*
X029297Y03206D01*
X029197D01*
X029196Y032079D01*
X029195Y032096D01*
X029192Y032111D01*
X029189Y032125D01*
X029184Y032136D01*
X029179Y032145D01*
X029172Y032152D01*
X029165Y032157D01*
X029156Y03216D01*
X029147Y032161D01*
X029347D01*
X029337Y03216D01*
D02*
G37*
G36*
X027778D02*
X027769Y032157D01*
X027762Y032152D01*
X027755Y032145D01*
X02775Y032136D01*
X027745Y032125D01*
X027742Y032111D01*
X027739Y032096D01*
X027738Y032079D01*
X027737Y03206D01*
X027637D01*
X027637Y032079D01*
X027635Y032096D01*
X027633Y032111D01*
X027629Y032125D01*
X027625Y032136D01*
X027619Y032145D01*
X027613Y032152D01*
X027605Y032157D01*
X027597Y03216D01*
X027587Y032161D01*
X027787D01*
X027778Y03216D01*
D02*
G37*
G36*
X026975D02*
X026967Y032157D01*
X026959Y032152D01*
X026953Y032145D01*
X026947Y032136D01*
X026943Y032125D01*
X026939Y032111D01*
X026937Y032096D01*
X026935Y032079D01*
X026935Y03206D01*
X026835D01*
X026834Y032079D01*
X026833Y032096D01*
X02683Y032111D01*
X026827Y032125D01*
X026822Y032136D01*
X026817Y032145D01*
X02681Y032152D01*
X026803Y032157D01*
X026794Y03216D01*
X026785Y032161D01*
X026985D01*
X026975Y03216D01*
D02*
G37*
G36*
X026188D02*
X026179Y032157D01*
X026172Y032152D01*
X026165Y032145D01*
X02616Y032136D01*
X026155Y032125D01*
X026152Y032111D01*
X026149Y032096D01*
X026148Y032079D01*
X026147Y03206D01*
X026047D01*
X026047Y032079D01*
X026045Y032096D01*
X026043Y032111D01*
X026039Y032125D01*
X026035Y032136D01*
X026029Y032145D01*
X026023Y032152D01*
X026015Y032157D01*
X026007Y03216D01*
X025997Y032161D01*
X026197D01*
X026188Y03216D01*
D02*
G37*
G36*
X028538D02*
X028529Y032157D01*
X028522Y032152D01*
X028515Y032145D01*
X02851Y032136D01*
X028505Y032125D01*
X028503Y032115D01*
X028503Y032113D01*
X028507Y032103D01*
X028511Y032093D01*
X028516Y032084D01*
X028521Y032075D01*
X028528Y032067D01*
X028535Y032059D01*
X02836D01*
X028367Y032067D01*
X028373Y032075D01*
X028379Y032084D01*
X028384Y032093D01*
X028388Y032103D01*
X028391Y032113D01*
X028392Y032115D01*
X028389Y032125D01*
X028385Y032136D01*
X028379Y032145D01*
X028373Y032152D01*
X028365Y032157D01*
X028357Y03216D01*
X028347Y032161D01*
X028547D01*
X028538Y03216D01*
D02*
G37*
G36*
X040847Y031312D02*
X040801Y031292D01*
X040535Y031558D01*
X040486Y031591D01*
X040427Y031603D01*
X040133D01*
X04011Y031659D01*
X040043Y031746D01*
X039957Y031812D01*
X039856Y031854D01*
X039747Y031869D01*
X039639Y031854D01*
X039538Y031812D01*
X039451Y031746D01*
X039385Y031659D01*
X039343Y031558D01*
X039329Y03145D01*
X039343Y031342D01*
X039385Y031241D01*
X039451Y031154D01*
X039538Y031088D01*
X039639Y031046D01*
X039747Y031031D01*
X039856Y031046D01*
X039957Y031088D01*
X040043Y031154D01*
X04011Y031241D01*
X040133Y031297D01*
X040364D01*
X040704Y030957D01*
Y02775D01*
X040716Y027691D01*
X040749Y027642D01*
X040847Y027544D01*
Y027042D01*
X040801Y027022D01*
X03943Y028393D01*
Y030035D01*
X040162D01*
Y030865D01*
X03943D01*
Y03097D01*
X039419Y031029D01*
X039385Y031078D01*
X039143Y031321D01*
X039152Y031342D01*
X039166Y03145D01*
X039152Y031558D01*
X03911Y031659D01*
X039043Y031746D01*
X038957Y031812D01*
X038856Y031854D01*
X038747Y031869D01*
X038639Y031854D01*
X038538Y031812D01*
X038451Y031746D01*
X038385Y031659D01*
X038343Y031558D01*
X038329Y03145D01*
X038343Y031342D01*
X038385Y031241D01*
X038451Y031154D01*
X038538Y031088D01*
X038639Y031046D01*
X038747Y031031D01*
X038856Y031046D01*
X038947Y031084D01*
X039124Y030907D01*
Y030722D01*
X039074Y030705D01*
X039043Y030746D01*
X038957Y030812D01*
X038856Y030854D01*
X038747Y030869D01*
X038639Y030854D01*
X038538Y030812D01*
X038451Y030746D01*
X038385Y030659D01*
X038343Y030558D01*
X038329Y03045D01*
X038343Y030342D01*
X038385Y030241D01*
X038451Y030154D01*
X038538Y030088D01*
X038639Y030046D01*
X038747Y030031D01*
X038856Y030046D01*
X038957Y030088D01*
X039043Y030154D01*
X039074Y030195D01*
X039124Y030178D01*
Y02833D01*
X039136Y028271D01*
X039169Y028222D01*
X040847Y026544D01*
Y02585D01*
X041744D01*
X041767Y025806D01*
X041762Y025798D01*
X041742Y0257D01*
X041762Y025602D01*
X041817Y02552D01*
X0419Y025464D01*
X041997Y025445D01*
X042242D01*
X042299Y025388D01*
Y025299D01*
X042209D01*
X042151Y025288D01*
X042102Y025255D01*
X042069Y025205D01*
X042057Y025147D01*
Y024852D01*
X042069Y024794D01*
X042102Y024744D01*
X042151Y024711D01*
X042209Y0247D01*
X042898D01*
X042957Y024711D01*
X043006Y024744D01*
X043006Y024745D01*
X043192D01*
X043587Y02435D01*
Y023114D01*
X043545D01*
Y021969D01*
X044139D01*
Y023114D01*
X044097D01*
Y024456D01*
X044077Y024553D01*
X044022Y024636D01*
X043478Y02518D01*
X043395Y025235D01*
X043298Y025254D01*
X043006D01*
X043006Y025255D01*
X042957Y025288D01*
X042898Y025299D01*
X042809D01*
Y025493D01*
X042789Y025591D01*
X042734Y025674D01*
X042604Y025804D01*
X042623Y02585D01*
X045974D01*
X046004Y025844D01*
X046033Y02585D01*
X046233D01*
Y025724D01*
X045253Y024744D01*
X045209Y024678D01*
X045193Y0246D01*
Y023555D01*
X044897D01*
X0448Y023535D01*
X044717Y02348D01*
X044567Y02333D01*
X044512Y023248D01*
X044492Y02315D01*
Y023114D01*
X04445D01*
Y021969D01*
X044492D01*
Y021756D01*
X044392Y021655D01*
X042053D01*
X041777Y02193D01*
X041695Y021985D01*
X041597Y022005D01*
X040097D01*
X04Y021985D01*
X039917Y02193D01*
X039717Y02173D01*
X039662Y021648D01*
X039642Y02155D01*
Y021375D01*
X0396D01*
Y021255D01*
X038597D01*
X0385Y021235D01*
X038417Y02118D01*
X037908Y020672D01*
X037862Y020691D01*
Y021024D01*
X037032D01*
Y019653D01*
X035612D01*
Y020079D01*
X035731D01*
X035829Y020098D01*
X035911Y020154D01*
X036077Y02032D01*
X036133Y020402D01*
X036152Y0205D01*
X036133Y020598D01*
X036077Y02068D01*
X035995Y020735D01*
X035897Y020755D01*
X0358Y020735D01*
X035717Y02068D01*
X035662Y020625D01*
X035612Y020646D01*
Y021024D01*
X034782D01*
Y020791D01*
X034736Y020772D01*
X033727Y02178D01*
X033645Y021835D01*
X033547Y021855D01*
X033159D01*
X033112Y021863D01*
X033112Y021905D01*
Y022602D01*
X032697D01*
X032282D01*
Y021905D01*
X032282Y021863D01*
X032236Y021855D01*
X032203D01*
X031077Y02298D01*
X031006Y023028D01*
X030991Y023083D01*
X031403Y023495D01*
X037192D01*
X037893Y022794D01*
X037859Y022757D01*
X037813Y022757D01*
X037497D01*
Y022116D01*
X037862D01*
Y022707D01*
X037862Y022754D01*
X0379Y022787D01*
X038367Y02232D01*
X03845Y022264D01*
X038547Y022245D01*
X040847D01*
X040945Y022264D01*
X041027Y02232D01*
X041653Y022945D01*
X042102D01*
X042102Y022945D01*
X042151Y022912D01*
X042209Y022901D01*
X042898D01*
X042957Y022912D01*
X043006Y022945D01*
X043039Y022995D01*
X043051Y023053D01*
Y023348D01*
X043039Y023406D01*
X043006Y023456D01*
X042957Y023489D01*
X042898Y0235D01*
X042209D01*
X042151Y023489D01*
X042102Y023456D01*
X042102Y023455D01*
X041548D01*
X04145Y023436D01*
X041367Y023381D01*
X040742Y022755D01*
X038653D01*
X037477Y02393D01*
X037395Y023986D01*
X037297Y024005D01*
X033155D01*
Y024175D01*
X03325D01*
Y024925D01*
X03255D01*
Y024175D01*
X032645D01*
Y024005D01*
X031297D01*
X0312Y023986D01*
X031117Y02393D01*
X030642Y023455D01*
X027997D01*
Y023671D01*
X028085Y023688D01*
X028159Y023738D01*
X028209Y023812D01*
X028227Y0239D01*
X028225Y023908D01*
X028225Y023908D01*
X028226Y02391D01*
X028227Y023912D01*
X028229Y023915D01*
X02823Y023917D01*
X029311Y024997D01*
X030147D01*
X030206Y025009D01*
X030255Y025042D01*
X030864Y02565D01*
X032947D01*
Y02684D01*
X032977Y02687D01*
X033033Y026952D01*
X033052Y02705D01*
Y028906D01*
X033102Y028911D01*
X033106Y028891D01*
X033139Y028842D01*
X033494Y028487D01*
Y028327D01*
X033494Y028324D01*
X033493Y028321D01*
X033492Y028319D01*
X033492Y028317D01*
X033491Y028316D01*
X033485Y028312D01*
X033435Y028238D01*
X033418Y02815D01*
X033435Y028062D01*
X033485Y027988D01*
X033559Y027938D01*
X033647Y027921D01*
X033735Y027938D01*
X033809Y027988D01*
X033859Y028062D01*
X033877Y02815D01*
X033859Y028238D01*
X033809Y028312D01*
X033803Y028316D01*
X033803Y028317D01*
X033802Y028319D01*
X033801Y028321D01*
X033801Y028324D01*
X0338Y028327D01*
Y028415D01*
X033846Y028435D01*
X034144Y028137D01*
X034194Y028104D01*
X034252Y028092D01*
X0345D01*
Y02787D01*
X035094D01*
Y028029D01*
X035138Y028052D01*
X035159Y028038D01*
X035247Y028021D01*
X035335Y028038D01*
X035356Y028052D01*
X0354Y028029D01*
Y02787D01*
X035442D01*
Y027703D01*
X0354D01*
Y027541D01*
X03535Y027514D01*
X035313Y027539D01*
X035225Y027557D01*
X035144Y027541D01*
X035106Y027556D01*
X035094Y027562D01*
Y027703D01*
X0345D01*
Y02748D01*
X033575D01*
X033516Y027469D01*
X033467Y027436D01*
X033414Y027383D01*
X033412Y027382D01*
X033409Y02738D01*
X033407Y027379D01*
X033405Y027378D01*
X033405Y027378D01*
X033397Y027379D01*
X033309Y027362D01*
X033235Y027312D01*
X033185Y027238D01*
X033168Y02715D01*
X033185Y027062D01*
X033235Y026988D01*
X033309Y026938D01*
X033397Y026921D01*
X033485Y026938D01*
X033559Y026988D01*
X033609Y027062D01*
X033627Y02715D01*
X033669Y027175D01*
X0345D01*
Y026953D01*
X035094D01*
Y027093D01*
X035106Y027099D01*
X035144Y027114D01*
X035225Y027098D01*
X035313Y027116D01*
X03535Y027141D01*
X0354Y027114D01*
Y026953D01*
X035442D01*
Y026775D01*
X0354D01*
Y026025D01*
X035994D01*
Y026145D01*
X036242D01*
X036795Y025592D01*
Y024925D01*
X0367D01*
Y024175D01*
X0374D01*
Y024295D01*
X037647D01*
X037745Y024314D01*
X037827Y02437D01*
X037883Y024452D01*
X037902Y02455D01*
X037883Y024648D01*
X037827Y02473D01*
X037745Y024785D01*
X037647Y024805D01*
X0374D01*
Y024925D01*
X037305D01*
Y025697D01*
X037285Y025795D01*
X03723Y025877D01*
X036527Y02658D01*
X036445Y026636D01*
X036347Y026655D01*
X035994D01*
Y026775D01*
X035952D01*
Y026953D01*
X035994D01*
Y027703D01*
X035952D01*
Y02787D01*
X035994D01*
Y02862D01*
X035952D01*
Y028798D01*
X035994D01*
Y028895D01*
X036147D01*
X036245Y028914D01*
X036327Y02897D01*
X036383Y029052D01*
X036402Y02915D01*
X036383Y029248D01*
X036327Y02933D01*
X036245Y029385D01*
X036147Y029405D01*
X035994D01*
Y029548D01*
X0354D01*
Y028798D01*
X035442D01*
Y02862D01*
X0354D01*
Y028471D01*
X035356Y028448D01*
X035335Y028462D01*
X035247Y028479D01*
X035159Y028462D01*
X035138Y028448D01*
X035094Y028471D01*
Y02862D01*
X0345D01*
Y028398D01*
X034316D01*
X03375Y028963D01*
Y029115D01*
X033796Y029135D01*
X033867Y029064D01*
X033916Y029031D01*
X033975Y02902D01*
X0345D01*
Y028798D01*
X035094D01*
Y029548D01*
X0345D01*
Y029325D01*
X034038D01*
X03395Y029413D01*
Y029533D01*
X033939Y029591D01*
X033905Y029641D01*
X0335Y030046D01*
Y030615D01*
X033546Y030635D01*
X034189Y029992D01*
X034239Y029959D01*
X034297Y029947D01*
X0345D01*
Y029725D01*
X035094D01*
Y030475D01*
X0345D01*
Y030253D01*
X034361D01*
X03375Y030863D01*
Y03135D01*
X033739Y031409D01*
X033705Y031458D01*
X03314Y032023D01*
X033091Y032056D01*
X033032Y032068D01*
X032947D01*
Y03236D01*
X032977Y032366D01*
X03306Y032421D01*
X033363Y032725D01*
X034662D01*
X035267Y03212D01*
X03535Y032064D01*
X035447Y032045D01*
X036689D01*
Y032043D01*
X036786D01*
X03679Y032042D01*
X036791Y032042D01*
X036792Y032042D01*
X036795Y032043D01*
X036975D01*
Y0323D01*
Y032557D01*
X036794D01*
X03679Y032558D01*
X036789Y032558D01*
X036788Y032558D01*
X036753Y032557D01*
X036689D01*
Y032556D01*
X036629Y032555D01*
X035553D01*
X035027Y03308D01*
X035046Y033127D01*
X040847D01*
Y031312D01*
D02*
G37*
G36*
X043054Y031961D02*
X043055Y031949D01*
X043057Y031937D01*
X04306Y031927D01*
X043063Y031916D01*
X043067Y031906D01*
X043072Y031897D01*
X043078Y031889D01*
X043084Y03188D01*
X043091Y031873D01*
X042916D01*
X042923Y03188D01*
X04293Y031889D01*
X042935Y031897D01*
X04294Y031906D01*
X042944Y031916D01*
X042948Y031927D01*
X04295Y031937D01*
X042952Y031949D01*
X042953Y031961D01*
X042954Y031973D01*
X043054D01*
X043054Y031961D01*
D02*
G37*
G36*
X027738Y031907D02*
X027739Y031895D01*
X027741Y031884D01*
X027743Y031873D01*
X027747Y031863D01*
X027751Y031853D01*
X027756Y031844D01*
X027761Y031835D01*
X027768Y031827D01*
X027775Y031819D01*
X0276D01*
X027607Y031827D01*
X027613Y031835D01*
X027619Y031844D01*
X027624Y031853D01*
X027628Y031863D01*
X027631Y031873D01*
X027634Y031884D01*
X027636Y031895D01*
X027637Y031907D01*
X027637Y03192D01*
X027737D01*
X027738Y031907D01*
D02*
G37*
G36*
X026935Y031627D02*
X026936Y031615D01*
X026938Y031604D01*
X026941Y031593D01*
X026944Y031583D01*
X026948Y031573D01*
X026953Y031564D01*
X026959Y031555D01*
X026965Y031547D01*
X026972Y031539D01*
X026797D01*
X026804Y031547D01*
X026811Y031555D01*
X026816Y031564D01*
X026821Y031573D01*
X026825Y031583D01*
X026829Y031593D01*
X026831Y031604D01*
X026833Y031615D01*
X026834Y031627D01*
X026835Y03164D01*
X026935D01*
X026935Y031627D01*
D02*
G37*
G36*
X026965Y031353D02*
X026959Y031345D01*
X026953Y031336D01*
X026948Y031327D01*
X026944Y031317D01*
X026941Y031307D01*
X026938Y031296D01*
X026936Y031285D01*
X026935Y031273D01*
X026935Y03126D01*
X026835D01*
X026834Y031273D01*
X026833Y031285D01*
X026831Y031296D01*
X026829Y031307D01*
X026825Y031317D01*
X026821Y031327D01*
X026816Y031336D01*
X026811Y031345D01*
X026804Y031353D01*
X026797Y031361D01*
X026972D01*
X026965Y031353D01*
D02*
G37*
G36*
X026148Y031287D02*
X026149Y031275D01*
X026151Y031264D01*
X026153Y031253D01*
X026157Y031243D01*
X026161Y031233D01*
X026166Y031224D01*
X026171Y031215D01*
X026178Y031207D01*
X026185Y031199D01*
X02601D01*
X026017Y031207D01*
X026023Y031215D01*
X026029Y031224D01*
X026034Y031233D01*
X026038Y031243D01*
X026041Y031253D01*
X026044Y031264D01*
X026046Y031275D01*
X026047Y031287D01*
X026047Y0313D01*
X026147D01*
X026148Y031287D01*
D02*
G37*
G36*
X026178Y031013D02*
X026171Y031005D01*
X026166Y030996D01*
X026161Y030987D01*
X026157Y030977D01*
X026153Y030967D01*
X026151Y030956D01*
X026149Y030945D01*
X026148Y030933D01*
X026147Y03092D01*
X026047D01*
X026047Y030933D01*
X026046Y030945D01*
X026044Y030956D01*
X026041Y030967D01*
X026038Y030977D01*
X026034Y030987D01*
X026029Y030996D01*
X026023Y031005D01*
X026017Y031013D01*
X02601Y031021D01*
X026185D01*
X026178Y031013D01*
D02*
G37*
G36*
X042774Y031033D02*
X042672Y030904D01*
X042671Y030911D01*
X042669Y030918D01*
X042665Y030924D01*
X04266Y030929D01*
X042654Y030933D01*
X042646Y030937D01*
X042637Y030939D01*
X042627Y030941D01*
X042615Y030943D01*
X042602Y030943D01*
X042629Y031043D01*
X042774Y031033D01*
D02*
G37*
G36*
X041748Y031084D02*
X041751Y031075D01*
X041756Y031068D01*
X041764Y031061D01*
X041773Y031056D01*
X041784Y031051D01*
X041797Y031047D01*
X041812Y031045D01*
X041829Y031044D01*
X041849Y031043D01*
Y030943D01*
X041829Y030942D01*
X041812Y030941D01*
X041797Y030938D01*
X041784Y030935D01*
X041773Y030931D01*
X041764Y030925D01*
X041756Y030919D01*
X041751Y030911D01*
X041748Y030903D01*
X041747Y030893D01*
Y031093D01*
X041748Y031084D01*
D02*
G37*
G36*
Y030584D02*
X041751Y030575D01*
X041756Y030568D01*
X041764Y030561D01*
X041773Y030556D01*
X041784Y030551D01*
X041797Y030547D01*
X041812Y030545D01*
X041829Y030543D01*
X041849Y030543D01*
Y030443D01*
X041829Y030443D01*
X041812Y030441D01*
X041797Y030438D01*
X041784Y030435D01*
X041773Y030431D01*
X041764Y030425D01*
X041756Y030419D01*
X041751Y030411D01*
X041748Y030403D01*
X041747Y030393D01*
Y030593D01*
X041748Y030584D01*
D02*
G37*
G36*
X042238Y030411D02*
X042247Y030403D01*
X042256Y030397D01*
X042266Y030391D01*
X042275Y030386D01*
X042285Y030382D01*
X042295Y030379D01*
X042305Y030377D01*
X042316Y030375D01*
X042326Y030375D01*
X042202Y030251D01*
X042202Y030262D01*
X042201Y030272D01*
X042198Y030282D01*
X042195Y030292D01*
X042191Y030302D01*
X042187Y030312D01*
X042181Y030321D01*
X042174Y03033D01*
X042166Y03034D01*
X042158Y030349D01*
X042229Y030419D01*
X042238Y030411D01*
D02*
G37*
G36*
X034603Y03D02*
X034602Y03001D01*
X034599Y030018D01*
X034594Y030025D01*
X034587Y030032D01*
X034578Y030038D01*
X034566Y030042D01*
X034553Y030045D01*
X034538Y030048D01*
X034521Y03005D01*
X034502Y03005D01*
Y03015D01*
X034521Y03015D01*
X034538Y030152D01*
X034553Y030155D01*
X034566Y030158D01*
X034578Y030162D01*
X034587Y030168D01*
X034594Y030175D01*
X034599Y030182D01*
X034602Y03019D01*
X034603Y0302D01*
Y03D01*
D02*
G37*
G36*
X033336Y029262D02*
X033328Y029254D01*
X033322Y029246D01*
X033316Y029238D01*
X033311Y029228D01*
X033307Y029219D01*
X033303Y029209D01*
X033301Y029198D01*
X033299Y029186D01*
X033298Y029174D01*
X033297Y029162D01*
X033197Y029164D01*
X033197Y029177D01*
X033196Y029189D01*
X033194Y0292D01*
X033191Y029211D01*
X033188Y029221D01*
X033184Y029231D01*
X033179Y029241D01*
X033174Y029249D01*
X033168Y029258D01*
X033161Y029265D01*
X033336Y029262D01*
D02*
G37*
G36*
X034603Y029072D02*
X034602Y029082D01*
X034599Y02909D01*
X034594Y029098D01*
X034587Y029104D01*
X034578Y02911D01*
X034566Y029114D01*
X034553Y029118D01*
X034538Y029121D01*
X034521Y029122D01*
X034502Y029123D01*
Y029223D01*
X034521Y029223D01*
X034538Y029225D01*
X034553Y029227D01*
X034566Y02923D01*
X034578Y029235D01*
X034587Y029241D01*
X034594Y029247D01*
X034599Y029255D01*
X034602Y029263D01*
X034603Y029272D01*
Y029072D01*
D02*
G37*
G36*
X033698Y028327D02*
X033699Y028315D01*
X033701Y028304D01*
X033703Y028293D01*
X033707Y028283D01*
X033711Y028273D01*
X033716Y028264D01*
X033721Y028255D01*
X033728Y028247D01*
X033735Y028239D01*
X03356D01*
X033567Y028247D01*
X033573Y028255D01*
X033579Y028264D01*
X033584Y028273D01*
X033588Y028283D01*
X033591Y028293D01*
X033594Y028304D01*
X033596Y028315D01*
X033597Y028327D01*
X033597Y02834D01*
X033697D01*
X033698Y028327D01*
D02*
G37*
G36*
X034993Y02834D02*
X034996Y028332D01*
X035001Y028324D01*
X035008Y028318D01*
X035017Y028312D01*
X035028Y028308D01*
X035041Y028305D01*
X035056Y028302D01*
X035073Y028301D01*
X035082Y028301D01*
X035093Y028303D01*
X035104Y028306D01*
X035115Y028309D01*
X035124Y028314D01*
X035134Y028318D01*
X035142Y028324D01*
X03515Y02833D01*
X035158Y028338D01*
Y028163D01*
X03515Y02817D01*
X035142Y028176D01*
X035134Y028182D01*
X035124Y028187D01*
X035115Y028191D01*
X035104Y028194D01*
X035093Y028197D01*
X035082Y028198D01*
X035073Y028199D01*
X035056Y028198D01*
X035041Y028196D01*
X035028Y028192D01*
X035017Y028187D01*
X035008Y028182D01*
X035001Y028175D01*
X034996Y028168D01*
X034993Y028159D01*
X034992Y02815D01*
Y02835D01*
X034993Y02834D01*
D02*
G37*
G36*
X034603Y028145D02*
X034602Y028154D01*
X034599Y028163D01*
X034594Y02817D01*
X034587Y028177D01*
X034578Y028182D01*
X034566Y028187D01*
X034553Y028191D01*
X034538Y028193D01*
X034521Y028194D01*
X034502Y028195D01*
Y028295D01*
X034521Y028296D01*
X034538Y028297D01*
X034553Y0283D01*
X034566Y028303D01*
X034578Y028307D01*
X034587Y028313D01*
X034594Y028319D01*
X034599Y028327D01*
X034602Y028335D01*
X034603Y028345D01*
Y028145D01*
D02*
G37*
G36*
X043337Y028109D02*
X043328Y0281D01*
X04332Y02809D01*
X043314Y028081D01*
X043308Y028072D01*
X043303Y028062D01*
X043299Y028052D01*
X043296Y028042D01*
X043294Y028032D01*
X043293Y028022D01*
X043292Y028011D01*
X043168Y028135D01*
X043179Y028135D01*
X043189Y028137D01*
X043199Y028139D01*
X043209Y028142D01*
X043219Y028146D01*
X043229Y028151D01*
X043238Y028157D01*
X043248Y028163D01*
X043257Y028171D01*
X043266Y028179D01*
X043337Y028109D01*
D02*
G37*
G36*
X043813Y027805D02*
X043804Y027796D01*
X043797Y027786D01*
X04379Y027777D01*
X043785Y027767D01*
X043781Y027758D01*
X043778Y027748D01*
X043777Y027739D01*
X043776Y027729D01*
X043777Y027719D01*
X043779Y02771D01*
X04363Y027802D01*
X04364Y027805D01*
X04365Y027808D01*
X043659Y027812D01*
X043669Y027816D01*
X043678Y027821D01*
X043688Y027827D01*
X043697Y027834D01*
X043715Y027849D01*
X043724Y027857D01*
X043813Y027805D01*
D02*
G37*
G36*
X034993Y027418D02*
X034996Y02741D01*
X035001Y027402D01*
X035008Y027396D01*
X035017Y02739D01*
X035028Y027385D01*
X035041Y027382D01*
X035056Y02738D01*
X03506Y027379D01*
X035071Y027381D01*
X035082Y027383D01*
X035092Y027387D01*
X035102Y027391D01*
X035111Y027396D01*
X03512Y027401D01*
X035128Y027408D01*
X035135Y027415D01*
Y02724D01*
X035128Y027247D01*
X03512Y027253D01*
X035111Y027259D01*
X035102Y027264D01*
X035092Y027268D01*
X035082Y027271D01*
X035071Y027274D01*
X03506Y027276D01*
X035056Y027276D01*
X035041Y027273D01*
X035028Y027269D01*
X035017Y027265D01*
X035008Y02726D01*
X035001Y027253D01*
X034996Y027246D01*
X034993Y027237D01*
X034992Y027227D01*
Y027427D01*
X034993Y027418D01*
D02*
G37*
G36*
X034603Y027227D02*
X034602Y027237D01*
X034599Y027246D01*
X034594Y027253D01*
X034587Y02726D01*
X034577Y027265D01*
X034566Y027269D01*
X034553Y027273D01*
X034538Y027276D01*
X034521Y027277D01*
X034502Y027278D01*
Y027378D01*
X034521Y027378D01*
X034538Y02738D01*
X034553Y027382D01*
X034566Y027385D01*
X034577Y02739D01*
X034587Y027396D01*
X034594Y027402D01*
X034599Y02741D01*
X034602Y027418D01*
X034603Y027427D01*
Y027227D01*
D02*
G37*
G36*
X033567Y027249D02*
X033558Y02724D01*
X03355Y02723D01*
X033544Y027221D01*
X033538Y027212D01*
X033533Y027202D01*
X033529Y027192D01*
X033526Y027182D01*
X033524Y027172D01*
X033523Y027162D01*
X033522Y027151D01*
X033398Y027275D01*
X033409Y027275D01*
X033419Y027277D01*
X033429Y027279D01*
X033439Y027282D01*
X033449Y027286D01*
X033459Y027291D01*
X033468Y027297D01*
X033478Y027303D01*
X033487Y027311D01*
X033496Y027319D01*
X033567Y027249D01*
D02*
G37*
G36*
X030902Y027179D02*
X030896Y027171D01*
X03089Y027162D01*
X030885Y027153D01*
X030881Y027143D01*
X030878Y027133D01*
X030875Y027122D01*
X030873Y02711D01*
X030873Y02711D01*
X030874Y027103D01*
X030876Y027088D01*
X03088Y027075D01*
X030884Y027063D01*
X03089Y027054D01*
X030896Y027047D01*
X030904Y027042D01*
X030912Y027039D01*
X030922Y027038D01*
X030722D01*
X030731Y027039D01*
X03074Y027042D01*
X030747Y027047D01*
X030754Y027054D01*
X030759Y027063D01*
X030764Y027075D01*
X030767Y027088D01*
X03077Y027103D01*
X03077Y02711D01*
X03077Y02711D01*
X030768Y027122D01*
X030766Y027133D01*
X030762Y027143D01*
X030758Y027153D01*
X030753Y027162D01*
X030748Y027171D01*
X030741Y027179D01*
X030734Y027186D01*
X030909D01*
X030902Y027179D01*
D02*
G37*
G36*
X030115Y027166D02*
X030108Y027158D01*
X030103Y027149D01*
X030098Y02714D01*
X030094Y02713D01*
X03009Y02712D01*
X030088Y027109D01*
X030086Y027102D01*
X030089Y027088D01*
X030092Y027075D01*
X030097Y027063D01*
X030102Y027054D01*
X030109Y027047D01*
X030116Y027042D01*
X030125Y027039D01*
X030134Y027038D01*
X029934D01*
X029944Y027039D01*
X029952Y027042D01*
X02996Y027047D01*
X029966Y027054D01*
X029972Y027063D01*
X029976Y027075D01*
X02998Y027088D01*
X029982Y027102D01*
X029981Y027109D01*
X029978Y02712D01*
X029975Y02713D01*
X029971Y02714D01*
X029966Y027149D01*
X02996Y027158D01*
X029954Y027166D01*
X029947Y027174D01*
X030122D01*
X030115Y027166D01*
D02*
G37*
G36*
X029327Y027154D02*
X029321Y027145D01*
X029315Y027137D01*
X02931Y027127D01*
X029306Y027118D01*
X029303Y027107D01*
X0293Y027097D01*
X0293Y027096D01*
X029301Y027088D01*
X029305Y027075D01*
X029309Y027063D01*
X029315Y027054D01*
X029321Y027047D01*
X029329Y027042D01*
X029337Y027039D01*
X029347Y027038D01*
X029147D01*
X029156Y027039D01*
X029165Y027042D01*
X029172Y027047D01*
X029179Y027054D01*
X029184Y027063D01*
X029189Y027075D01*
X029192Y027088D01*
X029194Y027096D01*
X029193Y027097D01*
X029191Y027107D01*
X029187Y027118D01*
X029183Y027127D01*
X029178Y027137D01*
X029173Y027145D01*
X029166Y027154D01*
X029159Y027161D01*
X029334D01*
X029327Y027154D01*
D02*
G37*
G36*
X02854Y027191D02*
X028533Y027183D01*
X028528Y027174D01*
X028523Y027165D01*
X028519Y027155D01*
X028515Y027145D01*
X028513Y027134D01*
X028511Y027123D01*
X02851Y027116D01*
X028511Y027103D01*
X028514Y027088D01*
X028517Y027075D01*
X028522Y027063D01*
X028527Y027054D01*
X028534Y027047D01*
X028541Y027042D01*
X02855Y027039D01*
X028559Y027038D01*
X028359D01*
X028369Y027039D01*
X028377Y027042D01*
X028385Y027047D01*
X028391Y027054D01*
X028397Y027063D01*
X028401Y027075D01*
X028405Y027088D01*
X028407Y027103D01*
X028409Y027116D01*
X028408Y027123D01*
X028406Y027134D01*
X028403Y027145D01*
X0284Y027155D01*
X028396Y027165D01*
X028391Y027174D01*
X028385Y027183D01*
X028379Y027191D01*
X028372Y027199D01*
X028547D01*
X02854Y027191D01*
D02*
G37*
G36*
X044054Y026925D02*
X044056Y026908D01*
X044058Y026893D01*
X044062Y026879D01*
X044066Y026868D01*
X044072Y026859D01*
X044078Y026852D01*
X044086Y026847D01*
X044094Y026844D01*
X044104Y026843D01*
X043904D01*
X043913Y026844D01*
X043922Y026847D01*
X043929Y026852D01*
X043936Y026859D01*
X043941Y026868D01*
X043946Y026879D01*
X043949Y026893D01*
X043952Y026908D01*
X043953Y026925D01*
X043954Y026944D01*
X044054D01*
X044054Y026925D01*
D02*
G37*
G36*
X031808Y026869D02*
X031817Y026844D01*
X031832Y026821D01*
X031853Y026802D01*
X03188Y026785D01*
X031913Y026772D01*
X031952Y026761D01*
X031997Y026754D01*
X032048Y026749D01*
X032105Y026748D01*
Y026448D01*
X032048Y026446D01*
X031997Y026442D01*
X031952Y026434D01*
X031913Y026424D01*
X03188Y02641D01*
X031853Y026394D01*
X031832Y026374D01*
X031817Y026352D01*
X031808Y026326D01*
X031805Y026298D01*
Y026898D01*
X031808Y026869D01*
D02*
G37*
G36*
X044594Y026347D02*
X044586Y026344D01*
X044578Y026339D01*
X044572Y026332D01*
X044566Y026323D01*
X044562Y026311D01*
X044558Y026298D01*
X044556Y026283D01*
X044554Y026266D01*
X044554Y026247D01*
X044454D01*
X044453Y026266D01*
X044452Y026283D01*
X044449Y026298D01*
X044446Y026311D01*
X044441Y026323D01*
X044436Y026332D01*
X044429Y026339D01*
X044422Y026344D01*
X044413Y026347D01*
X044404Y026348D01*
X044604D01*
X044594Y026347D01*
D02*
G37*
G36*
X046094D02*
X046086Y026344D01*
X046078Y026339D01*
X046072Y026332D01*
X046066Y026323D01*
X046062Y026311D01*
X046058Y026298D01*
X046056Y026283D01*
X046054Y026266D01*
X046054Y026255D01*
X046054Y026251D01*
X046055Y026239D01*
X046057Y026227D01*
X04606Y026217D01*
X046063Y026206D01*
X046067Y026196D01*
X046072Y026187D01*
X046078Y026179D01*
X046084Y02617D01*
X046091Y026163D01*
X045916D01*
X045923Y02617D01*
X04593Y026179D01*
X045935Y026187D01*
X04594Y026196D01*
X045944Y026206D01*
X045948Y026217D01*
X04595Y026227D01*
X045952Y026239D01*
X045953Y026251D01*
X045954Y026255D01*
X045953Y026266D01*
X045952Y026283D01*
X045949Y026298D01*
X045946Y026311D01*
X045941Y026323D01*
X045936Y026332D01*
X045929Y026339D01*
X045922Y026344D01*
X045913Y026347D01*
X045904Y026348D01*
X046104D01*
X046094Y026347D01*
D02*
G37*
G36*
X030912Y026156D02*
X030904Y026153D01*
X030896Y026148D01*
X03089Y026141D01*
X030884Y026132D01*
X03088Y026121D01*
X030876Y026108D01*
X030874Y026092D01*
X030872Y026075D01*
X030872Y026056D01*
X030772D01*
X030771Y026075D01*
X03077Y026092D01*
X030767Y026108D01*
X030764Y026121D01*
X030759Y026132D01*
X030754Y026141D01*
X030747Y026148D01*
X03074Y026153D01*
X030731Y026156D01*
X030722Y026157D01*
X030922D01*
X030912Y026156D01*
D02*
G37*
G36*
X030125D02*
X030116Y026153D01*
X030109Y026148D01*
X030102Y026141D01*
X030097Y026132D01*
X030092Y026121D01*
X030089Y026108D01*
X030086Y026092D01*
X030085Y026075D01*
X030084Y026056D01*
X029984D01*
X029984Y026075D01*
X029982Y026092D01*
X02998Y026108D01*
X029976Y026121D01*
X029972Y026132D01*
X029966Y026141D01*
X02996Y026148D01*
X029952Y026153D01*
X029944Y026156D01*
X029934Y026157D01*
X030134D01*
X030125Y026156D01*
D02*
G37*
G36*
X02855D02*
X028541Y026153D01*
X028534Y026148D01*
X028527Y026141D01*
X028522Y026132D01*
X028517Y026121D01*
X028514Y026108D01*
X028511Y026092D01*
X02851Y026075D01*
X028509Y026056D01*
X028409D01*
X028409Y026075D01*
X028407Y026092D01*
X028405Y026108D01*
X028401Y026121D01*
X028397Y026132D01*
X028391Y026141D01*
X028385Y026148D01*
X028377Y026153D01*
X028369Y026156D01*
X028359Y026157D01*
X028559D01*
X02855Y026156D01*
D02*
G37*
G36*
X027763D02*
X027754Y026153D01*
X027747Y026148D01*
X02774Y026141D01*
X027735Y026132D01*
X02773Y026121D01*
X027727Y026108D01*
X027724Y026092D01*
X027723Y026075D01*
X027722Y026056D01*
X027622D01*
X027622Y026075D01*
X02762Y026092D01*
X027618Y026108D01*
X027614Y026121D01*
X02761Y026132D01*
X027604Y026141D01*
X027598Y026148D01*
X02759Y026153D01*
X027582Y026156D01*
X027572Y026157D01*
X027772D01*
X027763Y026156D01*
D02*
G37*
G36*
X026188D02*
X026179Y026153D01*
X026172Y026148D01*
X026165Y026141D01*
X02616Y026132D01*
X026155Y026121D01*
X026153Y026111D01*
X026154Y026105D01*
X026158Y026096D01*
X026163Y026088D01*
X026169Y026081D01*
X026176Y026076D01*
X026183Y026071D01*
X026192Y026067D01*
X026031Y025997D01*
X026034Y026005D01*
X026037Y026014D01*
X026042Y026032D01*
X026043Y026042D01*
X026046Y026064D01*
X026047Y026077D01*
X026045Y026092D01*
X026043Y026108D01*
X026039Y026121D01*
X026035Y026132D01*
X026029Y026141D01*
X026023Y026148D01*
X026015Y026153D01*
X026007Y026156D01*
X025997Y026157D01*
X026197D01*
X026188Y026156D01*
D02*
G37*
G36*
X027722Y026002D02*
X027724Y02599D01*
X027725Y025979D01*
X027728Y025968D01*
X027731Y025958D01*
X027736Y025948D01*
X02774Y025939D01*
X027746Y02593D01*
X027752Y025922D01*
X02776Y025914D01*
X027585D01*
X027592Y025922D01*
X027598Y02593D01*
X027604Y025939D01*
X027609Y025948D01*
X027613Y025958D01*
X027616Y025968D01*
X027619Y025979D01*
X027621Y02599D01*
X027622Y026002D01*
X027622Y026014D01*
X027722D01*
X027722Y026002D01*
D02*
G37*
G36*
X028202Y025604D02*
X026351Y023753D01*
X025297D01*
Y023455D01*
X024953D01*
X024168Y02424D01*
X024085Y024295D01*
X023987Y024315D01*
X023532D01*
X023493Y024407D01*
X023414Y02451D01*
X023311Y02459D01*
X023191Y024639D01*
X023062Y024656D01*
X022933Y024639D01*
X022813Y02459D01*
X02271Y02451D01*
X022631Y024407D01*
X022581Y024287D01*
X022564Y024158D01*
Y023961D01*
X022581Y023833D01*
X022631Y023712D01*
X02271Y023609D01*
X022813Y02353D01*
X022933Y02348D01*
X023062Y023463D01*
X023191Y02348D01*
X023311Y02353D01*
X023414Y023609D01*
X023493Y023712D01*
X023532Y023805D01*
X023882D01*
X024667Y02302D01*
X02475Y022964D01*
X024847Y022945D01*
X025297D01*
Y022703D01*
X024347D01*
X024289Y022691D01*
X024239Y022658D01*
X023439Y021858D01*
X023406Y021809D01*
X023394Y02175D01*
Y021737D01*
X023336Y021712D01*
X023249Y021646D01*
X023183Y021559D01*
X023141Y021458D01*
X023127Y02135D01*
X023141Y021242D01*
X023183Y021141D01*
X023249Y021054D01*
X023336Y020988D01*
X023437Y020946D01*
X023545Y020931D01*
X023549D01*
X023658Y020946D01*
X023758Y020988D01*
X023845Y021054D01*
X023912Y021141D01*
X023953Y021242D01*
X023968Y02135D01*
X023953Y021458D01*
X023912Y021559D01*
X023845Y021646D01*
X02378Y021696D01*
X023771Y021757D01*
X024411Y022397D01*
X024713D01*
X024732Y022351D01*
X024439Y022058D01*
X024406Y022009D01*
X024394Y02195D01*
Y021737D01*
X024394Y021737D01*
X024336Y021712D01*
X024249Y021646D01*
X024183Y021559D01*
X024141Y021458D01*
X024127Y02135D01*
X024141Y021242D01*
X024183Y021141D01*
X024249Y021054D01*
X024336Y020988D01*
X024437Y020946D01*
X024545Y020931D01*
X024549D01*
X024658Y020946D01*
X024758Y020988D01*
X024845Y021054D01*
X024912Y021141D01*
X024953Y021242D01*
X024968Y02135D01*
X024953Y021458D01*
X024912Y021559D01*
X024845Y021646D01*
X024758Y021712D01*
X0247Y021737D01*
X0247Y021737D01*
Y021887D01*
X025011Y022197D01*
X025613D01*
X025632Y022151D01*
X025439Y021958D01*
X025406Y021909D01*
X025394Y02185D01*
Y021737D01*
X025394Y021737D01*
X025336Y021712D01*
X025249Y021646D01*
X025183Y021559D01*
X025141Y021458D01*
X025127Y02135D01*
X025141Y021242D01*
X025183Y021141D01*
X025249Y021054D01*
X025336Y020988D01*
X025437Y020946D01*
X025545Y020931D01*
X025549D01*
X025658Y020946D01*
X025758Y020988D01*
X025845Y021054D01*
X025912Y021141D01*
X025953Y021242D01*
X025968Y02135D01*
X025953Y021458D01*
X025912Y021559D01*
X025845Y021646D01*
X025758Y021712D01*
X0257Y021737D01*
X0257Y021737D01*
Y021787D01*
X025911Y021997D01*
X026697D01*
X026756Y022009D01*
X026805Y022042D01*
X02688Y022117D01*
X026883Y022118D01*
X026885Y02212D01*
X026888Y022121D01*
X026889Y022122D01*
X02689Y022122D01*
X026897Y022121D01*
X026985Y022138D01*
X027059Y022188D01*
X027109Y022262D01*
X027127Y02235D01*
X027109Y022438D01*
X027059Y022512D01*
X026985Y022562D01*
X026897Y022579D01*
X02685Y02257D01*
X0268Y022611D01*
Y023487D01*
X026851Y023538D01*
X026897Y023518D01*
Y022647D01*
X027997D01*
Y022945D01*
X028467D01*
X028486Y022899D01*
X028455Y022868D01*
X0284Y022786D01*
X028381Y022688D01*
X0284Y022591D01*
X028455Y022508D01*
X028463Y022502D01*
Y021679D01*
X028457D01*
Y021537D01*
X028407Y02151D01*
X02838Y021528D01*
X028291Y021545D01*
X028213D01*
Y021313D01*
Y021081D01*
X028291D01*
X02838Y021098D01*
X028407Y021116D01*
X028457Y021089D01*
Y020947D01*
X029609D01*
Y021313D01*
Y021679D01*
X0293D01*
Y021873D01*
X029301Y021876D01*
X029301Y021879D01*
X029302Y021881D01*
X029303Y021883D01*
X029303Y021884D01*
X029309Y021888D01*
X029359Y021962D01*
X029377Y02205D01*
X029359Y022138D01*
X029309Y022212D01*
X029235Y022262D01*
X029147Y022279D01*
X02914Y022278D01*
X029106Y022322D01*
X029121Y022394D01*
X029103Y022482D01*
X029091Y022501D01*
X029114Y022545D01*
X030792D01*
X031917Y02142D01*
X032Y021365D01*
X032097Y021345D01*
X033442D01*
X034633Y020154D01*
X034716Y020098D01*
X034782Y020085D01*
Y019653D01*
X03316D01*
X033112Y019659D01*
X033112Y019703D01*
Y021237D01*
X032282D01*
Y020755D01*
X032097D01*
X032Y020735D01*
X031917Y02068D01*
X031862Y020598D01*
X031842Y0205D01*
X031862Y020402D01*
X031917Y02032D01*
X032Y020264D01*
X032097Y020245D01*
X032282D01*
X032282Y019659D01*
X032235Y019653D01*
X022846D01*
X022835Y019848D01*
X022777Y020192D01*
X02268Y020526D01*
X022547Y020848D01*
X022379Y021153D01*
X022177Y021438D01*
X021945Y021697D01*
X021685Y02193D01*
X021401Y022131D01*
X021096Y0223D01*
X020774Y022433D01*
X020439Y02253D01*
X020095Y022588D01*
X0199Y022599D01*
Y02565D01*
X020628D01*
X02063Y025648D01*
X020784Y025566D01*
X020951Y025515D01*
X021125Y025498D01*
X021299Y025515D01*
X021466Y025566D01*
X021621Y025648D01*
X021623Y02565D01*
X025354D01*
X025356Y025641D01*
X025389Y025592D01*
X025979Y025002D01*
X025935Y024938D01*
X025918Y02485D01*
X025935Y024762D01*
X025985Y024688D01*
X026059Y024638D01*
X026147Y024621D01*
X026224Y024636D01*
X026269Y024605D01*
X026268Y0246D01*
X026285Y024512D01*
X026335Y024438D01*
X026409Y024388D01*
X026497Y024371D01*
X026585Y024388D01*
X026659Y024438D01*
X026709Y024512D01*
X026727Y0246D01*
X026709Y024688D01*
X026659Y024762D01*
X026653Y024766D01*
X026653Y024767D01*
X026652Y024769D01*
X026651Y024771D01*
X026651Y024774D01*
X02665Y024777D01*
Y02515D01*
X026639Y025209D01*
X026605Y025258D01*
X02626Y025604D01*
X026279Y02565D01*
X027529D01*
X027584Y025613D01*
X027672Y025595D01*
X02776Y025613D01*
X027815Y02565D01*
X028183D01*
X028202Y025604D01*
D02*
G37*
G36*
X055027Y022599D02*
X054832Y022588D01*
X054489Y02253D01*
X054154Y022433D01*
X053832Y0223D01*
X053527Y022131D01*
X053243Y02193D01*
X052983Y021697D01*
X052751Y021438D01*
X052549Y021153D01*
X05238Y020848D01*
X052247Y020526D01*
X052151Y020192D01*
X052092Y019848D01*
X052081Y019653D01*
X045533D01*
X045497Y019686D01*
X045497Y019703D01*
Y020831D01*
X043998D01*
Y019703D01*
X043998Y019686D01*
X043961Y019653D01*
X041147D01*
Y020375D01*
X041052D01*
Y020625D01*
X041094D01*
Y021375D01*
X0405D01*
Y020625D01*
X040542D01*
Y020375D01*
X040447D01*
Y019653D01*
X040247D01*
Y01995D01*
X039897D01*
X039547D01*
Y019653D01*
X037862D01*
Y020079D01*
X037931D01*
X038029Y020098D01*
X038111Y020154D01*
X038277Y02032D01*
X038703Y020745D01*
X0396D01*
Y020625D01*
X040194D01*
Y021375D01*
X040152D01*
Y021444D01*
X040203Y021495D01*
X041492D01*
X041767Y02122D01*
X04185Y021165D01*
X041947Y021145D01*
X044497D01*
X044595Y021165D01*
X044677Y02122D01*
X044927Y02147D01*
X044983Y021552D01*
X045002Y02165D01*
Y021969D01*
X045044D01*
Y023045D01*
X045356D01*
Y022592D01*
X04595D01*
Y023045D01*
X046242D01*
X046364Y022922D01*
X046447Y022867D01*
X046544Y022848D01*
X047719D01*
X047738Y022802D01*
X047117Y02218D01*
X047062Y022098D01*
X047042Y022D01*
Y021727D01*
X047001Y021696D01*
X046935Y021609D01*
X046893Y021508D01*
X046879Y0214D01*
X046893Y021292D01*
X046935Y021191D01*
X047001Y021104D01*
X047088Y021038D01*
X047189Y020996D01*
X047297Y020981D01*
X047406Y020996D01*
X047507Y021038D01*
X047593Y021104D01*
X04766Y021191D01*
X047702Y021292D01*
X047716Y0214D01*
X047702Y021508D01*
X04766Y021609D01*
X047593Y021696D01*
X047552Y021727D01*
Y021894D01*
X048506Y022848D01*
X050562D01*
X050586Y022804D01*
X050575Y022788D01*
X050558Y0227D01*
X050575Y022612D01*
X050625Y022538D01*
X050631Y022534D01*
X050632Y022533D01*
X050632Y022531D01*
X050633Y022529D01*
X050634Y022526D01*
X050634Y022523D01*
Y021717D01*
X050584Y021703D01*
X050507Y021762D01*
X050406Y021804D01*
X050297Y021819D01*
X050189Y021804D01*
X050088Y021762D01*
X050001Y021696D01*
X049935Y021609D01*
X049893Y021508D01*
X049879Y0214D01*
X049893Y021292D01*
X049935Y021191D01*
X050001Y021104D01*
X050088Y021038D01*
X050189Y020996D01*
X050297Y020981D01*
X050406Y020996D01*
X050507Y021038D01*
X050584Y021097D01*
X050634Y021083D01*
Y020953D01*
X050462Y020781D01*
X050406Y020804D01*
X050297Y020819D01*
X050189Y020804D01*
X050088Y020762D01*
X050001Y020696D01*
X049935Y020609D01*
X049893Y020508D01*
X049879Y0204D01*
X049893Y020292D01*
X049935Y020191D01*
X050001Y020104D01*
X050088Y020038D01*
X050189Y019996D01*
X050297Y019981D01*
X050406Y019996D01*
X050507Y020038D01*
X050593Y020104D01*
X05066Y020191D01*
X050702Y020292D01*
X050716Y0204D01*
X050702Y020508D01*
X050678Y020565D01*
X050895Y020782D01*
X050929Y020831D01*
X05094Y02089D01*
Y021106D01*
X050988Y021122D01*
X051001Y021104D01*
X051088Y021038D01*
X051189Y020996D01*
X051297Y020981D01*
X051406Y020996D01*
X051507Y021038D01*
X051534Y020997D01*
X051349Y020812D01*
X051297Y020819D01*
X051189Y020804D01*
X051088Y020762D01*
X051001Y020696D01*
X050935Y020609D01*
X050893Y020508D01*
X050879Y0204D01*
X050893Y020292D01*
X050935Y020191D01*
X051001Y020104D01*
X051088Y020038D01*
X051189Y019996D01*
X051297Y019981D01*
X051406Y019996D01*
X051507Y020038D01*
X051593Y020104D01*
X05166Y020191D01*
X051702Y020292D01*
X051716Y0204D01*
X051709Y020451D01*
X052377Y02112D01*
X052433Y021202D01*
X052452Y0213D01*
Y0225D01*
X052433Y022598D01*
X052377Y02268D01*
X051775Y023283D01*
X051692Y023338D01*
X051595Y023358D01*
X048655D01*
Y023475D01*
X048697D01*
Y024225D01*
X048103D01*
Y023475D01*
X048145D01*
Y023358D01*
X04665D01*
X046579Y023429D01*
X046598Y023475D01*
X0467D01*
Y0238D01*
X046D01*
Y023555D01*
X045602D01*
X045601Y023615D01*
Y024516D01*
X0461Y025014D01*
X046146Y024995D01*
Y024279D01*
X046145Y024264D01*
X046141Y024243D01*
X046137Y024228D01*
X046136Y024225D01*
X046D01*
Y0239D01*
X0467D01*
Y024225D01*
X046564D01*
X046563Y024228D01*
X046559Y024243D01*
X046555Y024264D01*
X046554Y024279D01*
Y025038D01*
X047101Y025586D01*
X047146Y025652D01*
X047161Y02573D01*
Y02585D01*
X05313D01*
X053172Y025799D01*
X053307Y025688D01*
X053461Y025605D01*
X053628Y025555D01*
X053802Y025537D01*
X053976Y025555D01*
X054144Y025605D01*
X054298Y025688D01*
X054433Y025799D01*
X054475Y02585D01*
X055027D01*
Y022599D01*
D02*
G37*
G36*
X026198Y025027D02*
X026199Y025015D01*
X026201Y025004D01*
X026203Y024993D01*
X026207Y024983D01*
X026211Y024973D01*
X026216Y024964D01*
X026221Y024955D01*
X026228Y024947D01*
X026235Y024939D01*
X02606D01*
X026067Y024947D01*
X026073Y024955D01*
X026079Y024964D01*
X026084Y024973D01*
X026088Y024983D01*
X026091Y024993D01*
X026094Y025004D01*
X026096Y025015D01*
X026097Y025027D01*
X026097Y02504D01*
X026197D01*
X026198Y025027D01*
D02*
G37*
G36*
X026548Y024777D02*
X026549Y024765D01*
X026551Y024754D01*
X026553Y024743D01*
X026557Y024733D01*
X026561Y024723D01*
X026566Y024714D01*
X026571Y024705D01*
X026578Y024697D01*
X026585Y024689D01*
X02641D01*
X026417Y024697D01*
X026423Y024705D01*
X026429Y024714D01*
X026434Y024723D01*
X026438Y024733D01*
X026441Y024743D01*
X026444Y024754D01*
X026446Y024765D01*
X026447Y024777D01*
X026447Y02479D01*
X026547D01*
X026548Y024777D01*
D02*
G37*
G36*
X046451Y024286D02*
X046454Y024251D01*
X046459Y024221D01*
X046466Y024195D01*
X046475Y024173D01*
X046486Y024155D01*
X046499Y024141D01*
X046514Y024131D01*
X046531Y024125D01*
X04655Y024123D01*
X04615D01*
X046169Y024125D01*
X046186Y024131D01*
X046201Y024141D01*
X046214Y024155D01*
X046225Y024173D01*
X046234Y024195D01*
X046241Y024221D01*
X046246Y024251D01*
X046249Y024286D01*
X04625Y024324D01*
X04645D01*
X046451Y024286D01*
D02*
G37*
G36*
X027667Y024099D02*
X027658Y02409D01*
X02765Y02408D01*
X027644Y024071D01*
X027638Y024062D01*
X027633Y024052D01*
X027629Y024042D01*
X027626Y024032D01*
X027624Y024022D01*
X027623Y024012D01*
X027622Y024001D01*
X027498Y024125D01*
X027509Y024125D01*
X027519Y024127D01*
X027529Y024129D01*
X027539Y024132D01*
X027549Y024136D01*
X027559Y024141D01*
X027568Y024147D01*
X027578Y024153D01*
X027587Y024161D01*
X027596Y024169D01*
X027667Y024099D01*
D02*
G37*
G36*
X028167Y023999D02*
X028158Y02399D01*
X02815Y02398D01*
X028144Y023971D01*
X028138Y023962D01*
X028133Y023952D01*
X028129Y023942D01*
X028126Y023932D01*
X028124Y023922D01*
X028123Y023912D01*
X028122Y023901D01*
X027998Y024025D01*
X028009Y024025D01*
X028019Y024027D01*
X028029Y024029D01*
X028039Y024032D01*
X028049Y024036D01*
X028059Y024041D01*
X028068Y024047D01*
X028078Y024053D01*
X028087Y024061D01*
X028096Y024069D01*
X028167Y023999D01*
D02*
G37*
G36*
X045503Y023406D02*
X045291D01*
X045292Y02341D01*
X045293Y02342D01*
X045295Y023458D01*
X045297Y023712D01*
X045497D01*
X045503Y023406D01*
D02*
G37*
G36*
X050868Y022603D02*
X050861Y022595D01*
X050856Y022586D01*
X050851Y022577D01*
X050847Y022567D01*
X050843Y022557D01*
X050841Y022546D01*
X050839Y022535D01*
X050838Y022523D01*
X050837Y02251D01*
X050737D01*
X050737Y022523D01*
X050736Y022535D01*
X050734Y022546D01*
X050731Y022557D01*
X050728Y022567D01*
X050724Y022577D01*
X050719Y022586D01*
X050713Y022595D01*
X050707Y022603D01*
X0507Y022611D01*
X050875D01*
X050868Y022603D01*
D02*
G37*
G36*
X028964Y022293D02*
X028956Y022286D01*
X028949Y022279D01*
X028943Y022271D01*
X028937Y022263D01*
X028933Y022254D01*
X028929Y022244D01*
X028926Y022234D01*
X028924Y022222D01*
X028923Y022211D01*
X028922Y022198D01*
X028822Y022215D01*
X028822Y022227D01*
X028821Y022239D01*
X028819Y022251D01*
X028817Y022262D01*
X028814Y022272D01*
X028811Y022283D01*
X028807Y022292D01*
X028802Y022302D01*
X028797Y022311D01*
X028791Y022319D01*
X028964Y022293D01*
D02*
G37*
G36*
X026896Y022225D02*
X026886Y022225D01*
X026875Y022223D01*
X026865Y022221D01*
X026855Y022218D01*
X026845Y022214D01*
X026836Y022209D01*
X026826Y022203D01*
X026817Y022197D01*
X026808Y022189D01*
X026799Y022181D01*
X026728Y022251D01*
X026736Y02226D01*
X026744Y02227D01*
X026751Y022279D01*
X026757Y022288D01*
X026761Y022298D01*
X026765Y022308D01*
X026768Y022318D01*
X026771Y022328D01*
X026772Y022338D01*
X026772Y022349D01*
X026896Y022225D01*
D02*
G37*
G36*
X029228Y021953D02*
X029221Y021945D01*
X029216Y021936D01*
X029211Y021927D01*
X029207Y021917D01*
X029203Y021907D01*
X029201Y021896D01*
X029199Y021885D01*
X029198Y021873D01*
X029197Y02186D01*
X029097D01*
X029097Y021873D01*
X029096Y021885D01*
X029094Y021896D01*
X029091Y021907D01*
X029088Y021917D01*
X029084Y021927D01*
X029079Y021936D01*
X029073Y021945D01*
X029067Y021953D01*
X02906Y021961D01*
X029235D01*
X029228Y021953D01*
D02*
G37*
G36*
X023598Y021731D02*
X0236Y0217D01*
X023603Y021687D01*
X023606Y021676D01*
X02361Y021667D01*
X023614Y02166D01*
X023619Y021656D01*
X023625Y021653D01*
X023632Y021652D01*
X023463D01*
X023469Y021653D01*
X023475Y021656D01*
X02348Y02166D01*
X023485Y021667D01*
X023489Y021676D01*
X023492Y021687D01*
X023494Y0217D01*
X023496Y021715D01*
X023497Y021731D01*
X023497Y02175D01*
X023597D01*
X023598Y021731D01*
D02*
G37*
G36*
X025598Y021739D02*
X025599Y02172D01*
X025602Y021703D01*
X025605Y021688D01*
X02561Y021675D01*
X025615Y021665D01*
X025622Y021657D01*
X025629Y021652D01*
X025637Y021648D01*
X025647Y021647D01*
X025448D01*
X025457Y021648D01*
X025465Y021652D01*
X025473Y021657D01*
X025479Y021665D01*
X025485Y021675D01*
X025489Y021688D01*
X025493Y021703D01*
X025495Y02172D01*
X025497Y021739D01*
X025497Y021761D01*
X025597D01*
X025598Y021739D01*
D02*
G37*
G36*
X024598D02*
X024599Y02172D01*
X024602Y021703D01*
X024605Y021688D01*
X02461Y021675D01*
X024615Y021665D01*
X024622Y021657D01*
X024629Y021652D01*
X024637Y021648D01*
X024647Y021647D01*
X024448D01*
X024457Y021648D01*
X024465Y021652D01*
X024473Y021657D01*
X024479Y021665D01*
X024485Y021675D01*
X024489Y021688D01*
X024493Y021703D01*
X024495Y02172D01*
X024497Y021739D01*
X024497Y021761D01*
X024597D01*
X024598Y021739D01*
D02*
G37*
G36*
X037763Y0205D02*
X037768Y020497D01*
X037776Y020494D01*
X037788Y020491D01*
X037804Y020489D01*
X037844Y020486D01*
X037931Y020484D01*
Y020184D01*
X037899Y020184D01*
X037788Y020177D01*
X037776Y020174D01*
X037768Y020171D01*
X037763Y020168D01*
X037761Y020164D01*
Y020504D01*
X037763Y0205D01*
D02*
G37*
%LPC*%
G36*
X037361Y032557D02*
X037075D01*
Y03235D01*
X037361D01*
Y032557D01*
D02*
G37*
G36*
Y03225D02*
X037075D01*
Y032043D01*
X037361D01*
Y03225D01*
D02*
G37*
G36*
X039747Y032869D02*
X039639Y032854D01*
X039538Y032812D01*
X039451Y032746D01*
X039385Y032659D01*
X039343Y032558D01*
X039329Y03245D01*
X039343Y032342D01*
X039385Y032241D01*
X039451Y032154D01*
X039538Y032088D01*
X039639Y032046D01*
X039747Y032031D01*
X039856Y032046D01*
X039957Y032088D01*
X040043Y032154D01*
X04011Y032241D01*
X040152Y032342D01*
X040166Y03245D01*
X040152Y032558D01*
X04011Y032659D01*
X040043Y032746D01*
X039957Y032812D01*
X039856Y032854D01*
X039747Y032869D01*
D02*
G37*
G36*
X038747D02*
X038639Y032854D01*
X038538Y032812D01*
X038451Y032746D01*
X038385Y032659D01*
X038343Y032558D01*
X038329Y03245D01*
X038339Y032368D01*
X037864Y031893D01*
X037805Y031932D01*
X037717Y031949D01*
X037629Y031932D01*
X037555Y031882D01*
X037505Y031808D01*
X037488Y03172D01*
X037505Y031632D01*
X037555Y031558D01*
X037629Y031508D01*
X037717Y031491D01*
X037805Y031508D01*
X037879Y031558D01*
X037885Y031567D01*
X037889Y031567D01*
X037907D01*
X037966Y031579D01*
X038015Y031612D01*
X038511Y032108D01*
X038538Y032088D01*
X038639Y032046D01*
X038747Y032031D01*
X038856Y032046D01*
X038957Y032088D01*
X039043Y032154D01*
X03911Y032241D01*
X039152Y032342D01*
X039166Y03245D01*
X039152Y032558D01*
X03911Y032659D01*
X039043Y032746D01*
X038957Y032812D01*
X038856Y032854D01*
X038747Y032869D01*
D02*
G37*
G36*
X034606Y032557D02*
X033933D01*
Y032043D01*
X034116D01*
Y030918D01*
X034119Y030905D01*
X034108Y03085D01*
X034125Y030762D01*
X034175Y030688D01*
X034249Y030638D01*
X034337Y030621D01*
X034425Y030638D01*
X034499Y030688D01*
X034549Y030762D01*
X034567Y03085D01*
X034549Y030938D01*
X034499Y031012D01*
X034425Y031062D01*
X034422Y031063D01*
Y032043D01*
X034606D01*
Y032557D01*
D02*
G37*
G36*
X035994Y030475D02*
X035747D01*
Y03015D01*
X035994D01*
Y030475D01*
D02*
G37*
G36*
X035647D02*
X0354D01*
Y03015D01*
X035647D01*
Y030475D01*
D02*
G37*
G36*
X035994Y03005D02*
X035747D01*
Y029725D01*
X035994D01*
Y03005D01*
D02*
G37*
G36*
X035647D02*
X0354D01*
Y029725D01*
X035647D01*
Y03005D01*
D02*
G37*
G36*
X037247Y030259D02*
X037154Y030247D01*
X037068Y030211D01*
X036993Y030154D01*
X036936Y030079D01*
X0369Y029993D01*
X036888Y0299D01*
X0369Y029807D01*
X036936Y029721D01*
X036993Y029646D01*
X037068Y029589D01*
X037154Y029553D01*
X037247Y029541D01*
X03734Y029553D01*
X037427Y029589D01*
X037501Y029646D01*
X037558Y029721D01*
X037594Y029807D01*
X037606Y0299D01*
X037594Y029993D01*
X037558Y030079D01*
X037501Y030154D01*
X037427Y030211D01*
X03734Y030247D01*
X037247Y030259D01*
D02*
G37*
G36*
X037603Y027256D02*
X037297D01*
Y02695D01*
X037603D01*
Y027256D01*
D02*
G37*
G36*
X037197D02*
X036891D01*
Y02695D01*
X037197D01*
Y027256D01*
D02*
G37*
G36*
X037603Y02685D02*
X037297D01*
Y026544D01*
X037603D01*
Y02685D01*
D02*
G37*
G36*
X037197D02*
X036891D01*
Y026544D01*
X037197D01*
Y02685D01*
D02*
G37*
G36*
X035094Y026775D02*
X0345D01*
Y026503D01*
X033474D01*
X033471Y026503D01*
X033468Y026504D01*
X033466Y026505D01*
X033464Y026506D01*
X033464Y026506D01*
X033459Y026512D01*
X033385Y026562D01*
X033297Y026579D01*
X033209Y026562D01*
X033135Y026512D01*
X033085Y026438D01*
X033068Y02635D01*
X033085Y026262D01*
X033135Y026188D01*
X033209Y026138D01*
X033297Y026121D01*
X033385Y026138D01*
X033459Y026188D01*
X033464Y026194D01*
X033464Y026194D01*
X033466Y026195D01*
X033468Y026196D01*
X033471Y026197D01*
X033474Y026197D01*
X0345D01*
Y026025D01*
X035094D01*
Y026775D01*
D02*
G37*
G36*
X0365Y024925D02*
X0362D01*
Y0246D01*
X0365D01*
Y024925D01*
D02*
G37*
G36*
X03445D02*
X03415D01*
Y0246D01*
X03445D01*
Y024925D01*
D02*
G37*
G36*
X03405D02*
X03375D01*
Y0246D01*
X03405D01*
Y024925D01*
D02*
G37*
G36*
X03235D02*
X03205D01*
Y0246D01*
X03235D01*
Y024925D01*
D02*
G37*
G36*
X03195D02*
X03165D01*
Y0246D01*
X03195D01*
Y024925D01*
D02*
G37*
G36*
X0361D02*
X0358D01*
Y024566D01*
X03575Y024561D01*
X035745Y024586D01*
X035733Y024648D01*
X035677Y02473D01*
X035595Y024785D01*
X035497Y024805D01*
X03535D01*
Y024925D01*
X03465D01*
Y024175D01*
X03535D01*
Y024295D01*
X035497D01*
X035595Y024314D01*
X035677Y02437D01*
X035733Y024452D01*
X035745Y024514D01*
X03575Y024539D01*
X0358Y024534D01*
Y024175D01*
X0361D01*
Y02455D01*
Y024925D01*
D02*
G37*
G36*
X0365Y0245D02*
X0362D01*
Y024175D01*
X0365D01*
Y0245D01*
D02*
G37*
G36*
X03445D02*
X03415D01*
Y024175D01*
X03445D01*
Y0245D01*
D02*
G37*
G36*
X03405D02*
X03375D01*
Y024175D01*
X03405D01*
Y0245D01*
D02*
G37*
G36*
X03235D02*
X03205D01*
Y024175D01*
X03235D01*
Y0245D01*
D02*
G37*
G36*
X03195D02*
X03165D01*
Y024175D01*
X03195D01*
Y0245D01*
D02*
G37*
G36*
X040492Y025286D02*
X039691D01*
Y02415D01*
X040866D01*
Y024912D01*
X040853Y025009D01*
X040816Y025099D01*
X040756Y025176D01*
X040679Y025236D01*
X040589Y025273D01*
X040492Y025286D01*
D02*
G37*
G36*
X039591D02*
X038789D01*
X038692Y025273D01*
X038602Y025236D01*
X038525Y025176D01*
X038465Y025099D01*
X038428Y025009D01*
X038415Y024912D01*
Y02415D01*
X039591D01*
Y025286D01*
D02*
G37*
G36*
X040866Y02405D02*
X039691D01*
Y022914D01*
X040492D01*
X040589Y022927D01*
X040679Y022964D01*
X040756Y023024D01*
X040816Y023101D01*
X040853Y023191D01*
X040866Y023288D01*
Y02405D01*
D02*
G37*
G36*
X039591D02*
X038415D01*
Y023288D01*
X038428Y023191D01*
X038465Y023101D01*
X038525Y023024D01*
X038602Y022964D01*
X038692Y022927D01*
X038789Y022914D01*
X039591D01*
Y02405D01*
D02*
G37*
G36*
X033112Y023441D02*
X032747D01*
Y022702D01*
X033112D01*
Y023441D01*
D02*
G37*
G36*
X032647D02*
X032282D01*
Y022702D01*
X032647D01*
Y023441D01*
D02*
G37*
G36*
X035612Y022757D02*
X035247D01*
Y022116D01*
X035612D01*
Y022757D01*
D02*
G37*
G36*
X037397D02*
X037032D01*
Y022116D01*
X037397D01*
Y022757D01*
D02*
G37*
G36*
X035147D02*
X034782D01*
Y022116D01*
X035147D01*
Y022757D01*
D02*
G37*
G36*
X037862Y022016D02*
X037497D01*
Y021376D01*
X037862D01*
Y022016D01*
D02*
G37*
G36*
X037397D02*
X037032D01*
Y021376D01*
X037397D01*
Y022016D01*
D02*
G37*
G36*
X035612D02*
X035247D01*
Y021376D01*
X035612D01*
Y022016D01*
D02*
G37*
G36*
X035147D02*
X034782D01*
Y021376D01*
X035147D01*
Y022016D01*
D02*
G37*
%LPD*%
G36*
X037821Y031791D02*
X037827Y031787D01*
X037833Y031783D01*
X037841Y031779D01*
X037849Y031776D01*
X037859Y031774D01*
X037869Y031772D01*
X037881Y031771D01*
X037907Y03177D01*
Y03167D01*
X037893Y03167D01*
X037869Y031668D01*
X037859Y031666D01*
X037849Y031664D01*
X037841Y031661D01*
X037833Y031657D01*
X037827Y031653D01*
X037821Y031649D01*
X037817Y031644D01*
Y031796D01*
X037821Y031791D01*
D02*
G37*
G36*
X03436Y032143D02*
X034351Y03214D01*
X034344Y032135D01*
X034337Y032128D01*
X034332Y032119D01*
X034327Y032108D01*
X034324Y032095D01*
X034321Y03208D01*
X03432Y032063D01*
X034319Y032044D01*
X034219D01*
X034219Y032063D01*
X034217Y03208D01*
X034215Y032095D01*
X034211Y032108D01*
X034207Y032119D01*
X034201Y032128D01*
X034195Y032135D01*
X034187Y03214D01*
X034179Y032143D01*
X034169Y032144D01*
X034369D01*
X03436Y032143D01*
D02*
G37*
G36*
X033394Y02643D02*
X033402Y026424D01*
X033411Y026418D01*
X03342Y026414D01*
X03343Y026409D01*
X03344Y026406D01*
X033451Y026403D01*
X033462Y026402D01*
X033474Y0264D01*
X033487Y0264D01*
Y0263D01*
X033474Y0263D01*
X033462Y026298D01*
X033451Y026297D01*
X03344Y026294D01*
X03343Y026291D01*
X03342Y026286D01*
X033411Y026282D01*
X033402Y026276D01*
X033394Y02627D01*
X033387Y026263D01*
Y026437D01*
X033394Y02643D01*
D02*
G37*
G36*
X034603Y02625D02*
X034602Y02626D01*
X034599Y026268D01*
X034594Y026275D01*
X034587Y026282D01*
X034577Y026288D01*
X034566Y026292D01*
X034553Y026295D01*
X034538Y026298D01*
X034521Y0263D01*
X034502Y0263D01*
Y0264D01*
X034521Y0264D01*
X034538Y026402D01*
X034553Y026405D01*
X034566Y026408D01*
X034577Y026412D01*
X034587Y026418D01*
X034594Y026425D01*
X034599Y026432D01*
X034602Y02644D01*
X034603Y02645D01*
Y02625D01*
D02*
G37*
%LPC*%
G36*
X021183Y02465D02*
Y02411D01*
X021631D01*
Y024158D01*
X021614Y024287D01*
X021564Y024407D01*
X021485Y02451D01*
X021382Y02459D01*
X021262Y024639D01*
X021183Y02465D01*
D02*
G37*
G36*
X021083D02*
X021004Y024639D01*
X020884Y02459D01*
X020781Y02451D01*
X020702Y024407D01*
X020652Y024287D01*
X020635Y024158D01*
Y02411D01*
X021083D01*
Y02465D01*
D02*
G37*
G36*
X021631Y02401D02*
X021183D01*
Y02347D01*
X021262Y02348D01*
X021382Y02353D01*
X021485Y023609D01*
X021564Y023712D01*
X021614Y023833D01*
X021631Y023961D01*
Y02401D01*
D02*
G37*
G36*
X021083D02*
X020635D01*
Y023961D01*
X020652Y023833D01*
X020702Y023712D01*
X020781Y023609D01*
X020884Y02353D01*
X021004Y02348D01*
X021083Y02347D01*
Y02401D01*
D02*
G37*
G36*
X022137Y023455D02*
X02194D01*
X021811Y023438D01*
X021691Y023389D01*
X021588Y02331D01*
X021509Y023206D01*
X021459Y023086D01*
X021442Y022957D01*
X021459Y022829D01*
X021509Y022708D01*
X021588Y022605D01*
X021691Y022526D01*
X021811Y022476D01*
X02194Y02246D01*
X022137D01*
X022266Y022476D01*
X022386Y022526D01*
X022489Y022605D01*
X022568Y022708D01*
X022618Y022829D01*
X022635Y022957D01*
X022618Y023086D01*
X022568Y023206D01*
X022489Y02331D01*
X022386Y023389D01*
X022266Y023438D01*
X022137Y023455D01*
D02*
G37*
G36*
X030259Y021545D02*
X030182D01*
Y021363D01*
X030482D01*
X030474Y021402D01*
X030424Y021477D01*
X030348Y021528D01*
X030259Y021545D01*
D02*
G37*
G36*
X028113D02*
X028035D01*
X027946Y021528D01*
X027871Y021477D01*
X02782Y021402D01*
X027813Y021363D01*
X028113D01*
Y021545D01*
D02*
G37*
G36*
X030482Y021263D02*
X030182D01*
Y021081D01*
X030259D01*
X030348Y021098D01*
X030424Y021149D01*
X030474Y021224D01*
X030482Y021263D01*
D02*
G37*
G36*
X029838Y021679D02*
X029709D01*
Y021313D01*
Y020947D01*
X029838D01*
Y021089D01*
X029888Y021116D01*
X029915Y021098D01*
X030004Y021081D01*
X030082D01*
Y021313D01*
Y021545D01*
X030004D01*
X029915Y021528D01*
X029888Y02151D01*
X029838Y021537D01*
Y021679D01*
D02*
G37*
G36*
X028113Y021263D02*
X027813D01*
X02782Y021224D01*
X027871Y021149D01*
X027946Y021098D01*
X028035Y021081D01*
X028113D01*
Y021263D01*
D02*
G37*
G36*
X026549Y021769D02*
X026545D01*
X026437Y021754D01*
X026336Y021712D01*
X026249Y021646D01*
X026183Y021559D01*
X026141Y021458D01*
X026127Y02135D01*
X026141Y021242D01*
X026183Y021141D01*
X026249Y021054D01*
X026336Y020988D01*
X026437Y020946D01*
X026545Y020931D01*
X026549D01*
X026658Y020946D01*
X026758Y020988D01*
X026845Y021054D01*
X026912Y021141D01*
X026953Y021242D01*
X026968Y02135D01*
X026953Y021458D01*
X026912Y021559D01*
X026845Y021646D01*
X026758Y021712D01*
X026658Y021754D01*
X026549Y021769D01*
D02*
G37*
G36*
X030475Y020657D02*
X030053D01*
X030014Y020649D01*
X029986Y020631D01*
X029962Y020637D01*
X029936Y020651D01*
Y020655D01*
X029591D01*
Y02025D01*
Y019845D01*
X029936D01*
Y019847D01*
X029962Y019861D01*
X029986Y019867D01*
X030014Y019849D01*
X030053Y019841D01*
X030055D01*
X030065Y019843D01*
X030475D01*
Y019945D01*
X030055D01*
Y019943D01*
X030053D01*
Y020555D01*
X030475D01*
Y020657D01*
D02*
G37*
G36*
X026597Y020762D02*
Y0204D01*
X026961D01*
X026953Y020458D01*
X026912Y020559D01*
X026845Y020646D01*
X026758Y020712D01*
X026658Y020754D01*
X026597Y020762D01*
D02*
G37*
G36*
X026497D02*
X026437Y020754D01*
X026336Y020712D01*
X026249Y020646D01*
X026183Y020559D01*
X026141Y020458D01*
X026133Y0204D01*
X026497D01*
Y020762D01*
D02*
G37*
G36*
X030475Y020463D02*
X030471Y020461D01*
X030467Y020458D01*
X030463Y020455D01*
X030459Y020451D01*
X030455Y020448D01*
X030452Y020444D01*
X030449Y02044D01*
X030445Y020436D01*
X030443Y020432D01*
X03044Y020427D01*
X030437Y020423D01*
X030435Y020418D01*
X030433Y020414D01*
X030432Y020409D01*
X03043Y020404D01*
X030429Y020399D01*
X030428Y020394D01*
X030427Y020389D01*
X030427Y020384D01*
X030427Y020378D01*
Y020374D01*
Y020126D01*
Y020122D01*
X030427Y020117D01*
X030427Y020112D01*
X030428Y020107D01*
X030429Y020102D01*
X03043Y020097D01*
X030432Y020092D01*
X030433Y020087D01*
X030435Y020082D01*
X030438Y020077D01*
X03044Y020073D01*
X030443Y020068D01*
X030446Y020064D01*
X030449Y02006D01*
X030452Y020056D01*
X030456Y020052D01*
X030459Y020049D01*
X030463Y020046D01*
X030467Y020042D01*
X030472Y02004D01*
X030475Y020037D01*
Y02025D01*
Y020463D01*
D02*
G37*
G36*
X030575D02*
Y02025D01*
Y020037D01*
X030579Y02004D01*
X030583Y020042D01*
X030587Y020046D01*
X030591Y020049D01*
X030595Y020052D01*
X030598Y020056D01*
X030602Y02006D01*
X030605Y020064D01*
X030608Y020068D01*
X03061Y020073D01*
X030613Y020077D01*
X030615Y020082D01*
X030617Y020087D01*
X030619Y020092D01*
X03062Y020097D01*
X030621Y020102D01*
X030622Y020107D01*
X030623Y020112D01*
X030623Y020117D01*
X030624Y020122D01*
Y020378D01*
X030623Y020384D01*
X030623Y020389D01*
X030622Y020394D01*
X030621Y020399D01*
X03062Y020404D01*
X030619Y020409D01*
X030617Y020414D01*
X030615Y020418D01*
X030613Y020423D01*
X03061Y020427D01*
X030608Y020432D01*
X030605Y020436D01*
X030602Y02044D01*
X030598Y020444D01*
X030595Y020448D01*
X030591Y020451D01*
X030587Y020455D01*
X030583Y020458D01*
X030579Y020461D01*
X030575Y020463D01*
D02*
G37*
G36*
X027819Y020463D02*
Y02025D01*
Y020037D01*
X027823Y020039D01*
X027827Y020042D01*
X027831Y020045D01*
X027835Y020049D01*
X027839Y020052D01*
X027843Y020056D01*
X027846Y02006D01*
X027849Y020064D01*
X027852Y020068D01*
X027855Y020073D01*
X027857Y020077D01*
X027859Y020082D01*
X027861Y020086D01*
X027863Y020091D01*
X027864Y020096D01*
X027866Y020101D01*
X027867Y020106D01*
X027867Y020111D01*
X027868Y020116D01*
X027868Y020122D01*
Y020126D01*
Y020374D01*
Y020378D01*
X027868Y020383D01*
X027867Y020388D01*
X027867Y020393D01*
X027866Y020398D01*
X027864Y020403D01*
X027863Y020408D01*
X027861Y020413D01*
X027859Y020418D01*
X027857Y020423D01*
X027855Y020427D01*
X027852Y020432D01*
X027849Y020436D01*
X027846Y02044D01*
X027842Y020444D01*
X027839Y020448D01*
X027835Y020451D01*
X027831Y020454D01*
X027827Y020458D01*
X027823Y020461D01*
X027819Y020463D01*
D02*
G37*
G36*
X027719Y020463D02*
X027716Y020461D01*
X027711Y020458D01*
X027707Y020454D01*
X027703Y020451D01*
X0277Y020448D01*
X027696Y020444D01*
X027693Y02044D01*
X02769Y020436D01*
X027687Y020432D01*
X027684Y020427D01*
X027682Y020423D01*
X027679Y020418D01*
X027677Y020413D01*
X027676Y020408D01*
X027674Y020403D01*
X027673Y020398D01*
X027672Y020393D01*
X027671Y020388D01*
X027671Y020383D01*
X027671Y020378D01*
Y020122D01*
X027671Y020116D01*
X027671Y020111D01*
X027672Y020106D01*
X027673Y020101D01*
X027674Y020096D01*
X027676Y020091D01*
X027677Y020086D01*
X027679Y020082D01*
X027682Y020077D01*
X027684Y020073D01*
X027687Y020068D01*
X02769Y020064D01*
X027693Y02006D01*
X027696Y020056D01*
X0277Y020052D01*
X027703Y020049D01*
X027707Y020045D01*
X027711Y020042D01*
X027715Y020039D01*
X027719Y020037D01*
Y02025D01*
Y020463D01*
D02*
G37*
G36*
X026961Y0203D02*
X026597D01*
Y019938D01*
X026658Y019946D01*
X026758Y019988D01*
X026845Y020054D01*
X026912Y020141D01*
X026953Y020242D01*
X026961Y0203D01*
D02*
G37*
G36*
X026497D02*
X026133D01*
X026141Y020242D01*
X026183Y020141D01*
X026249Y020054D01*
X026336Y019988D01*
X026437Y019946D01*
X026497Y019938D01*
Y0203D01*
D02*
G37*
G36*
X023964Y020765D02*
X02313D01*
Y019935D01*
X023964D01*
Y020765D01*
D02*
G37*
G36*
X025549Y020769D02*
X025545D01*
X025437Y020754D01*
X025336Y020712D01*
X025249Y020646D01*
X025183Y020559D01*
X025141Y020458D01*
X025127Y02035D01*
X025141Y020242D01*
X025183Y020141D01*
X025249Y020054D01*
X025336Y019988D01*
X025437Y019946D01*
X025545Y019931D01*
X025549D01*
X025658Y019946D01*
X025758Y019988D01*
X025845Y020054D01*
X025912Y020141D01*
X025953Y020242D01*
X025968Y02035D01*
X025953Y020458D01*
X025912Y020559D01*
X025845Y020646D01*
X025758Y020712D01*
X025658Y020754D01*
X025549Y020769D01*
D02*
G37*
G36*
X024549D02*
X024545D01*
X024437Y020754D01*
X024336Y020712D01*
X024249Y020646D01*
X024183Y020559D01*
X024141Y020458D01*
X024127Y02035D01*
X024141Y020242D01*
X024183Y020141D01*
X024249Y020054D01*
X024336Y019988D01*
X024437Y019946D01*
X024545Y019931D01*
X024549D01*
X024658Y019946D01*
X024758Y019988D01*
X024845Y020054D01*
X024912Y020141D01*
X024953Y020242D01*
X024968Y02035D01*
X024953Y020458D01*
X024912Y020559D01*
X024845Y020646D01*
X024758Y020712D01*
X024658Y020754D01*
X024549Y020769D01*
D02*
G37*
G36*
X030575Y020653D02*
Y020549D01*
X030577Y020548D01*
X030586Y020546D01*
X030596Y020542D01*
X030606Y020538D01*
X030615Y020534D01*
X030624Y020529D01*
X030633Y020523D01*
X030641Y020518D01*
X030649Y020511D01*
X030657Y020505D01*
X030665Y020498D01*
X030672Y02049D01*
X030678Y020482D01*
X030685Y020474D01*
X03069Y020466D01*
X030696Y020457D01*
X030701Y020448D01*
X030705Y020439D01*
X030709Y020429D01*
X030712Y020419D01*
X030715Y02041D01*
X030718Y0204D01*
X03072Y020389D01*
X030721Y020379D01*
X030722Y020369D01*
X030722Y020358D01*
Y020142D01*
X030722Y020131D01*
X030721Y020121D01*
X03072Y020111D01*
X030718Y020101D01*
X030715Y020091D01*
X030712Y020081D01*
X030709Y020071D01*
X030705Y020062D01*
X030701Y020052D01*
X030696Y020043D01*
X03069Y020035D01*
X030684Y020026D01*
X030678Y020018D01*
X030671Y02001D01*
X030664Y020003D01*
X030657Y019995D01*
X030649Y019989D01*
X030641Y019982D01*
X030632Y019977D01*
X030624Y019971D01*
X030615Y019966D01*
X030605Y019962D01*
X030596Y019958D01*
X030586Y019955D01*
X030576Y019952D01*
X030575Y019951D01*
Y019847D01*
X030585Y019849D01*
X030587Y01985D01*
X03059Y01985D01*
X0306Y019852D01*
X030602Y019854D01*
X030605Y019854D01*
X030615Y019857D01*
X030617Y019858D01*
X03062Y019858D01*
X030623Y019859D01*
X030624Y01986D01*
X030624Y01986D01*
X03063Y019862D01*
X030632Y019863D01*
X030635Y019864D01*
X030644Y019868D01*
X030647Y019869D01*
X030649Y01987D01*
X030658Y019874D01*
X030661Y019876D01*
X030663Y019877D01*
X030672Y019882D01*
X030674Y019883D01*
X030677Y019884D01*
X030686Y01989D01*
X030688Y019892D01*
X03069Y019893D01*
X030699Y019898D01*
X030701Y0199D01*
X030703Y019902D01*
X030711Y019908D01*
X030713Y01991D01*
X030715Y019911D01*
X030723Y019918D01*
X030725Y01992D01*
X030727Y019921D01*
X030735Y019929D01*
X030736Y019931D01*
X030738Y019932D01*
X030745Y01994D01*
X030747Y019942D01*
X030749Y019944D01*
X030756Y019952D01*
X030757Y019954D01*
X030759Y019956D01*
X030765Y019964D01*
X030767Y019966D01*
X030768Y019968D01*
X030774Y019977D01*
X030775Y019979D01*
X030777Y019981D01*
X030783Y01999D01*
X030784Y019993D01*
X030785Y019995D01*
X03079Y020004D01*
X030791Y020006D01*
X030793Y020008D01*
X030797Y020018D01*
X030798Y02002D01*
X030799Y020023D01*
X030803Y020032D01*
X030804Y020035D01*
X030805Y020037D01*
X030809Y020047D01*
X030809Y02005D01*
X03081Y020052D01*
X030813Y020062D01*
X030813Y020065D01*
X030814Y020067D01*
X030817Y020077D01*
X030817Y02008D01*
X030818Y020082D01*
X03082Y020092D01*
X03082Y020095D01*
X030821Y020098D01*
X030822Y020108D01*
X030822Y020111D01*
X030823Y020113D01*
X030823Y020123D01*
X030823Y020126D01*
X030824Y020129D01*
X030824Y020139D01*
X030824Y02014D01*
X030824Y020142D01*
Y020358D01*
X030824Y02036D01*
X030824Y020361D01*
X030824Y020372D01*
X030823Y020374D01*
X030823Y020377D01*
X030823Y020387D01*
X030822Y02039D01*
X030822Y020393D01*
X030821Y020403D01*
X03082Y020405D01*
X03082Y020408D01*
X030818Y020418D01*
X030817Y020421D01*
X030817Y020423D01*
X030814Y020433D01*
X030813Y020436D01*
X030813Y020439D01*
X03081Y020448D01*
X030809Y020451D01*
X030809Y020453D01*
X030805Y020463D01*
X030804Y020465D01*
X030803Y020468D01*
X030799Y020478D01*
X030798Y02048D01*
X030797Y020483D01*
X030793Y020492D01*
X030791Y020494D01*
X03079Y020497D01*
X030785Y020506D01*
X030784Y020508D01*
X030783Y02051D01*
X030777Y020519D01*
X030775Y020521D01*
X030774Y020523D01*
X030769Y020532D01*
X030767Y020534D01*
X030765Y020536D01*
X030759Y020544D01*
X030757Y020546D01*
X030756Y020549D01*
X030749Y020556D01*
X030747Y020558D01*
X030746Y02056D01*
X030738Y020568D01*
X030736Y020569D01*
X030735Y020572D01*
X030727Y020579D01*
X030725Y02058D01*
X030723Y020582D01*
X030715Y020589D01*
X030713Y02059D01*
X030711Y020592D01*
X030703Y020598D01*
X030701Y0206D01*
X030699Y020602D01*
X03069Y020607D01*
X030688Y020609D01*
X030686Y02061D01*
X030677Y020616D01*
X030675Y020617D01*
X030673Y020618D01*
X030663Y020623D01*
X030661Y020624D01*
X030659Y020626D01*
X030649Y02063D01*
X030647Y020631D01*
X030645Y020632D01*
X030635Y020636D01*
X030632Y020637D01*
X03063Y020638D01*
X030624Y02064D01*
X030624Y02064D01*
X030624Y02064D01*
X03062Y020642D01*
X030618Y020642D01*
X030615Y020643D01*
X030605Y020646D01*
X030603Y020646D01*
X0306Y020648D01*
X03059Y02065D01*
X030588Y02065D01*
X030585Y020651D01*
X030575Y020653D01*
D02*
G37*
G36*
X027719Y020653D02*
X02771Y020651D01*
X027707Y02065D01*
X027705Y02065D01*
X027695Y020648D01*
X027692Y020646D01*
X027689Y020646D01*
X02768Y020643D01*
X027677Y020642D01*
X027674Y020642D01*
X027672Y020641D01*
X027671Y02064D01*
X02767Y02064D01*
X027665Y020638D01*
X027662Y020637D01*
X02766Y020636D01*
X02765Y020632D01*
X027648Y020631D01*
X027645Y02063D01*
X027636Y020626D01*
X027634Y020624D01*
X027631Y020623D01*
X027622Y020618D01*
X02762Y020617D01*
X027618Y020616D01*
X027609Y02061D01*
X027607Y020608D01*
X027604Y020607D01*
X027596Y020602D01*
X027594Y0206D01*
X027592Y020598D01*
X027583Y020592D01*
X027582Y02059D01*
X027579Y020589D01*
X027571Y020582D01*
X02757Y02058D01*
X027567Y020579D01*
X02756Y020571D01*
X027558Y020569D01*
X027556Y020568D01*
X027549Y02056D01*
X027548Y020558D01*
X027545Y020556D01*
X027539Y020548D01*
X027537Y020546D01*
X027535Y020544D01*
X027529Y020536D01*
X027528Y020534D01*
X027526Y020532D01*
X02752Y020523D01*
X027519Y020521D01*
X027517Y020519D01*
X027512Y02051D01*
X027511Y020507D01*
X027509Y020505D01*
X027504Y020496D01*
X027503Y020494D01*
X027502Y020492D01*
X027497Y020482D01*
X027497Y02048D01*
X027495Y020477D01*
X027491Y020468D01*
X027491Y020465D01*
X027489Y020463D01*
X027486Y020453D01*
X027486Y02045D01*
X027484Y020448D01*
X027481Y020438D01*
X027481Y020435D01*
X02748Y020433D01*
X027478Y020423D01*
X027477Y02042D01*
X027476Y020418D01*
X027475Y020408D01*
X027475Y020405D01*
X027474Y020402D01*
X027472Y020392D01*
X027473Y020389D01*
X027472Y020387D01*
X027471Y020377D01*
X027471Y020374D01*
X027471Y020371D01*
X027471Y020361D01*
X027471Y02036D01*
X02747Y020358D01*
Y020142D01*
X027471Y02014D01*
X027471Y020139D01*
X027471Y020128D01*
X027471Y020126D01*
X027471Y020123D01*
X027472Y020113D01*
X027473Y02011D01*
X027472Y020107D01*
X027474Y020097D01*
X027475Y020095D01*
X027475Y020092D01*
X027476Y020082D01*
X027477Y020079D01*
X027478Y020077D01*
X02748Y020067D01*
X027481Y020064D01*
X027481Y020061D01*
X027484Y020052D01*
X027486Y020049D01*
X027486Y020047D01*
X027489Y020037D01*
X027491Y020035D01*
X027491Y020032D01*
X027495Y020022D01*
X027497Y02002D01*
X027497Y020017D01*
X027502Y020008D01*
X027503Y020006D01*
X027504Y020003D01*
X027509Y019994D01*
X027511Y019992D01*
X027512Y01999D01*
X027517Y019981D01*
X027519Y019979D01*
X02752Y019977D01*
X027526Y019968D01*
X027528Y019966D01*
X027529Y019964D01*
X027535Y019956D01*
X027537Y019954D01*
X027539Y019951D01*
X027545Y019944D01*
X027547Y019942D01*
X027549Y01994D01*
X027556Y019932D01*
X027558Y019931D01*
X02756Y019928D01*
X027567Y019921D01*
X02757Y01992D01*
X027571Y019918D01*
X027579Y019911D01*
X027581Y01991D01*
X027583Y019908D01*
X027591Y019901D01*
X027594Y0199D01*
X027596Y019898D01*
X027604Y019893D01*
X027607Y019891D01*
X027609Y01989D01*
X027617Y019884D01*
X02762Y019883D01*
X027622Y019882D01*
X027631Y019877D01*
X027634Y019876D01*
X027636Y019874D01*
X027645Y01987D01*
X027648Y019869D01*
X02765Y019868D01*
X027659Y019864D01*
X027662Y019863D01*
X027664Y019862D01*
X027671Y01986D01*
X027671Y01986D01*
X027671Y019859D01*
X027674Y019858D01*
X027677Y019858D01*
X027679Y019857D01*
X027689Y019854D01*
X027692Y019854D01*
X027694Y019852D01*
X027704Y01985D01*
X027707Y01985D01*
X027709Y019849D01*
X027719Y019847D01*
Y019951D01*
X027718Y019952D01*
X027708Y019954D01*
X027698Y019958D01*
X027689Y019962D01*
X02768Y019966D01*
X027671Y019971D01*
X027662Y019977D01*
X027653Y019982D01*
X027645Y019989D01*
X027637Y019995D01*
X02763Y020002D01*
X027623Y02001D01*
X027616Y020018D01*
X02761Y020026D01*
X027604Y020034D01*
X027599Y020043D01*
X027594Y020052D01*
X027589Y020061D01*
X027585Y020071D01*
X027582Y020081D01*
X027579Y02009D01*
X027577Y0201D01*
X027575Y020111D01*
X027574Y020121D01*
X027573Y020131D01*
X027572Y020142D01*
Y020358D01*
X027573Y020369D01*
X027574Y020379D01*
X027575Y020389D01*
X027577Y020399D01*
X027579Y020409D01*
X027582Y020419D01*
X027586Y020429D01*
X027589Y020438D01*
X027594Y020448D01*
X027599Y020457D01*
X027604Y020465D01*
X02761Y020474D01*
X027616Y020482D01*
X027623Y02049D01*
X02763Y020497D01*
X027638Y020505D01*
X027645Y020511D01*
X027654Y020518D01*
X027662Y020523D01*
X027671Y020529D01*
X02768Y020534D01*
X027689Y020538D01*
X027699Y020542D01*
X027708Y020545D01*
X027718Y020548D01*
X027719Y020549D01*
Y020653D01*
D02*
G37*
G36*
X029491Y020655D02*
X028804D01*
Y02025D01*
Y019845D01*
X029491D01*
Y02025D01*
Y020655D01*
D02*
G37*
G36*
X028242Y020659D02*
X02824D01*
X02823Y020657D01*
X027819D01*
Y020555D01*
X02824D01*
Y020557D01*
X028242D01*
Y019945D01*
X027819D01*
Y019843D01*
X028242D01*
X028281Y019851D01*
X028308Y019869D01*
X028333Y019863D01*
X028358Y019849D01*
Y019845D01*
X028704D01*
Y02025D01*
Y020655D01*
X028358D01*
Y020653D01*
X028333Y020639D01*
X028308Y020633D01*
X028281Y020651D01*
X028242Y020659D01*
D02*
G37*
G36*
X04725Y025073D02*
X047162Y025056D01*
X047088Y025006D01*
X047038Y024932D01*
X047021Y024844D01*
X047038Y024756D01*
X047088Y024682D01*
X047094Y024677D01*
X047094Y024677D01*
X047095Y024675D01*
X047096Y024673D01*
X047097Y02467D01*
X047097Y024667D01*
Y024225D01*
X0469D01*
Y023475D01*
X0476D01*
Y024225D01*
X047403D01*
Y024407D01*
X048984D01*
X049116Y024275D01*
X049095Y024225D01*
X049003D01*
Y023475D01*
X049597D01*
Y023607D01*
X049597Y023608D01*
X049606Y023615D01*
X049647Y02363D01*
X049709Y023588D01*
X049797Y023571D01*
X049885Y023588D01*
X049959Y023638D01*
X050009Y023712D01*
X050027Y0238D01*
X050009Y023888D01*
X049959Y023962D01*
X049885Y024012D01*
X049797Y024029D01*
X049709Y024012D01*
X049647Y02397D01*
X049606Y023985D01*
X049597Y023992D01*
X049597Y023993D01*
Y024225D01*
X04944D01*
Y02432D01*
X049429Y024379D01*
X049395Y024428D01*
X049155Y024668D01*
X049106Y024701D01*
X049047Y024713D01*
X047485D01*
X047476Y024729D01*
X047463Y024763D01*
X047479Y024844D01*
X047462Y024932D01*
X047412Y025006D01*
X047338Y025056D01*
X04725Y025073D01*
D02*
G37*
G36*
X04595Y022492D02*
X045703D01*
Y021969D01*
X04595D01*
Y022492D01*
D02*
G37*
G36*
X045603D02*
X045356D01*
Y021969D01*
X045603D01*
Y022492D01*
D02*
G37*
G36*
X049297Y021819D02*
X049189Y021804D01*
X049088Y021762D01*
X049001Y021696D01*
X048935Y021609D01*
X048893Y021508D01*
X048879Y0214D01*
X048893Y021292D01*
X048935Y021191D01*
X049001Y021104D01*
X049088Y021038D01*
X049189Y020996D01*
X049297Y020981D01*
X049406Y020996D01*
X049507Y021038D01*
X049593Y021104D01*
X04966Y021191D01*
X049702Y021292D01*
X049716Y0214D01*
X049702Y021508D01*
X04966Y021609D01*
X049593Y021696D01*
X049507Y021762D01*
X049406Y021804D01*
X049297Y021819D01*
D02*
G37*
G36*
X048297D02*
X048189Y021804D01*
X048088Y021762D01*
X048001Y021696D01*
X047935Y021609D01*
X047893Y021508D01*
X047879Y0214D01*
X047893Y021292D01*
X047935Y021191D01*
X048001Y021104D01*
X048088Y021038D01*
X048189Y020996D01*
X048297Y020981D01*
X048406Y020996D01*
X048507Y021038D01*
X048593Y021104D01*
X04866Y021191D01*
X048702Y021292D01*
X048716Y0214D01*
X048702Y021508D01*
X04866Y021609D01*
X048593Y021696D01*
X048507Y021762D01*
X048406Y021804D01*
X048297Y021819D01*
D02*
G37*
G36*
X047712Y020815D02*
X047347D01*
Y02045D01*
X047712D01*
Y020815D01*
D02*
G37*
G36*
X047247D02*
X046882D01*
Y02045D01*
X047247D01*
Y020815D01*
D02*
G37*
G36*
X040247Y020375D02*
X039947D01*
Y02005D01*
X040247D01*
Y020375D01*
D02*
G37*
G36*
X039847D02*
X039547D01*
Y02005D01*
X039847D01*
Y020375D01*
D02*
G37*
G36*
X047712Y02035D02*
X047347D01*
Y019985D01*
X047712D01*
Y02035D01*
D02*
G37*
G36*
X047247D02*
X046882D01*
Y019985D01*
X047247D01*
Y02035D01*
D02*
G37*
G36*
X049297Y020819D02*
X049189Y020804D01*
X049088Y020762D01*
X049001Y020696D01*
X048935Y020609D01*
X048893Y020508D01*
X048879Y0204D01*
X048893Y020292D01*
X048935Y020191D01*
X049001Y020104D01*
X049088Y020038D01*
X049189Y019996D01*
X049297Y019981D01*
X049406Y019996D01*
X049507Y020038D01*
X049593Y020104D01*
X04966Y020191D01*
X049702Y020292D01*
X049716Y0204D01*
X049702Y020508D01*
X04966Y020609D01*
X049593Y020696D01*
X049507Y020762D01*
X049406Y020804D01*
X049297Y020819D01*
D02*
G37*
G36*
X048297D02*
X048189Y020804D01*
X048088Y020762D01*
X048001Y020696D01*
X047935Y020609D01*
X047893Y020508D01*
X047879Y0204D01*
X047893Y020292D01*
X047935Y020191D01*
X048001Y020104D01*
X048088Y020038D01*
X048189Y019996D01*
X048297Y019981D01*
X048406Y019996D01*
X048507Y020038D01*
X048593Y020104D01*
X04866Y020191D01*
X048702Y020292D01*
X048716Y0204D01*
X048702Y020508D01*
X04866Y020609D01*
X048593Y020696D01*
X048507Y020762D01*
X048406Y020804D01*
X048297Y020819D01*
D02*
G37*
%LPD*%
G36*
X04733Y024747D02*
X047324Y024739D01*
X047318Y02473D01*
X047313Y024721D01*
X047309Y024711D01*
X047306Y024701D01*
X047303Y02469D01*
X047302Y024684D01*
X047304Y024674D01*
X047309Y024659D01*
X047316Y024646D01*
X047325Y024635D01*
X047336Y024626D01*
X047349Y024619D01*
X047364Y024614D01*
X047381Y024611D01*
X0474Y02461D01*
Y02451D01*
X047381Y024509D01*
X047364Y024506D01*
X047349Y024501D01*
X047336Y024494D01*
X047325Y024485D01*
X047316Y024474D01*
X047309Y024461D01*
X047304Y024446D01*
X047301Y024429D01*
X0473Y02441D01*
X0472Y02456D01*
X047263Y024654D01*
X0472D01*
X0472Y024667D01*
X047199Y024679D01*
X047197Y02469D01*
X047194Y024701D01*
X047191Y024711D01*
X047186Y024721D01*
X047182Y02473D01*
X047176Y024739D01*
X04717Y024747D01*
X047162Y024754D01*
X047337D01*
X04733Y024747D01*
D02*
G37*
G36*
X049338Y024205D02*
X049339Y024187D01*
X049342Y024172D01*
X049345Y024159D01*
X04935Y024148D01*
X049355Y024139D01*
X049362Y024132D01*
X049369Y024127D01*
X049378Y024124D01*
X049387Y024123D01*
X049187D01*
X049197Y024124D01*
X049205Y024127D01*
X049213Y024132D01*
X049219Y024139D01*
X049225Y024148D01*
X049229Y024159D01*
X049233Y024172D01*
X049235Y024187D01*
X049237Y024205D01*
X049237Y024224D01*
X049337D01*
X049338Y024205D01*
D02*
G37*
G36*
X047301D02*
X047302Y024187D01*
X047305Y024172D01*
X047308Y024159D01*
X047312Y024148D01*
X047318Y024139D01*
X047325Y024132D01*
X047332Y024127D01*
X04734Y024124D01*
X04735Y024123D01*
X04715D01*
X04716Y024124D01*
X047168Y024127D01*
X047175Y024132D01*
X047182Y024139D01*
X047188Y024148D01*
X047192Y024159D01*
X047196Y024172D01*
X047198Y024187D01*
X0472Y024205D01*
X0472Y024224D01*
X0473D01*
X047301Y024205D01*
D02*
G37*
G36*
X049708Y023712D02*
X0497Y02372D01*
X049692Y023726D01*
X049684Y023732D01*
X049674Y023737D01*
X049665Y023741D01*
X049654Y023744D01*
X049643Y023747D01*
X049632Y023749D01*
X04962Y02375D01*
X049608Y02375D01*
Y02385D01*
X04962Y02385D01*
X049632Y023851D01*
X049643Y023853D01*
X049654Y023856D01*
X049665Y023859D01*
X049674Y023863D01*
X049684Y023868D01*
X049692Y023874D01*
X0497Y02388D01*
X049708Y023888D01*
Y023712D01*
D02*
G37*
G36*
X049495Y023891D02*
X049498Y023882D01*
X049504Y023874D01*
X049511Y023868D01*
X04952Y023863D01*
X049531Y023858D01*
X049544Y023854D01*
X049559Y023852D01*
X049576Y023851D01*
X049596Y02385D01*
Y02375D01*
X049576Y023749D01*
X049559Y023748D01*
X049544Y023746D01*
X049531Y023742D01*
X04952Y023737D01*
X049511Y023732D01*
X049504Y023726D01*
X049498Y023718D01*
X049495Y023709D01*
X049494Y0237D01*
Y0239D01*
X049495Y023891D01*
D02*
G37*
D10*
X032697Y022652D02*
D03*
Y020448D02*
D03*
D11*
X035697Y027327D02*
D03*
X034797D02*
D03*
X035697Y0264D02*
D03*
X034797D02*
D03*
X034797Y029172D02*
D03*
X035697D02*
D03*
X034797Y028245D02*
D03*
X035697D02*
D03*
X034797Y0301D02*
D03*
X035697D02*
D03*
X0493Y02385D02*
D03*
X0484D02*
D03*
X040797Y021D02*
D03*
X039897D02*
D03*
D12*
X037025Y0323D02*
D03*
X034269D02*
D03*
D13*
X0322Y031568D02*
D03*
Y030781D02*
D03*
Y029993D02*
D03*
Y029206D02*
D03*
Y028419D02*
D03*
Y027631D02*
D03*
D14*
X031609Y026598D02*
D03*
X030822D02*
D03*
X030034D02*
D03*
X029247D02*
D03*
X028459D02*
D03*
X027672D02*
D03*
X026885D02*
D03*
X026097D02*
D03*
Y032602D02*
D03*
X026885D02*
D03*
X027672D02*
D03*
X028459D02*
D03*
X029247D02*
D03*
X030034D02*
D03*
X030822D02*
D03*
X031609D02*
D03*
D15*
X0415Y031493D02*
D03*
Y030993D02*
D03*
Y030493D02*
D03*
Y029993D02*
D03*
Y029493D02*
D03*
Y028993D02*
D03*
Y028493D02*
D03*
Y027993D02*
D03*
D16*
X046004Y032895D02*
D03*
X045504D02*
D03*
X045004D02*
D03*
X044504D02*
D03*
X044004D02*
D03*
X043504D02*
D03*
X043004D02*
D03*
X042504D02*
D03*
X046004Y026595D02*
D03*
X045504D02*
D03*
X045004D02*
D03*
X044504D02*
D03*
X044004D02*
D03*
X043504D02*
D03*
D17*
X043004D02*
D03*
X042504D02*
D03*
D18*
X04635Y02385D02*
D03*
X04725D02*
D03*
X03615Y02455D02*
D03*
X03705D02*
D03*
X0341D02*
D03*
X035D02*
D03*
X032D02*
D03*
X0329D02*
D03*
X040797Y02D02*
D03*
X039897D02*
D03*
D19*
X029541Y02025D02*
D03*
X028754D02*
D03*
D20*
X029659Y021313D02*
D03*
X029403D02*
D03*
X029147D02*
D03*
X028891D02*
D03*
X028635D02*
D03*
D21*
X044747Y020258D02*
D03*
D22*
X043842Y022542D02*
D03*
X044747D02*
D03*
X045653D02*
D03*
D23*
X039641Y0241D02*
D03*
D24*
X042554Y025D02*
D03*
X042554Y0232D02*
D03*
D25*
X027447Y0232D02*
D03*
X025847D02*
D03*
D26*
X037447Y022066D02*
D03*
Y020334D02*
D03*
X035197Y022066D02*
D03*
Y020334D02*
D03*
D27*
X045504Y028463D02*
X046437Y02753D01*
Y02564D02*
Y02753D01*
X045397Y0246D02*
X046437Y02564D01*
X045397Y0233D02*
Y0246D01*
X04635Y025123D02*
X046957Y02573D01*
X04635Y02385D02*
Y025123D01*
X046957Y02573D02*
Y02762D01*
X046004Y028574D02*
X046957Y02762D01*
X046004Y028574D02*
Y032895D01*
X045504Y028463D02*
Y032895D01*
D28*
X045397Y0233D02*
X046347D01*
X044897D02*
X045397D01*
X035447Y0323D02*
X037025D01*
X034768Y03298D02*
X035447Y0323D01*
X033257Y03298D02*
X034768D01*
X032879Y032602D02*
X033257Y03298D01*
X031609Y032602D02*
X032879D01*
X051297Y0204D02*
X052197Y0213D01*
Y0225D01*
X051595Y023103D02*
X052197Y0225D01*
X0484Y023103D02*
X051595D01*
X042554Y025D02*
Y025493D01*
X042347Y0257D02*
X042554Y025493D01*
X041997Y0257D02*
X042347D01*
X032797Y02705D02*
Y0293D01*
X032345Y026598D02*
X032797Y02705D01*
X031609Y026598D02*
X032345D01*
X028297Y02875D02*
X031604D01*
X028297D02*
X0283Y028747D01*
X035697Y029172D02*
X03572Y02915D01*
X036147D01*
X035697Y028245D02*
Y029172D01*
Y0264D02*
Y028245D01*
X03705Y02455D02*
X037647D01*
X03705D02*
Y025697D01*
X036347Y0264D02*
X03705Y025697D01*
X035697Y0264D02*
X036347D01*
X032097Y0205D02*
X032645D01*
X032697Y020448D01*
X032047Y02375D02*
X032847D01*
X031297D02*
X032047D01*
X034813Y020334D02*
X035197D01*
X033547Y0216D02*
X034813Y020334D01*
X032097Y0216D02*
X033547D01*
X030897Y0228D02*
X032097Y0216D01*
X028747Y0228D02*
X030897D01*
X028635Y022688D02*
X028747Y0228D01*
X040797Y02D02*
X040797Y02D01*
X040797Y02D02*
Y021D01*
X039897D02*
Y02155D01*
X040097Y02175D01*
X041597D01*
X041947Y0214D01*
X044497D01*
X044747Y02165D01*
Y022542D01*
X038597Y021D02*
X039897D01*
X038097Y0205D02*
X038597Y021D01*
X037447Y020334D02*
X037931D01*
X038097Y0205D01*
X035197Y020334D02*
X035731D01*
X035897Y0205D01*
X035Y02455D02*
X035497D01*
X032847Y02375D02*
X037297D01*
X032847D02*
X0329Y023803D01*
Y02455D01*
X041548Y0232D02*
X042554D01*
X040847Y0225D02*
X041548Y0232D01*
X038547Y0225D02*
X040847D01*
X037297Y02375D02*
X038547Y0225D01*
X030747Y0232D02*
X031297Y02375D01*
X027447Y0232D02*
X030747D01*
X024847D02*
X025847D01*
X023987Y02406D02*
X024847Y0232D01*
X023062Y02406D02*
X023987D01*
X043842Y022542D02*
Y024456D01*
X043298Y025D02*
X043842Y024456D01*
X042554Y025D02*
X043298D01*
X044747Y022542D02*
Y02315D01*
X044897Y0233D01*
X046347D02*
X046544Y023103D01*
X0484D01*
X047297Y0214D02*
Y022D01*
X0484Y023103D01*
Y02385D01*
D29*
X043004Y031783D02*
Y032895D01*
X043504Y031994D02*
Y032895D01*
X044504Y029346D02*
Y032895D01*
X043167Y02801D02*
X044504Y029346D01*
X043637Y0277D02*
X045004Y029067D01*
Y032895D01*
X043637Y0277D02*
X043657Y02768D01*
X042084Y030493D02*
X042327Y03025D01*
X0415Y030493D02*
X042084D01*
X0415Y030993D02*
X042714D01*
X042797Y03091D01*
X046004Y026074D02*
Y026595D01*
X04725Y02456D02*
Y024827D01*
Y02456D02*
X049047D01*
X04725Y02385D02*
Y02456D01*
X0493Y02385D02*
X04935Y0238D01*
X049287Y023863D02*
X0493Y02385D01*
X04935Y0238D02*
X049797D01*
X050787Y02089D02*
Y0227D01*
X050297Y0204D02*
X050787Y02089D01*
X049287Y023863D02*
Y02432D01*
X049047Y02456D02*
X049287Y02432D01*
X039747Y03145D02*
X040427D01*
X038747D02*
X038797D01*
X039277Y03097D01*
Y02833D02*
Y03097D01*
Y02833D02*
X041517Y02609D01*
X044437D01*
X044504Y026156D01*
Y026595D01*
X040427Y03145D02*
X040857Y03102D01*
Y02775D02*
Y03102D01*
Y02775D02*
X041427Y02718D01*
X043847D01*
X044004Y027023D01*
Y026595D02*
Y027023D01*
X026097Y03111D02*
Y032602D01*
Y02795D02*
Y03111D01*
X026885Y03145D02*
Y032602D01*
Y028437D02*
Y03145D01*
X027687Y03173D02*
Y032586D01*
X027672Y032602D02*
X027687Y032586D01*
X037717Y03172D02*
X037907D01*
X038637Y03245D01*
X028447Y03197D02*
Y032589D01*
X028459Y032602D01*
X038637Y03245D02*
X038747D01*
X034269Y030918D02*
Y0323D01*
Y030918D02*
X034337Y03085D01*
X033647Y02815D02*
Y02855D01*
X033247Y02895D02*
X033647Y02855D01*
X033247Y02895D02*
Y02935D01*
X03325Y029353D01*
X034797Y027327D02*
X035225D01*
X034802Y02825D02*
X035247D01*
X034797Y028245D02*
X034802Y02825D01*
X033975Y029172D02*
X034797D01*
X033797Y02935D02*
X033975Y029172D01*
X033797Y02935D02*
Y029533D01*
X033347Y029983D02*
X033797Y029533D01*
X033347Y029983D02*
Y0308D01*
X033597Y0289D02*
Y02945D01*
X032613Y030434D02*
X033597Y02945D01*
X030513Y030434D02*
X032613D01*
X033575Y027327D02*
X034797D01*
X033397Y02715D02*
X033575Y027327D01*
X026097Y026D02*
X026147Y02595D01*
X026097Y026D02*
Y026598D01*
X034747Y02635D02*
X034797Y0264D01*
X033297Y02635D02*
X034747D01*
X027672Y025825D02*
Y026598D01*
X030034Y025837D02*
Y026598D01*
X029597Y0254D02*
X030034Y025837D01*
X028897Y0254D02*
X029597D01*
X027997Y0239D02*
X029247Y02515D01*
X030147D01*
X030822Y025824D01*
Y026598D01*
X027497Y024D02*
X028897Y0254D01*
X029147Y021313D02*
Y02205D01*
X028872Y021332D02*
Y022375D01*
X028891Y022394D01*
X028872Y021332D02*
X028891Y021313D01*
X030822Y026598D02*
Y027276D01*
X028616Y021332D02*
Y022669D01*
X028635Y022688D01*
X028616Y021332D02*
X028635Y021313D01*
X034252Y028245D02*
X034797D01*
X033597Y0289D02*
X034252Y028245D01*
X029247Y0317D02*
X030513Y030434D01*
X029247Y0317D02*
Y032602D01*
X032947Y0312D02*
X033347Y0308D01*
X030697Y0312D02*
X032947D01*
X030034Y031863D02*
X030697Y0312D01*
X030034Y031863D02*
Y032602D01*
X030822Y032076D02*
X030982Y031915D01*
X034297Y0301D02*
X034797D01*
X033597Y0308D02*
X034297Y0301D01*
X033597Y0308D02*
Y03135D01*
X033032Y031915D02*
X033597Y03135D01*
X030982Y031915D02*
X033032D01*
X030822Y032076D02*
Y032602D01*
X028459Y026598D02*
Y027288D01*
X029247Y026598D02*
Y02725D01*
X030034Y026598D02*
Y027263D01*
X026697Y02215D02*
X026897Y02235D01*
X025847Y02215D02*
X026697D01*
X025547Y02185D02*
X025847Y02215D01*
X025547Y02135D02*
Y02185D01*
X024947Y02235D02*
X02643D01*
X024547Y02195D02*
X024947Y02235D01*
X024547Y02135D02*
Y02195D01*
X02643Y02235D02*
X026647Y022567D01*
X026347Y02255D02*
X026447Y02265D01*
X024347Y02255D02*
X026347D01*
X023547Y02175D02*
X024347Y02255D01*
X026647Y02355D02*
X029247Y02615D01*
X026647Y022567D02*
Y02355D01*
X029247Y02615D02*
Y026598D01*
X026447Y023633D02*
X028459Y025645D01*
X026447Y02265D02*
Y023633D01*
X028459Y025645D02*
Y026598D01*
X023547Y02135D02*
Y02175D01*
X025497Y0257D02*
X026147Y02505D01*
Y02485D02*
Y02505D01*
X026497Y0246D02*
Y02515D01*
X02575Y025897D02*
X026497Y02515D01*
X02575Y025897D02*
Y027303D01*
X026885Y028437D01*
X025497Y0257D02*
Y02735D01*
X026097Y02795D01*
D30*
X037247Y0269D02*
D03*
D31*
Y0299D02*
D03*
D32*
X030525Y02025D02*
D03*
X027769D02*
D03*
D33*
X030131Y021313D02*
D03*
X028163D02*
D03*
D34*
X023547Y02135D02*
D03*
X024547D02*
D03*
X025547D02*
D03*
X026547D02*
D03*
Y02035D02*
D03*
X025547D02*
D03*
X024547D02*
D03*
D35*
X023547D02*
D03*
D36*
X038747Y03045D02*
D03*
Y03145D02*
D03*
Y03245D02*
D03*
X039747Y03145D02*
D03*
Y03245D02*
D03*
X048297Y0204D02*
D03*
X049297D02*
D03*
X050297D02*
D03*
X051297D02*
D03*
Y0214D02*
D03*
X050297D02*
D03*
X049297D02*
D03*
X048297D02*
D03*
X047297D02*
D03*
D37*
X039747Y03045D02*
D03*
D38*
X047297Y0204D02*
D03*
D39*
X021133Y02406D02*
D03*
X023062D02*
D03*
D40*
X022039Y022957D02*
D03*
D41*
X053802Y026429D02*
D03*
X021125Y02639D02*
D03*
D42*
X04725Y024844D02*
D03*
X046004Y026074D02*
D03*
X043004Y031783D02*
D03*
X043504Y031994D02*
D03*
X043167Y02801D02*
D03*
X043657Y02768D02*
D03*
X042327Y03025D02*
D03*
X042797Y03091D02*
D03*
X049797Y0238D02*
D03*
X050787Y0227D02*
D03*
X026097Y03111D02*
D03*
X026885Y03145D02*
D03*
X027687Y03173D02*
D03*
X037717Y03172D02*
D03*
X028447Y03197D02*
D03*
X034337Y03085D02*
D03*
X033647Y02815D02*
D03*
X03325Y029353D02*
D03*
X035225Y027327D02*
D03*
X032797Y0293D02*
D03*
X03025Y028747D02*
D03*
X031604Y02875D02*
D03*
X0283Y028747D02*
D03*
X035247Y02825D02*
D03*
X036147Y02915D02*
D03*
X033397Y02715D02*
D03*
X026147Y02595D02*
D03*
X033297Y02635D02*
D03*
X027672Y025825D02*
D03*
X027997Y0239D02*
D03*
X027497Y024D02*
D03*
X029147Y02205D02*
D03*
X028891Y022394D02*
D03*
X028459Y027288D02*
D03*
X029247Y02725D02*
D03*
X030034Y027263D02*
D03*
X030822Y027276D02*
D03*
X026897Y02235D02*
D03*
X026147Y02485D02*
D03*
X026497Y0246D02*
D03*
X032097Y0205D02*
D03*
X032047Y02375D02*
D03*
X041997Y0257D02*
D03*
X038097Y0205D02*
D03*
X037647Y02455D02*
D03*
X035897Y0205D02*
D03*
X035497Y02455D02*
D03*
M02*
