G04 Layer_Color=32768*
%FSTAX24Y24*%
%MOIN*%
G70*
G01*
G75*
%ADD47C,0.0050*%
%ADD84C,0.0049*%
D47*
X049768Y02758D02*
G03*
X049768Y02758I-000394J0D01*
G01*
X0415Y032895D02*
X042287D01*
X046224D02*
X050358D01*
X0415Y031714D02*
Y032895D01*
Y026595D02*
Y027777D01*
X046224Y026595D02*
X04839D01*
X0415D02*
X042287D01*
X04839Y028564D02*
X050358D01*
X04839Y026595D02*
Y028564D01*
X050358Y026595D02*
Y028564D01*
Y032895D01*
X04839Y026595D02*
X050358D01*
Y032895D02*
X05213D01*
Y026595D02*
Y032895D01*
X050358Y026595D02*
X05213D01*
D84*
X051628Y03132D02*
Y031726D01*
X051933Y03193D02*
X051323D01*
Y032235D01*
X051424Y032337D01*
X051628D01*
X051729Y032235D01*
Y03193D01*
X051424Y032947D02*
X051323Y032845D01*
Y032642D01*
X051424Y03254D01*
X051831D01*
X051933Y032642D01*
Y032845D01*
X051831Y032947D01*
X051323Y03315D02*
X051933D01*
Y033455D01*
X051831Y033557D01*
X051729D01*
X051628Y033455D01*
Y03315D01*
Y033455D01*
X051526Y033557D01*
X051424D01*
X051323Y033455D01*
Y03315D01*
X049856Y03132D02*
Y031726D01*
X049551Y03193D02*
Y032133D01*
Y032032D01*
X050161D01*
Y03193D01*
Y032133D01*
Y032438D02*
X049551D01*
Y032743D01*
X049653Y032845D01*
X049856D01*
X049958Y032743D01*
Y032438D01*
X049551Y033048D02*
X050161Y033455D01*
X049551D02*
X050161Y033048D01*
M02*
