G04 Layer_Color=65535*
%FSTAX24Y24*%
%MOIN*%
G70*
G01*
G75*
%ADD29C,0.0100*%
%ADD43C,0.0010*%
%ADD44C,0.0118*%
%ADD45C,0.0079*%
%ADD46C,0.0098*%
%ADD47C,0.0050*%
%ADD48C,0.0010*%
%ADD49C,0.0040*%
%ADD50C,0.0080*%
%ADD51R,0.1000X0.0500*%
G36*
X026097Y027147D02*
X025847Y027647D01*
X026347D01*
X026097Y027147D01*
D02*
G37*
D29*
X036757Y03157D02*
Y03202D01*
Y03258D02*
Y03303D01*
X034537D02*
X036757D01*
X034537Y03157D02*
X036757D01*
X035147Y03205D02*
X036147D01*
X035147D02*
Y03255D01*
X036147D01*
Y03205D02*
Y03255D01*
X034537Y03157D02*
Y03202D01*
Y03258D02*
Y03303D01*
X022802Y026417D02*
X025736D01*
X03197D02*
X032227D01*
X022802Y032782D02*
X025737D01*
X03197D02*
X032227D01*
X022802Y026417D02*
Y032782D01*
X032227Y026417D02*
Y027264D01*
Y031935D02*
Y032782D01*
D43*
X03705Y028991D02*
G03*
X037444Y028991I000197J000197D01*
G01*
Y0284D02*
G03*
X03705Y0284I-000197J-000197D01*
G01*
Y027613D02*
Y029187D01*
Y027613D02*
X037444D01*
Y029187D01*
D44*
X025753Y026233D02*
G03*
X025753Y026233I-000059J0D01*
G01*
D45*
X028655Y021864D02*
G03*
X028655Y021864I-000039J0D01*
G01*
X024047Y01985D02*
Y02085D01*
X023047D02*
X024047D01*
X023047Y01985D02*
Y02185D01*
X027047D01*
Y01985D02*
Y02185D01*
X023047Y01985D02*
X027047D01*
X039247Y03095D02*
X040247D01*
X039247Y02995D02*
Y03095D01*
X038247Y02995D02*
X040247D01*
X038247D02*
Y03295D01*
X040247D01*
Y02995D02*
Y03295D01*
X047797Y0199D02*
Y0209D01*
X046797D02*
X047797D01*
X046797Y0199D02*
Y0219D01*
X048797D01*
X051797D01*
Y0199D02*
Y0219D01*
X046797Y0199D02*
X051797D01*
X043428Y020849D02*
Y021951D01*
X046066Y020849D02*
Y021951D01*
X043428Y020849D02*
X046066D01*
X043428Y021951D02*
X046066D01*
X018771Y023076D02*
Y025044D01*
X023141Y023076D02*
Y023509D01*
X022511Y023076D02*
X023141D01*
Y024611D02*
Y025044D01*
X018771D02*
X023141D01*
X018771Y023076D02*
X021566D01*
X026748Y023053D02*
Y023447D01*
X026552Y023132D02*
Y023368D01*
X026512Y023053D02*
Y023447D01*
Y023053D02*
X026709Y02325D01*
X026611Y023191D02*
Y023309D01*
X026512Y023447D02*
X026709Y02325D01*
X02707Y02265D02*
X027847D01*
X02707Y02375D02*
X027847D01*
X025297D02*
X026125D01*
X025297Y02265D02*
X026125D01*
X027947Y02275D02*
Y02365D01*
X027847Y02375D02*
X027947Y02365D01*
X027847Y02265D02*
X027947Y02275D01*
X025297Y02265D02*
Y02375D01*
D46*
X046115Y022542D02*
G03*
X046115Y022542I-000049J0D01*
G01*
X042072Y0232D02*
G03*
X042072Y0232I-000049J0D01*
G01*
D47*
X03655Y03029D02*
X037944D01*
Y02651D02*
Y03029D01*
X03655Y02651D02*
X037944D01*
X03655D02*
Y03029D01*
X037944D01*
Y02651D02*
Y03029D01*
X03655Y02651D02*
X037944D01*
X03655D02*
Y03029D01*
X031398Y020861D02*
X032008Y020251D01*
X033386D02*
X033996Y020861D01*
Y022849D01*
X031398Y020861D02*
Y022849D01*
X033091D02*
X033996D01*
X031398D02*
X032304D01*
X032008Y020251D02*
X032304D01*
X033091D02*
X033386D01*
X034547Y026988D02*
X035947D01*
Y027657D01*
X034547D02*
X035947D01*
X034547Y026988D02*
Y027657D01*
Y02606D02*
X035947D01*
Y02673D01*
X034547D02*
X035947D01*
X034547Y02606D02*
Y02673D01*
Y029513D02*
X035947D01*
X034547Y028842D02*
Y029513D01*
Y028842D02*
X035947D01*
Y029513D01*
X034547Y028585D02*
X035947D01*
X034547Y027915D02*
Y028585D01*
Y027915D02*
X035947D01*
Y028585D01*
X034547Y03044D02*
X035947D01*
X034547Y02977D02*
Y03044D01*
Y02977D02*
X035947D01*
Y03044D01*
X04815Y02351D02*
X04955D01*
Y02418D01*
X04815D02*
X04955D01*
X04815Y02351D02*
Y02418D01*
X04603Y02351D02*
Y02418D01*
X04756D01*
Y02351D02*
Y02418D01*
X04603Y02351D02*
X04756D01*
X027691Y019679D02*
X030604D01*
Y019785D01*
X027691Y019679D02*
Y019785D01*
X030533Y021372D02*
X030604D01*
X027691D02*
X027761D01*
X030604Y020681D02*
Y021372D01*
X027691Y020681D02*
Y021372D01*
X039326Y022722D02*
X041688D01*
X039326Y025478D02*
X041688D01*
Y022998D02*
X04216D01*
X041688D02*
Y023391D01*
X04216D01*
X042003Y023903D02*
Y024297D01*
X041688D02*
X042003D01*
X041688Y023903D02*
Y024297D01*
Y023903D02*
X042003D01*
X041688Y025202D02*
X04216D01*
X041688Y024809D02*
Y025202D01*
Y024809D02*
X04216D01*
X041688Y022722D02*
Y025478D01*
X039326Y025281D02*
Y025478D01*
Y022722D02*
Y022919D01*
X039647Y02066D02*
X041047D01*
Y02133D01*
X039647D02*
X041047D01*
X039647Y02066D02*
Y02133D01*
X03583Y02421D02*
Y02488D01*
X03736D01*
Y02421D02*
Y02488D01*
X03583Y02421D02*
X03736D01*
X03378D02*
Y02488D01*
X03531D01*
Y02421D02*
Y02488D01*
X03378Y02421D02*
X03531D01*
X03168D02*
Y02488D01*
X03321D01*
Y02421D02*
Y02488D01*
X03168Y02421D02*
X03321D01*
X036404Y02055D02*
X036798Y020157D01*
X038097D02*
X038491Y02055D01*
Y022243D01*
X036404Y02055D02*
Y022243D01*
X037841D02*
X038491D01*
X036404D02*
X037054D01*
X036798Y020157D02*
X037054D01*
X037841D02*
X038097D01*
X034154Y02055D02*
X034548Y020157D01*
X035847D02*
X036241Y02055D01*
Y022243D01*
X034154Y02055D02*
Y022243D01*
X035591D02*
X036241D01*
X034154D02*
X034804D01*
X034548Y020157D02*
X034804D01*
X035591D02*
X035847D01*
D48*
X03705Y029187D02*
X037444D01*
D49*
X035077Y027578D02*
X035417D01*
X035077Y027078D02*
X035417D01*
X035077Y02665D02*
X035417D01*
X035077Y02615D02*
X035417D01*
X035077Y028923D02*
X035417D01*
X035077Y029423D02*
X035417D01*
X035077Y027995D02*
X035417D01*
X035077Y028495D02*
X035417D01*
X035077Y02985D02*
X035417D01*
X035077Y03035D02*
X035417D01*
X04868Y0241D02*
X04902D01*
X04868Y0236D02*
X04902D01*
X04663D02*
X04697D01*
X04663Y0241D02*
X04697D01*
X040177Y02125D02*
X040517D01*
X040177Y02075D02*
X040517D01*
X03643Y0243D02*
X03677D01*
X03643Y0248D02*
X03677D01*
X03438Y0243D02*
X03472D01*
X03438Y0248D02*
X03472D01*
X03228Y0243D02*
X03262D01*
X03228Y0248D02*
X03262D01*
X039897Y01965D02*
Y0197D01*
Y01965D02*
X040797D01*
Y0197D01*
X039897Y0203D02*
Y02035D01*
X040797D01*
Y0203D02*
Y02035D01*
D50*
X038747Y029033D02*
Y0293D01*
X038547D01*
Y029167D01*
Y0293D01*
X038347D01*
Y0289D02*
Y028767D01*
Y028833D01*
X038747D01*
Y0289D01*
X038614Y0285D02*
Y028367D01*
X038547Y0283D01*
X038347D01*
Y0285D01*
X038414Y028567D01*
X038481Y0285D01*
Y0283D01*
X038347Y028167D02*
Y027967D01*
X038414Y0279D01*
X038481Y027967D01*
Y0281D01*
X038547Y028167D01*
X038614Y0281D01*
Y0279D01*
X038747Y027767D02*
X038347D01*
X038547D01*
X038614Y027701D01*
Y027567D01*
X038547Y027501D01*
X038347D01*
X031464Y023483D02*
X031397Y02355D01*
X031264D01*
X031197Y023483D01*
Y023217D01*
X031264Y02315D01*
X031397D01*
X031464Y023217D01*
X031597Y023483D02*
X031664Y02355D01*
X031797D01*
X031864Y023483D01*
Y023417D01*
X031797Y02335D01*
X031864Y023283D01*
Y023217D01*
X031797Y02315D01*
X031664D01*
X031597Y023217D01*
Y023283D01*
X031664Y02335D01*
X031597Y023417D01*
Y023483D01*
X031664Y02335D02*
X031797D01*
X033647Y027078D02*
Y027477D01*
X033847D01*
X033914Y027411D01*
Y027277D01*
X033847Y027211D01*
X033647D01*
X033781D02*
X033914Y027078D01*
X034314D02*
X034047D01*
X034314Y027344D01*
Y027411D01*
X034247Y027477D01*
X034114D01*
X034047Y027411D01*
X033714Y0262D02*
Y0266D01*
X033914D01*
X03398Y026533D01*
Y0264D01*
X033914Y026333D01*
X033714D01*
X033847D02*
X03398Y0262D01*
X034114D02*
X034247D01*
X03418D01*
Y0266D01*
X034114Y026533D01*
X033647Y028942D02*
Y029342D01*
X033847D01*
X033914Y029276D01*
Y029142D01*
X033847Y029076D01*
X033647D01*
X033781D02*
X033914Y028942D01*
X034247D02*
Y029342D01*
X034047Y029142D01*
X034314D01*
X034197Y031D02*
Y0314D01*
X034397D01*
X034464Y031333D01*
Y0312D01*
X034397Y031133D01*
X034197D01*
X034331D02*
X034464Y031D01*
X034797D02*
X034664D01*
X034597Y031067D01*
Y0312D01*
X034664Y031267D01*
X034797D01*
X034864Y0312D01*
Y031133D01*
X034597D01*
X034997Y031D02*
X035197D01*
X035264Y031067D01*
X035197Y031133D01*
X035064D01*
X034997Y0312D01*
X035064Y031267D01*
X035264D01*
X035597Y031D02*
X035464D01*
X035397Y031067D01*
Y0312D01*
X035464Y031267D01*
X035597D01*
X035663Y0312D01*
Y031133D01*
X035397D01*
X035863Y031333D02*
Y031267D01*
X035797D01*
X03593D01*
X035863D01*
Y031067D01*
X03593Y031D01*
X033647Y028035D02*
Y028435D01*
X033847D01*
X033914Y028368D01*
Y028235D01*
X033847Y028168D01*
X033647D01*
X033781D02*
X033914Y028035D01*
X034047Y028368D02*
X034114Y028435D01*
X034247D01*
X034314Y028368D01*
Y028302D01*
X034247Y028235D01*
X03418D01*
X034247D01*
X034314Y028168D01*
Y028102D01*
X034247Y028035D01*
X034114D01*
X034047Y028102D01*
X033647Y02989D02*
Y03029D01*
X033847D01*
X033914Y030223D01*
Y03009D01*
X033847Y030023D01*
X033647D01*
X033781D02*
X033914Y02989D01*
X034314Y03029D02*
X034047D01*
Y03009D01*
X03418Y030157D01*
X034247D01*
X034314Y03009D01*
Y029957D01*
X034247Y02989D01*
X034114D01*
X034047Y029957D01*
X0482Y02448D02*
Y02488D01*
X0484D01*
X048467Y024813D01*
Y02468D01*
X0484Y024613D01*
X0482D01*
X048333D02*
X048467Y02448D01*
X048866Y02488D02*
X048733Y024813D01*
X0486Y02468D01*
Y024547D01*
X048667Y02448D01*
X0488D01*
X048866Y024547D01*
Y024613D01*
X0488Y02468D01*
X0486D01*
X046347Y024813D02*
X04628Y02488D01*
X046147D01*
X04608Y024813D01*
Y024547D01*
X046147Y02448D01*
X04628D01*
X046347Y024547D01*
X04648Y02448D02*
X046613D01*
X046547D01*
Y02488D01*
X04648Y024813D01*
X02534Y02447D02*
Y02407D01*
X02554D01*
X025607Y024137D01*
Y024403D01*
X02554Y02447D01*
X02534D01*
X02574D02*
X025873D01*
X025807D01*
Y02407D01*
X02574D01*
X025873D01*
X026273Y02447D02*
X02614D01*
X026073Y024403D01*
Y024137D01*
X02614Y02407D01*
X026273D01*
X02634Y024137D01*
Y024403D01*
X026273Y02447D01*
X026473Y02407D02*
X026606D01*
X02654D01*
Y02447D01*
X026473Y024403D01*
X0414Y02089D02*
Y02129D01*
X0416D01*
X041667Y021223D01*
Y02109D01*
X0416Y021023D01*
X0414D01*
X041533D02*
X041667Y02089D01*
X0418D02*
X041933D01*
X041867D01*
Y02129D01*
X0418Y021223D01*
X0424Y02129D02*
X042133D01*
Y02109D01*
X042266Y021157D01*
X042333D01*
X0424Y02109D01*
Y020957D01*
X042333Y02089D01*
X0422D01*
X042133Y020957D01*
X036147Y025523D02*
X03608Y02559D01*
X035947D01*
X03588Y025523D01*
Y025257D01*
X035947Y02519D01*
X03608D01*
X036147Y025257D01*
X03628Y02559D02*
X036546D01*
Y025523D01*
X03628Y025257D01*
Y02519D01*
X034107Y025523D02*
X03404Y02559D01*
X033907D01*
X03384Y025523D01*
Y025257D01*
X033907Y02519D01*
X03404D01*
X034107Y025257D01*
X034506Y02559D02*
X034373Y025523D01*
X03424Y02539D01*
Y025257D01*
X034307Y02519D01*
X03444D01*
X034506Y025257D01*
Y025323D01*
X03444Y02539D01*
X03424D01*
X032007Y025523D02*
X03194Y02559D01*
X031807D01*
X03174Y025523D01*
Y025257D01*
X031807Y02519D01*
X03194D01*
X032007Y025257D01*
X032406Y02559D02*
X03214D01*
Y02539D01*
X032273Y025457D01*
X03234D01*
X032406Y02539D01*
Y025257D01*
X03234Y02519D01*
X032207D01*
X03214Y025257D01*
X037117Y023293D02*
X03705Y02336D01*
X036917D01*
X03685Y023293D01*
Y023027D01*
X036917Y02296D01*
X03705D01*
X037117Y023027D01*
X03725Y02296D02*
X037383D01*
X037317D01*
Y02336D01*
X03725Y023293D01*
X037583D02*
X03765Y02336D01*
X037783D01*
X03785Y023293D01*
Y023027D01*
X037783Y02296D01*
X03765D01*
X037583Y023027D01*
Y023293D01*
X034867D02*
X0348Y02336D01*
X034667D01*
X0346Y023293D01*
Y023027D01*
X034667Y02296D01*
X0348D01*
X034867Y023027D01*
X035D02*
X035067Y02296D01*
X0352D01*
X035266Y023027D01*
Y023293D01*
X0352Y02336D01*
X035067D01*
X035Y023293D01*
Y023227D01*
X035067Y02316D01*
X035266D01*
X04139Y0203D02*
Y0199D01*
X041657D01*
X042056Y0203D02*
X04179D01*
Y0199D01*
X042056D01*
X04179Y0201D02*
X041923D01*
X04219Y0203D02*
Y0199D01*
X04239D01*
X042456Y019967D01*
Y020233D01*
X04239Y0203D01*
X04219D01*
X04259Y0199D02*
X042723D01*
X042656D01*
Y0203D01*
X04259Y020233D01*
D51*
X035647Y0323D02*
D03*
M02*
