G04 Layer_Color=128*
%FSTAX24Y24*%
%MOIN*%
G70*
G01*
G75*
%ADD85C,0.0020*%
D85*
X03709Y0269D02*
X037405D01*
X037247Y026743D02*
Y027057D01*
X03709Y0299D02*
X037405D01*
X037247Y029743D02*
Y030057D01*
X030427Y02025D02*
X030624D01*
X030525Y020152D02*
Y020348D01*
X027671Y02025D02*
X027868D01*
X027769Y020152D02*
Y020348D01*
X030023Y021313D02*
X03024D01*
X030131Y021205D02*
Y021421D01*
X028055Y021313D02*
X028271D01*
X028163Y021205D02*
Y021421D01*
X023331Y02135D02*
X023764D01*
X023547Y021133D02*
Y021567D01*
X024331Y02135D02*
X024764D01*
X024547Y021133D02*
Y021567D01*
X025331Y02135D02*
X025764D01*
X025547Y021133D02*
Y021567D01*
X026331Y02135D02*
X026764D01*
X026547Y021133D02*
Y021567D01*
X026331Y02035D02*
X026764D01*
X026547Y020133D02*
Y020567D01*
X025331Y02035D02*
X025764D01*
X025547Y020133D02*
Y020567D01*
X024331Y02035D02*
X024764D01*
X024547Y020133D02*
Y020567D01*
X023331Y02035D02*
X023764D01*
X023547Y020133D02*
Y020567D01*
X038531Y03045D02*
X038964D01*
X038747Y030233D02*
Y030667D01*
X038531Y03145D02*
X038964D01*
X038747Y031233D02*
Y031667D01*
X038531Y03245D02*
X038964D01*
X038747Y032233D02*
Y032667D01*
X039531Y03045D02*
X039964D01*
X039747Y030233D02*
Y030667D01*
X039531Y03145D02*
X039964D01*
X039747Y031233D02*
Y031667D01*
X039531Y03245D02*
X039964D01*
X039747Y032233D02*
Y032667D01*
X047081Y0204D02*
X047514D01*
X047297Y020183D02*
Y020617D01*
X048081Y0204D02*
X048514D01*
X048297Y020183D02*
Y020617D01*
X049081Y0204D02*
X049514D01*
X049297Y020183D02*
Y020617D01*
X050081Y0204D02*
X050514D01*
X050297Y020183D02*
Y020617D01*
X051081Y0204D02*
X051514D01*
X051297Y020183D02*
Y020617D01*
X051081Y0214D02*
X051514D01*
X051297Y021183D02*
Y021617D01*
X050081Y0214D02*
X050514D01*
X050297Y021183D02*
Y021617D01*
X049081Y0214D02*
X049514D01*
X049297Y021183D02*
Y021617D01*
X048081Y0214D02*
X048514D01*
X048297Y021183D02*
Y021617D01*
X047081Y0214D02*
X047514D01*
X047297Y021183D02*
Y021617D01*
X020936Y02406D02*
X02133D01*
X021133Y023863D02*
Y024257D01*
X022865Y02406D02*
X023259D01*
X023062Y023863D02*
Y024257D01*
X021842Y022957D02*
X022235D01*
X022039Y022761D02*
Y023154D01*
X053015Y026429D02*
X05459D01*
X053802Y025642D02*
Y027217D01*
X020338Y02639D02*
X021913D01*
X021125Y025602D02*
Y027177D01*
X047175Y024844D02*
X047325D01*
X04725Y024769D02*
Y024919D01*
X045929Y026074D02*
X046079D01*
X046004Y025998D02*
Y026149D01*
X042929Y031783D02*
X043079D01*
X043004Y031709D02*
Y031858D01*
X043429Y031994D02*
X043579D01*
X043504Y031918D02*
Y032069D01*
X043092Y02801D02*
X043242D01*
X043167Y027935D02*
Y028085D01*
X043582Y02768D02*
X043732D01*
X043657Y027605D02*
Y027755D01*
X042252Y03025D02*
X042402D01*
X042327Y030175D02*
Y030325D01*
X042722Y03091D02*
X042872D01*
X042797Y030835D02*
Y030985D01*
X049722Y0238D02*
X049872D01*
X049797Y023725D02*
Y023875D01*
X050712Y0227D02*
X050862D01*
X050787Y022625D02*
Y022775D01*
X026022Y03111D02*
X026172D01*
X026097Y031035D02*
Y031185D01*
X02681Y03145D02*
X02696D01*
X026885Y031375D02*
Y031525D01*
X027612Y03173D02*
X027762D01*
X027687Y031655D02*
Y031805D01*
X037642Y03172D02*
X037792D01*
X037717Y031645D02*
Y031795D01*
X028372Y03197D02*
X028522D01*
X028447Y031895D02*
Y032045D01*
X034262Y03085D02*
X034412D01*
X034337Y030775D02*
Y030925D01*
X033572Y02815D02*
X033722D01*
X033647Y028075D02*
Y028225D01*
X033175Y029353D02*
X033325D01*
X03325Y029278D02*
Y029428D01*
X03515Y027327D02*
X0353D01*
X035225Y027253D02*
Y027403D01*
X032722Y0293D02*
X032872D01*
X032797Y029225D02*
Y029375D01*
X030175Y028747D02*
X030325D01*
X03025Y028672D02*
Y028822D01*
X031529Y02875D02*
X031679D01*
X031604Y028675D02*
Y028825D01*
X028225Y028747D02*
X028375D01*
X0283Y028672D02*
Y028822D01*
X035172Y02825D02*
X035322D01*
X035247Y028175D02*
Y028325D01*
X036072Y02915D02*
X036222D01*
X036147Y029075D02*
Y029225D01*
X033322Y02715D02*
X033472D01*
X033397Y027075D02*
Y027225D01*
X026072Y02595D02*
X026222D01*
X026147Y025875D02*
Y026025D01*
X033222Y02635D02*
X033372D01*
X033297Y026275D02*
Y026425D01*
X027597Y025825D02*
X027747D01*
X027672Y02575D02*
Y0259D01*
X027922Y0239D02*
X028072D01*
X027997Y023825D02*
Y023975D01*
X027422Y024D02*
X027572D01*
X027497Y023925D02*
Y024075D01*
X029072Y02205D02*
X029222D01*
X029147Y021975D02*
Y022125D01*
X028816Y022394D02*
X028966D01*
X028891Y022319D02*
Y022469D01*
X028384Y027288D02*
X028534D01*
X028459Y027213D02*
Y027363D01*
X029172Y02725D02*
X029322D01*
X029247Y027175D02*
Y027325D01*
X029959Y027263D02*
X030109D01*
X030034Y027188D02*
Y027338D01*
X030747Y027276D02*
X030897D01*
X030822Y027201D02*
Y027351D01*
X026822Y02235D02*
X026972D01*
X026897Y022275D02*
Y022425D01*
X026072Y02485D02*
X026222D01*
X026147Y024775D02*
Y024925D01*
X026422Y0246D02*
X026572D01*
X026497Y024525D02*
Y024675D01*
X032022Y0205D02*
X032172D01*
X032097Y020425D02*
Y020575D01*
X031972Y02375D02*
X032122D01*
X032047Y023675D02*
Y023825D01*
X041922Y0257D02*
X042072D01*
X041997Y025625D02*
Y025775D01*
X038022Y0205D02*
X038172D01*
X038097Y020425D02*
Y020575D01*
X037572Y02455D02*
X037722D01*
X037647Y024475D02*
Y024625D01*
X035822Y0205D02*
X035972D01*
X035897Y020425D02*
Y020575D01*
X035422Y02455D02*
X035572D01*
X035497Y024475D02*
Y024625D01*
M02*
